%TF.GenerationSoftware,KiCad,Pcbnew,8.0.9*%
%TF.CreationDate,2026-03-04T14:02:13+02:00*%
%TF.ProjectId,DeFocuserLiteSMD,4465466f-6375-4736-9572-4c697465534d,rev?*%
%TF.SameCoordinates,Original*%
%TF.FileFunction,Soldermask,Top*%
%TF.FilePolarity,Negative*%
%FSLAX46Y46*%
G04 Gerber Fmt 4.6, Leading zero omitted, Abs format (unit mm)*
G04 Created by KiCad (PCBNEW 8.0.9) date 2026-03-04 14:02:13*
%MOMM*%
%LPD*%
G01*
G04 APERTURE LIST*
G04 Aperture macros list*
%AMRoundRect*
0 Rectangle with rounded corners*
0 $1 Rounding radius*
0 $2 $3 $4 $5 $6 $7 $8 $9 X,Y pos of 4 corners*
0 Add a 4 corners polygon primitive as box body*
4,1,4,$2,$3,$4,$5,$6,$7,$8,$9,$2,$3,0*
0 Add four circle primitives for the rounded corners*
1,1,$1+$1,$2,$3*
1,1,$1+$1,$4,$5*
1,1,$1+$1,$6,$7*
1,1,$1+$1,$8,$9*
0 Add four rect primitives between the rounded corners*
20,1,$1+$1,$2,$3,$4,$5,0*
20,1,$1+$1,$4,$5,$6,$7,0*
20,1,$1+$1,$6,$7,$8,$9,0*
20,1,$1+$1,$8,$9,$2,$3,0*%
%AMOutline4P*
0 Free polygon, 4 corners , with rotation*
0 The origin of the aperture is its center*
0 number of corners: always 4*
0 $1 to $8 corner X, Y*
0 $9 Rotation angle, in degrees counterclockwise*
0 create outline with 4 corners*
4,1,4,$1,$2,$3,$4,$5,$6,$7,$8,$1,$2,$9*%
G04 Aperture macros list end*
%ADD10RoundRect,0.381000X-0.381000X1.333500X-0.381000X-1.333500X0.381000X-1.333500X0.381000X1.333500X0*%
%ADD11RoundRect,0.249999X-0.450001X-1.450001X0.450001X-1.450001X0.450001X1.450001X-0.450001X1.450001X0*%
%ADD12RoundRect,0.250000X1.500000X0.550000X-1.500000X0.550000X-1.500000X-0.550000X1.500000X-0.550000X0*%
%ADD13RoundRect,0.250000X0.625000X-0.400000X0.625000X0.400000X-0.625000X0.400000X-0.625000X-0.400000X0*%
%ADD14RoundRect,0.525400X-0.900400X-0.525400X0.900400X-0.525400X0.900400X0.525400X-0.900400X0.525400X0*%
%ADD15RoundRect,0.300400X1.000400X0.300400X-1.000400X0.300400X-1.000400X-0.300400X1.000400X-0.300400X0*%
%ADD16C,1.700000*%
%ADD17RoundRect,0.250000X1.075000X-0.312500X1.075000X0.312500X-1.075000X0.312500X-1.075000X-0.312500X0*%
%ADD18RoundRect,0.250000X-0.625000X0.312500X-0.625000X-0.312500X0.625000X-0.312500X0.625000X0.312500X0*%
%ADD19RoundRect,0.250000X-0.475000X0.250000X-0.475000X-0.250000X0.475000X-0.250000X0.475000X0.250000X0*%
%ADD20RoundRect,0.250000X-0.250000X-0.475000X0.250000X-0.475000X0.250000X0.475000X-0.250000X0.475000X0*%
%ADD21RoundRect,0.250000X0.725000X-0.600000X0.725000X0.600000X-0.725000X0.600000X-0.725000X-0.600000X0*%
%ADD22O,1.950000X1.700000*%
%ADD23Outline4P,-1.800000X-1.150000X1.800000X-0.550000X1.800000X0.550000X-1.800000X1.150000X270.000000*%
%ADD24Outline4P,-1.800000X-1.150000X1.800000X-0.550000X1.800000X0.550000X-1.800000X1.150000X90.000000*%
%ADD25O,0.900000X0.280000*%
%ADD26O,0.280000X0.900000*%
%ADD27C,0.400000*%
%ADD28R,3.500000X3.500000*%
%ADD29RoundRect,0.250000X-0.625000X0.400000X-0.625000X-0.400000X0.625000X-0.400000X0.625000X0.400000X0*%
%ADD30RoundRect,0.250000X-0.725000X0.600000X-0.725000X-0.600000X0.725000X-0.600000X0.725000X0.600000X0*%
%ADD31RoundRect,0.250000X0.325000X0.650000X-0.325000X0.650000X-0.325000X-0.650000X0.325000X-0.650000X0*%
%ADD32RoundRect,0.150000X-0.150000X0.512500X-0.150000X-0.512500X0.150000X-0.512500X0.150000X0.512500X0*%
%ADD33RoundRect,0.250000X-0.450000X0.262500X-0.450000X-0.262500X0.450000X-0.262500X0.450000X0.262500X0*%
G04 APERTURE END LIST*
D10*
%TO.C,L1*%
X158496000Y-117348000D03*
X148082000Y-117348000D03*
%TD*%
D11*
%TO.C,C2*%
X158732000Y-98298000D03*
X162832000Y-98298000D03*
%TD*%
D12*
%TO.C,C5*%
X135288000Y-107442000D03*
X129888000Y-107442000D03*
%TD*%
D13*
%TO.C,R2*%
X155702000Y-102642000D03*
X155702000Y-99542000D03*
%TD*%
D14*
%TO.C,U1*%
X137995000Y-79244000D03*
X137995000Y-81784000D03*
X137995000Y-84324000D03*
X137995000Y-86864000D03*
X137995000Y-89404000D03*
X137995000Y-91944000D03*
X137995000Y-94484000D03*
X154160000Y-94484000D03*
X154160000Y-91944000D03*
X154160000Y-89404000D03*
X154160000Y-86864000D03*
X154160000Y-84324000D03*
X154160000Y-81784000D03*
X154160000Y-79244000D03*
D15*
X141605000Y-86482000D03*
X141605000Y-84577000D03*
D16*
X144780000Y-78232000D03*
X147320000Y-78232000D03*
X144780000Y-80772000D03*
X147320000Y-80772000D03*
X144780000Y-83312000D03*
X147320000Y-83312000D03*
%TD*%
D17*
%TO.C,R3*%
X136144000Y-115000500D03*
X136144000Y-112075500D03*
%TD*%
D18*
%TO.C,R6*%
X130556000Y-99121500D03*
X130556000Y-102046500D03*
%TD*%
D19*
%TO.C,C7*%
X142240000Y-109794000D03*
X142240000Y-111694000D03*
%TD*%
D20*
%TO.C,C9*%
X145608000Y-98806000D03*
X147508000Y-98806000D03*
%TD*%
D21*
%TO.C,Motor*%
X160020000Y-91948000D03*
D22*
X160020000Y-89448000D03*
X160020000Y-86948000D03*
X160020000Y-84448000D03*
%TD*%
D23*
%TO.C,D1*%
X143764000Y-115718000D03*
D24*
X143764000Y-121518000D03*
%TD*%
D19*
%TO.C,C8*%
X144526000Y-109794000D03*
X144526000Y-111694000D03*
%TD*%
%TO.C,C3*%
X148590000Y-102428000D03*
X148590000Y-104328000D03*
%TD*%
D25*
%TO.C,U3*%
X145018000Y-105172000D03*
X145018000Y-104672000D03*
X145018000Y-104172000D03*
X145018000Y-103672000D03*
X145018000Y-103172000D03*
X145018000Y-102672000D03*
X145018000Y-102172000D03*
D26*
X144018000Y-101172000D03*
X143518000Y-101172000D03*
X143018000Y-101172000D03*
X142518000Y-101172000D03*
X142018000Y-101172000D03*
X141518000Y-101172000D03*
X141018000Y-101172000D03*
D25*
X140018000Y-102172000D03*
X140018000Y-102672000D03*
X140018000Y-103172000D03*
X140018000Y-103672000D03*
X140018000Y-104172000D03*
X140018000Y-104672000D03*
X140018000Y-105172000D03*
D26*
X141018000Y-106172000D03*
X141518000Y-106172000D03*
X142018000Y-106172000D03*
X142518000Y-106172000D03*
X143018000Y-106172000D03*
X143518000Y-106172000D03*
X144018000Y-106172000D03*
D27*
X141756000Y-104434000D03*
X142518000Y-104434000D03*
X143280000Y-104434000D03*
X141756000Y-103672000D03*
X142518000Y-103672000D03*
D28*
X142518000Y-103672000D03*
D27*
X143280000Y-103672000D03*
X141756000Y-102910000D03*
X142518000Y-102910000D03*
X143280000Y-102910000D03*
%TD*%
D29*
%TO.C,R1*%
X155702000Y-106400000D03*
X155702000Y-109500000D03*
%TD*%
D17*
%TO.C,R4*%
X139446000Y-115000500D03*
X139446000Y-112075500D03*
%TD*%
D30*
%TO.C,I2C*%
X131589000Y-85912000D03*
D22*
X131589000Y-88412000D03*
X131589000Y-90912000D03*
X131589000Y-93412000D03*
%TD*%
D11*
%TO.C,C1*%
X158732000Y-108712000D03*
X162832000Y-108712000D03*
%TD*%
D31*
%TO.C,C4*%
X140159000Y-98806000D03*
X137209000Y-98806000D03*
%TD*%
D32*
%TO.C,U2*%
X160462000Y-102494500D03*
X159512000Y-102494500D03*
X158562000Y-102494500D03*
X158562000Y-104769500D03*
X159512000Y-104769500D03*
X160462000Y-104769500D03*
%TD*%
D33*
%TO.C,C6*%
X134874000Y-101195500D03*
X134874000Y-103020500D03*
%TD*%
M02*
