%TF.GenerationSoftware,KiCad,Pcbnew,8.0.9*%
%TF.CreationDate,2026-03-04T14:02:13+02:00*%
%TF.ProjectId,DeFocuserLiteSMD,4465466f-6375-4736-9572-4c697465534d,rev?*%
%TF.SameCoordinates,Original*%
%TF.FileFunction,Copper,L2,Bot*%
%TF.FilePolarity,Positive*%
%FSLAX46Y46*%
G04 Gerber Fmt 4.6, Leading zero omitted, Abs format (unit mm)*
G04 Created by KiCad (PCBNEW 8.0.9) date 2026-03-04 14:02:13*
%MOMM*%
%LPD*%
G01*
G04 APERTURE LIST*
G04 Aperture macros list*
%AMRoundRect*
0 Rectangle with rounded corners*
0 $1 Rounding radius*
0 $2 $3 $4 $5 $6 $7 $8 $9 X,Y pos of 4 corners*
0 Add a 4 corners polygon primitive as box body*
4,1,4,$2,$3,$4,$5,$6,$7,$8,$9,$2,$3,0*
0 Add four circle primitives for the rounded corners*
1,1,$1+$1,$2,$3*
1,1,$1+$1,$4,$5*
1,1,$1+$1,$6,$7*
1,1,$1+$1,$8,$9*
0 Add four rect primitives between the rounded corners*
20,1,$1+$1,$2,$3,$4,$5,0*
20,1,$1+$1,$4,$5,$6,$7,0*
20,1,$1+$1,$6,$7,$8,$9,0*
20,1,$1+$1,$8,$9,$2,$3,0*%
%AMFreePoly0*
4,1,19,0.550000,-0.750000,0.000000,-0.750000,0.000000,-0.744911,-0.071157,-0.744911,-0.207708,-0.704816,-0.327430,-0.627875,-0.420627,-0.520320,-0.479746,-0.390866,-0.500000,-0.250000,-0.500000,0.250000,-0.479746,0.390866,-0.420627,0.520320,-0.327430,0.627875,-0.207708,0.704816,-0.071157,0.744911,0.000000,0.744911,0.000000,0.750000,0.550000,0.750000,0.550000,-0.750000,0.550000,-0.750000,
$1*%
%AMFreePoly1*
4,1,19,0.000000,0.744911,0.071157,0.744911,0.207708,0.704816,0.327430,0.627875,0.420627,0.520320,0.479746,0.390866,0.500000,0.250000,0.500000,-0.250000,0.479746,-0.390866,0.420627,-0.520320,0.327430,-0.627875,0.207708,-0.704816,0.071157,-0.744911,0.000000,-0.744911,0.000000,-0.750000,-0.550000,-0.750000,-0.550000,0.750000,0.000000,0.750000,0.000000,0.744911,0.000000,0.744911,
$1*%
G04 Aperture macros list end*
%TA.AperFunction,ComponentPad*%
%ADD10RoundRect,0.250000X0.725000X-0.600000X0.725000X0.600000X-0.725000X0.600000X-0.725000X-0.600000X0*%
%TD*%
%TA.AperFunction,ComponentPad*%
%ADD11O,1.950000X1.700000*%
%TD*%
%TA.AperFunction,ComponentPad*%
%ADD12C,0.400000*%
%TD*%
%TA.AperFunction,ComponentPad*%
%ADD13RoundRect,0.250000X-0.725000X0.600000X-0.725000X-0.600000X0.725000X-0.600000X0.725000X0.600000X0*%
%TD*%
%TA.AperFunction,SMDPad,CuDef*%
%ADD14FreePoly0,180.000000*%
%TD*%
%TA.AperFunction,SMDPad,CuDef*%
%ADD15R,1.000000X1.500000*%
%TD*%
%TA.AperFunction,SMDPad,CuDef*%
%ADD16FreePoly1,180.000000*%
%TD*%
%TA.AperFunction,SMDPad,CuDef*%
%ADD17RoundRect,0.250000X-0.625000X0.312500X-0.625000X-0.312500X0.625000X-0.312500X0.625000X0.312500X0*%
%TD*%
%TA.AperFunction,SMDPad,CuDef*%
%ADD18R,1.800000X1.350000*%
%TD*%
%TA.AperFunction,ViaPad*%
%ADD19C,0.600000*%
%TD*%
%TA.AperFunction,Conductor*%
%ADD20C,0.300000*%
%TD*%
%TA.AperFunction,Conductor*%
%ADD21C,0.500000*%
%TD*%
%TA.AperFunction,Conductor*%
%ADD22C,0.200000*%
%TD*%
G04 APERTURE END LIST*
D10*
%TO.P,Motor,1,Pin_1*%
%TO.N,A+*%
X160020000Y-91948000D03*
D11*
%TO.P,Motor,2,Pin_2*%
%TO.N,A-*%
X160020000Y-89448000D03*
%TO.P,Motor,3,Pin_3*%
%TO.N,B-*%
X160020000Y-86948000D03*
%TO.P,Motor,4,Pin_4*%
%TO.N,B+*%
X160020000Y-84448000D03*
%TD*%
D12*
%TO.P,U3,29,EP*%
%TO.N,GND*%
X141756000Y-104434000D03*
X142518000Y-104434000D03*
X143280000Y-104434000D03*
X141756000Y-103672000D03*
X142518000Y-103672000D03*
X143280000Y-103672000D03*
X141756000Y-102910000D03*
X142518000Y-102910000D03*
X143280000Y-102910000D03*
%TD*%
D13*
%TO.P,I2C,1,Pin_1*%
%TO.N,Net-(JP1-C)*%
X131589000Y-85912000D03*
D11*
%TO.P,I2C,2,Pin_2*%
%TO.N,SDA*%
X131589000Y-88412000D03*
%TO.P,I2C,3,Pin_3*%
%TO.N,SCL*%
X131589000Y-90912000D03*
%TO.P,I2C,4,Pin_4*%
%TO.N,GND*%
X131589000Y-93412000D03*
%TD*%
D14*
%TO.P,JP1,1,A*%
%TO.N,+5V*%
X131826000Y-83058000D03*
D15*
%TO.P,JP1,2,C*%
%TO.N,Net-(JP1-C)*%
X130526000Y-83058000D03*
D16*
%TO.P,JP1,3,B*%
%TO.N,+3.3V*%
X129226000Y-83058000D03*
%TD*%
D17*
%TO.P,R5,1*%
%TO.N,BTN*%
X150114000Y-89723500D03*
%TO.P,R5,2*%
%TO.N,GND*%
X150114000Y-92648500D03*
%TD*%
D18*
%TO.P,S1,1*%
%TO.N,BTN*%
X150114000Y-83355000D03*
%TO.P,S1,2*%
%TO.N,+5V*%
X150114000Y-79205000D03*
%TD*%
D19*
%TO.N,GND*%
X140716000Y-88646000D03*
X141478000Y-88646000D03*
X161544000Y-101092000D03*
X146812000Y-88138000D03*
X132588000Y-111252000D03*
X144780000Y-89154000D03*
X158242000Y-77216000D03*
X132588000Y-112268000D03*
X153924000Y-112776000D03*
X161290000Y-94488000D03*
X130556000Y-111252000D03*
X151384000Y-85090000D03*
X147828000Y-90170000D03*
X151892000Y-112776000D03*
X147574000Y-108966000D03*
X151892000Y-83058000D03*
X151384000Y-86106000D03*
X154940000Y-112776000D03*
X141478000Y-89408000D03*
X132588000Y-110236000D03*
X147828000Y-91186000D03*
X156718000Y-77216000D03*
X131572000Y-110236000D03*
X145796000Y-90170000D03*
X146812000Y-89154000D03*
X151892000Y-121666000D03*
X135128000Y-77978000D03*
X156718000Y-84836000D03*
X149606000Y-96520000D03*
X142240000Y-78994000D03*
X153924000Y-121666000D03*
X148082000Y-95758000D03*
X134366000Y-77978000D03*
X149606000Y-95758000D03*
X131572000Y-112268000D03*
X145796000Y-91186000D03*
X132588000Y-109220000D03*
X162560000Y-101092000D03*
X130556000Y-112268000D03*
X152908000Y-112776000D03*
X144780000Y-90170000D03*
X150622000Y-108966000D03*
X147828000Y-100584000D03*
X148590000Y-108966000D03*
X144780000Y-91186000D03*
X145796000Y-89154000D03*
X148590000Y-100584000D03*
X133604000Y-77978000D03*
X131572000Y-109220000D03*
X140716000Y-78994000D03*
X154940000Y-121666000D03*
X152908000Y-121666000D03*
X132842000Y-77978000D03*
X143764000Y-99060000D03*
X162052000Y-95250000D03*
X162814000Y-94488000D03*
X147828000Y-88138000D03*
X146812000Y-90170000D03*
X148844000Y-95758000D03*
X149606000Y-108966000D03*
X162814000Y-95250000D03*
X148844000Y-96520000D03*
X130556000Y-110236000D03*
X162052000Y-94488000D03*
X141478000Y-78994000D03*
X131572000Y-111252000D03*
X156718000Y-83312000D03*
X140716000Y-89408000D03*
X130556000Y-109220000D03*
X161290000Y-95250000D03*
X144780000Y-88138000D03*
X146812000Y-91186000D03*
X147828000Y-89154000D03*
X156718000Y-84074000D03*
X155956000Y-77216000D03*
X145796000Y-88138000D03*
X156718000Y-85598000D03*
X157480000Y-77216000D03*
%TO.N,BTN*%
X151892000Y-89408000D03*
%TO.N,+5V*%
X160020000Y-106172000D03*
X158750000Y-79248000D03*
X151765000Y-78105000D03*
X135890000Y-78486000D03*
X143256000Y-79248000D03*
X155702000Y-101092000D03*
%TO.N,+12V*%
X140716000Y-109794000D03*
X138557000Y-107823000D03*
%TO.N,A-*%
X140081000Y-105776000D03*
X156718000Y-88900000D03*
%TO.N,B+*%
X142240000Y-108204000D03*
%TO.N,B-*%
X150622000Y-106934000D03*
%TO.N,A+*%
X140510380Y-108155620D03*
%TO.N,Net-(U2-FB)*%
X153416000Y-105918000D03*
X154178000Y-109728000D03*
%TO.N,DIAG*%
X140208000Y-83312000D03*
X142518000Y-97282000D03*
%TO.N,EN*%
X151638000Y-99822000D03*
X151638000Y-102108000D03*
%TO.N,DIR*%
X135128000Y-85344000D03*
X137668000Y-103124000D03*
%TO.N,STP*%
X138430000Y-102108000D03*
X135890000Y-82538000D03*
%TO.N,RX*%
X141478000Y-99568000D03*
X151638000Y-94488000D03*
X136906000Y-96774000D03*
%TO.N,Net-(U3-VCP)*%
X139192000Y-100330000D03*
X146812000Y-102362000D03*
%TO.N,Net-(U3-BRB)*%
X143518000Y-108196000D03*
X140716000Y-110998000D03*
%TO.N,+3.3V*%
X131826000Y-79756000D03*
X141478000Y-80010000D03*
X135636000Y-79756000D03*
%TD*%
D20*
%TO.N,BTN*%
X151892000Y-89408000D02*
X150114000Y-87630000D01*
X151892000Y-89408000D02*
X150429500Y-89408000D01*
X150429500Y-89408000D02*
X150114000Y-89723500D01*
X150114000Y-87630000D02*
X150114000Y-83355000D01*
%TO.N,+5V*%
X150114000Y-79205000D02*
X143299000Y-79205000D01*
X143299000Y-79205000D02*
X143256000Y-79248000D01*
X135890000Y-78486000D02*
X131826000Y-82550000D01*
D21*
X163830000Y-104648000D02*
X163830000Y-84328000D01*
D20*
X131826000Y-82550000D02*
X131826000Y-83058000D01*
D21*
X160020000Y-106172000D02*
X162306000Y-106172000D01*
X155702000Y-101854000D02*
X160020000Y-106172000D01*
D20*
X151765000Y-78105000D02*
X150665000Y-79205000D01*
D21*
X162306000Y-106172000D02*
X163830000Y-104648000D01*
D20*
X150665000Y-79205000D02*
X150114000Y-79205000D01*
D21*
X155702000Y-101092000D02*
X155702000Y-101854000D01*
X163830000Y-84328000D02*
X158750000Y-79248000D01*
%TO.N,+12V*%
X138557000Y-107823000D02*
X140528000Y-109794000D01*
X140528000Y-109794000D02*
X140716000Y-109794000D01*
%TO.N,A-*%
X140477000Y-106172000D02*
X140081000Y-105776000D01*
X153416000Y-101249239D02*
X148493239Y-106172000D01*
X156245944Y-88900000D02*
X153416000Y-91729944D01*
X153416000Y-91729944D02*
X153416000Y-101249239D01*
X148493239Y-106172000D02*
X140477000Y-106172000D01*
X156718000Y-88900000D02*
X156245944Y-88900000D01*
%TO.N,B+*%
X157360000Y-81788000D02*
X160020000Y-84448000D01*
X141478000Y-108204000D02*
X134200755Y-100926755D01*
X134200755Y-82715245D02*
X135128000Y-81788000D01*
X135128000Y-81788000D02*
X157360000Y-81788000D01*
X134200755Y-100926755D02*
X134200755Y-82715245D01*
X142240000Y-108204000D02*
X141478000Y-108204000D01*
%TO.N,B-*%
X154686000Y-92282000D02*
X160020000Y-86948000D01*
X150622000Y-106934000D02*
X154686000Y-102870000D01*
X154686000Y-102870000D02*
X154686000Y-92282000D01*
%TO.N,A+*%
X134620000Y-80772000D02*
X158750000Y-80772000D01*
X133350000Y-101346000D02*
X133350000Y-82042000D01*
X140510380Y-108155620D02*
X140159620Y-108155620D01*
X140159620Y-108155620D02*
X133350000Y-101346000D01*
X158750000Y-80772000D02*
X161845000Y-83867000D01*
X161845000Y-90123000D02*
X160020000Y-91948000D01*
X133350000Y-82042000D02*
X134620000Y-80772000D01*
X161845000Y-83867000D02*
X161845000Y-90123000D01*
%TO.N,Net-(U2-FB)*%
X153416000Y-108966000D02*
X154178000Y-109728000D01*
X153416000Y-105918000D02*
X153416000Y-108966000D01*
D20*
%TO.N,DIAG*%
X140208000Y-83312000D02*
X140208000Y-83566000D01*
X142518000Y-85876000D02*
X142518000Y-97282000D01*
X140208000Y-83566000D02*
X142518000Y-85876000D01*
D22*
%TO.N,EN*%
X151638000Y-102108000D02*
X151638000Y-99822000D01*
D20*
%TO.N,DIR*%
X135128000Y-85344000D02*
X135128000Y-100584000D01*
X135128000Y-100584000D02*
X137668000Y-103124000D01*
%TO.N,STP*%
X135890000Y-99568000D02*
X138430000Y-102108000D01*
X135890000Y-82538000D02*
X135890000Y-99568000D01*
%TO.N,RX*%
X141478000Y-99568000D02*
X146558000Y-94488000D01*
X146558000Y-94488000D02*
X151638000Y-94488000D01*
X138684000Y-96774000D02*
X141478000Y-99568000D01*
X136906000Y-96774000D02*
X138684000Y-96774000D01*
%TO.N,Net-(U3-VCP)*%
X146812000Y-102362000D02*
X146812000Y-101600000D01*
X146812000Y-101600000D02*
X145542000Y-100330000D01*
X145542000Y-100330000D02*
X139192000Y-100330000D01*
%TO.N,Net-(U3-BRB)*%
X143518000Y-109466000D02*
X143518000Y-108196000D01*
X141986000Y-110998000D02*
X143518000Y-109466000D01*
X140716000Y-110998000D02*
X141986000Y-110998000D01*
%TO.N,Net-(JP1-C)*%
X130526000Y-83058000D02*
X130526000Y-84849000D01*
X130526000Y-84849000D02*
X131589000Y-85912000D01*
%TO.N,+3.3V*%
X131826000Y-79756000D02*
X131773000Y-79756000D01*
X131773000Y-79756000D02*
X129226000Y-82303000D01*
X141478000Y-80010000D02*
X141224000Y-79756000D01*
X129226000Y-82303000D02*
X129226000Y-83058000D01*
X141224000Y-79756000D02*
X135636000Y-79756000D01*
%TD*%
%TA.AperFunction,Conductor*%
%TO.N,GND*%
G36*
X127705703Y-79619532D02*
G01*
X127734596Y-79656194D01*
X127806186Y-79794356D01*
X127965903Y-80020623D01*
X128154942Y-80223035D01*
X128369782Y-80397821D01*
X128369784Y-80397822D01*
X128369785Y-80397823D01*
X128606423Y-80541725D01*
X128704789Y-80584451D01*
X128860452Y-80652065D01*
X129127141Y-80726788D01*
X129368364Y-80759942D01*
X129401519Y-80764500D01*
X129545191Y-80764500D01*
X129612230Y-80784185D01*
X129657985Y-80836989D01*
X129667929Y-80906147D01*
X129638904Y-80969703D01*
X129632872Y-80976181D01*
X128720725Y-81888327D01*
X128720722Y-81888331D01*
X128677509Y-81953004D01*
X128641445Y-81988429D01*
X128627526Y-81997374D01*
X128626086Y-81998194D01*
X128621901Y-82000988D01*
X128513169Y-82095207D01*
X128513166Y-82095210D01*
X128419018Y-82203864D01*
X128419015Y-82203867D01*
X128341231Y-82324905D01*
X128341223Y-82324918D01*
X128284263Y-82449643D01*
X128282015Y-82453939D01*
X128240966Y-82593738D01*
X128240963Y-82593748D01*
X128220503Y-82736059D01*
X128220503Y-82792399D01*
X128220500Y-82792409D01*
X128220500Y-83323573D01*
X128220503Y-83323601D01*
X128220503Y-83379939D01*
X128239703Y-83513478D01*
X128239703Y-83513481D01*
X128240964Y-83522255D01*
X128281503Y-83660313D01*
X128341223Y-83791081D01*
X128341227Y-83791087D01*
X128341230Y-83791094D01*
X128394591Y-83874127D01*
X128419015Y-83912132D01*
X128419018Y-83912136D01*
X128513152Y-84020773D01*
X128513168Y-84020791D01*
X128513171Y-84020794D01*
X128621909Y-84115015D01*
X128682386Y-84153881D01*
X128742857Y-84192744D01*
X128742863Y-84192747D01*
X128873741Y-84252517D01*
X129011696Y-84293024D01*
X129154111Y-84313500D01*
X129154114Y-84313500D01*
X129751500Y-84313500D01*
X129818539Y-84333185D01*
X129864294Y-84385989D01*
X129875500Y-84437500D01*
X129875500Y-84913069D01*
X129891694Y-84994478D01*
X129900499Y-85038744D01*
X129948993Y-85155820D01*
X129949535Y-85157127D01*
X130020723Y-85263669D01*
X130077182Y-85320128D01*
X130110666Y-85381449D01*
X130113500Y-85407808D01*
X130113500Y-86562001D01*
X130113501Y-86562018D01*
X130124000Y-86664796D01*
X130124001Y-86664799D01*
X130179185Y-86831331D01*
X130179187Y-86831336D01*
X130271289Y-86980657D01*
X130395344Y-87104712D01*
X130550120Y-87200178D01*
X130596845Y-87252126D01*
X130608068Y-87321088D01*
X130580224Y-87385171D01*
X130572706Y-87393398D01*
X130433889Y-87532215D01*
X130308951Y-87704179D01*
X130212444Y-87893585D01*
X130146753Y-88095760D01*
X130113500Y-88305713D01*
X130113500Y-88518286D01*
X130146753Y-88728239D01*
X130212444Y-88930414D01*
X130308951Y-89119820D01*
X130433890Y-89291786D01*
X130584209Y-89442105D01*
X130584214Y-89442109D01*
X130748793Y-89561682D01*
X130791459Y-89617011D01*
X130797438Y-89686625D01*
X130764833Y-89748420D01*
X130748793Y-89762318D01*
X130584214Y-89881890D01*
X130584209Y-89881894D01*
X130433890Y-90032213D01*
X130308951Y-90204179D01*
X130212444Y-90393585D01*
X130146753Y-90595760D01*
X130121486Y-90755289D01*
X130113500Y-90805713D01*
X130113500Y-91018287D01*
X130146754Y-91228243D01*
X130194260Y-91374452D01*
X130212444Y-91430414D01*
X130308951Y-91619820D01*
X130433890Y-91791786D01*
X130584209Y-91942105D01*
X130584214Y-91942109D01*
X130749218Y-92061991D01*
X130791884Y-92117320D01*
X130797863Y-92186934D01*
X130765258Y-92248729D01*
X130749218Y-92262627D01*
X130584540Y-92382272D01*
X130584535Y-92382276D01*
X130434276Y-92532535D01*
X130434272Y-92532540D01*
X130309379Y-92704442D01*
X130212904Y-92893782D01*
X130147242Y-93095870D01*
X130147242Y-93095873D01*
X130136769Y-93162000D01*
X131184854Y-93162000D01*
X131146370Y-93228657D01*
X131114000Y-93349465D01*
X131114000Y-93474535D01*
X131146370Y-93595343D01*
X131184854Y-93662000D01*
X130136769Y-93662000D01*
X130147242Y-93728126D01*
X130147242Y-93728129D01*
X130212904Y-93930217D01*
X130309379Y-94119557D01*
X130434272Y-94291459D01*
X130434276Y-94291464D01*
X130584535Y-94441723D01*
X130584540Y-94441727D01*
X130756442Y-94566620D01*
X130945782Y-94663095D01*
X131147872Y-94728757D01*
X131339000Y-94759029D01*
X131339000Y-93816145D01*
X131405657Y-93854630D01*
X131526465Y-93887000D01*
X131651535Y-93887000D01*
X131772343Y-93854630D01*
X131839000Y-93816145D01*
X131839000Y-94759028D01*
X132030127Y-94728757D01*
X132232219Y-94663094D01*
X132419204Y-94567820D01*
X132487874Y-94554923D01*
X132552614Y-94581199D01*
X132592872Y-94638305D01*
X132599500Y-94678304D01*
X132599500Y-101419918D01*
X132599500Y-101419920D01*
X132599499Y-101419920D01*
X132628340Y-101564907D01*
X132628343Y-101564917D01*
X132684913Y-101701489D01*
X132684914Y-101701491D01*
X132684916Y-101701495D01*
X132698493Y-101721815D01*
X132698494Y-101721818D01*
X132767046Y-101824414D01*
X132767052Y-101824421D01*
X138007595Y-107064963D01*
X138041080Y-107126286D01*
X138036096Y-107195978D01*
X138007596Y-107240324D01*
X137927185Y-107320736D01*
X137927184Y-107320737D01*
X137831211Y-107473476D01*
X137771631Y-107643745D01*
X137771630Y-107643750D01*
X137751435Y-107822996D01*
X137751435Y-107823003D01*
X137771630Y-108002249D01*
X137771631Y-108002254D01*
X137831211Y-108172523D01*
X137845963Y-108196000D01*
X137927184Y-108325262D01*
X138054738Y-108452816D01*
X138207478Y-108548789D01*
X138207480Y-108548789D01*
X138207484Y-108548792D01*
X138213756Y-108551813D01*
X138212869Y-108553653D01*
X138248939Y-108576307D01*
X140047974Y-110375342D01*
X140081459Y-110436665D01*
X140076475Y-110506357D01*
X140065287Y-110528995D01*
X139990211Y-110648476D01*
X139930631Y-110818745D01*
X139930630Y-110818750D01*
X139910435Y-110997996D01*
X139910435Y-110998003D01*
X139930630Y-111177249D01*
X139930631Y-111177254D01*
X139990211Y-111347523D01*
X140086184Y-111500262D01*
X140213738Y-111627816D01*
X140366478Y-111723789D01*
X140536739Y-111783366D01*
X140536745Y-111783368D01*
X140536750Y-111783369D01*
X140715996Y-111803565D01*
X140716000Y-111803565D01*
X140716004Y-111803565D01*
X140895249Y-111783369D01*
X140895251Y-111783368D01*
X140895255Y-111783368D01*
X140895258Y-111783366D01*
X140895262Y-111783366D01*
X140985377Y-111751832D01*
X141065522Y-111723789D01*
X141155096Y-111667505D01*
X141221068Y-111648500D01*
X142050071Y-111648500D01*
X142134615Y-111631682D01*
X142175744Y-111623501D01*
X142294127Y-111574465D01*
X142400669Y-111503277D01*
X144023276Y-109880669D01*
X144094465Y-109774127D01*
X144143501Y-109655744D01*
X144151656Y-109614745D01*
X144168500Y-109530069D01*
X144168500Y-108701067D01*
X144187507Y-108635094D01*
X144243788Y-108545524D01*
X144276228Y-108452816D01*
X144303368Y-108375255D01*
X144323565Y-108196000D01*
X144303368Y-108016745D01*
X144243789Y-107846478D01*
X144147816Y-107693738D01*
X144020262Y-107566184D01*
X144016492Y-107563815D01*
X143867523Y-107470211D01*
X143697254Y-107410631D01*
X143697249Y-107410630D01*
X143518004Y-107390435D01*
X143517996Y-107390435D01*
X143338750Y-107410630D01*
X143338745Y-107410631D01*
X143168476Y-107470211D01*
X143015739Y-107566183D01*
X142962679Y-107619242D01*
X142901355Y-107652726D01*
X142831663Y-107647740D01*
X142787318Y-107619240D01*
X142742262Y-107574184D01*
X142589523Y-107478211D01*
X142419254Y-107418631D01*
X142419249Y-107418630D01*
X142240004Y-107398435D01*
X142239996Y-107398435D01*
X142060750Y-107418630D01*
X142060745Y-107418631D01*
X141980983Y-107446542D01*
X141940028Y-107453500D01*
X141840229Y-107453500D01*
X141773190Y-107433815D01*
X141752548Y-107417181D01*
X141469548Y-107134181D01*
X141436063Y-107072858D01*
X141441047Y-107003166D01*
X141482919Y-106947233D01*
X141548383Y-106922816D01*
X141557229Y-106922500D01*
X148567159Y-106922500D01*
X148664701Y-106903096D01*
X148712152Y-106893658D01*
X148848734Y-106837084D01*
X148901516Y-106801816D01*
X148971655Y-106754952D01*
X153723819Y-102002786D01*
X153785142Y-101969302D01*
X153854834Y-101974286D01*
X153910767Y-102016158D01*
X153935184Y-102081622D01*
X153935500Y-102090468D01*
X153935500Y-102507769D01*
X153915815Y-102574808D01*
X153899181Y-102595450D01*
X150313937Y-106180693D01*
X150277876Y-106203362D01*
X150278756Y-106205188D01*
X150272478Y-106208211D01*
X150119737Y-106304184D01*
X149992184Y-106431737D01*
X149896211Y-106584476D01*
X149836631Y-106754745D01*
X149836630Y-106754750D01*
X149816435Y-106933996D01*
X149816435Y-106934003D01*
X149836630Y-107113249D01*
X149836631Y-107113254D01*
X149896211Y-107283523D01*
X149980195Y-107417181D01*
X149992184Y-107436262D01*
X150119738Y-107563816D01*
X150272478Y-107659789D01*
X150422700Y-107712354D01*
X150442745Y-107719368D01*
X150442750Y-107719369D01*
X150621996Y-107739565D01*
X150622000Y-107739565D01*
X150622004Y-107739565D01*
X150801249Y-107719369D01*
X150801252Y-107719368D01*
X150801255Y-107719368D01*
X150971522Y-107659789D01*
X151124262Y-107563816D01*
X151251816Y-107436262D01*
X151347789Y-107283522D01*
X151347790Y-107283518D01*
X151350811Y-107277246D01*
X151352655Y-107278134D01*
X151375305Y-107242061D01*
X152453819Y-106163548D01*
X152515142Y-106130063D01*
X152584834Y-106135047D01*
X152640767Y-106176919D01*
X152665184Y-106242383D01*
X152665500Y-106251229D01*
X152665500Y-109039918D01*
X152665500Y-109039920D01*
X152665499Y-109039920D01*
X152694340Y-109184907D01*
X152694343Y-109184917D01*
X152750914Y-109321492D01*
X152776289Y-109359468D01*
X152776290Y-109359471D01*
X152833046Y-109444414D01*
X152833052Y-109444421D01*
X153424692Y-110036060D01*
X153447356Y-110072129D01*
X153449188Y-110071247D01*
X153452207Y-110077516D01*
X153493683Y-110143525D01*
X153548184Y-110230262D01*
X153675738Y-110357816D01*
X153828478Y-110453789D01*
X153978709Y-110506357D01*
X153998745Y-110513368D01*
X153998750Y-110513369D01*
X154177996Y-110533565D01*
X154178000Y-110533565D01*
X154178004Y-110533565D01*
X154357249Y-110513369D01*
X154357252Y-110513368D01*
X154357255Y-110513368D01*
X154527522Y-110453789D01*
X154680262Y-110357816D01*
X154807816Y-110230262D01*
X154903789Y-110077522D01*
X154963368Y-109907255D01*
X154966363Y-109880672D01*
X154983565Y-109728003D01*
X154983565Y-109727996D01*
X154963369Y-109548750D01*
X154963368Y-109548745D01*
X154903788Y-109378476D01*
X154864582Y-109316080D01*
X154807816Y-109225738D01*
X154680262Y-109098184D01*
X154632560Y-109068211D01*
X154527516Y-109002207D01*
X154521247Y-108999188D01*
X154522129Y-108997356D01*
X154486060Y-108974692D01*
X154202819Y-108691451D01*
X154169334Y-108630128D01*
X154166500Y-108603770D01*
X154166500Y-106217972D01*
X154173458Y-106177017D01*
X154201368Y-106097254D01*
X154201369Y-106097249D01*
X154221565Y-105918003D01*
X154221565Y-105917996D01*
X154201369Y-105738750D01*
X154201368Y-105738745D01*
X154141788Y-105568476D01*
X154102582Y-105506080D01*
X154045816Y-105415738D01*
X153918262Y-105288184D01*
X153765522Y-105192211D01*
X153765519Y-105192209D01*
X153699653Y-105169161D01*
X153642877Y-105128439D01*
X153617130Y-105063487D01*
X153630587Y-104994925D01*
X153652924Y-104964443D01*
X155268952Y-103348416D01*
X155318186Y-103274729D01*
X155351084Y-103225495D01*
X155407658Y-103088913D01*
X155423722Y-103008157D01*
X155436500Y-102943920D01*
X155437097Y-102937858D01*
X155439761Y-102938120D01*
X155456185Y-102882190D01*
X155508989Y-102836435D01*
X155578147Y-102826491D01*
X155641703Y-102855516D01*
X155648181Y-102861548D01*
X159266692Y-106480059D01*
X159289358Y-106516125D01*
X159291188Y-106515244D01*
X159294209Y-106521518D01*
X159294211Y-106521522D01*
X159390184Y-106674262D01*
X159517738Y-106801816D01*
X159608080Y-106858582D01*
X159663903Y-106893658D01*
X159670478Y-106897789D01*
X159760983Y-106929458D01*
X159840745Y-106957368D01*
X159840750Y-106957369D01*
X160019996Y-106977565D01*
X160020000Y-106977565D01*
X160020004Y-106977565D01*
X160199249Y-106957369D01*
X160199252Y-106957368D01*
X160199255Y-106957368D01*
X160279017Y-106929457D01*
X160319972Y-106922500D01*
X162379920Y-106922500D01*
X162477462Y-106903096D01*
X162524913Y-106893658D01*
X162661495Y-106837084D01*
X162714277Y-106801816D01*
X162784416Y-106754952D01*
X163592351Y-105947016D01*
X164387819Y-105151549D01*
X164449142Y-105118064D01*
X164518834Y-105123048D01*
X164574767Y-105164920D01*
X164599184Y-105230384D01*
X164599500Y-105239230D01*
X164599500Y-120946754D01*
X164579815Y-121013793D01*
X164527011Y-121059548D01*
X164457853Y-121069492D01*
X164394297Y-121040467D01*
X164365402Y-121003802D01*
X164335842Y-120946754D01*
X164293814Y-120865644D01*
X164134097Y-120639377D01*
X163945058Y-120436965D01*
X163730218Y-120262179D01*
X163730216Y-120262178D01*
X163730214Y-120262176D01*
X163493576Y-120118274D01*
X163239551Y-120007936D01*
X163239549Y-120007935D01*
X163239548Y-120007935D01*
X163163673Y-119986676D01*
X162972864Y-119933213D01*
X162972860Y-119933212D01*
X162972859Y-119933212D01*
X162835669Y-119914356D01*
X162698481Y-119895500D01*
X162698480Y-119895500D01*
X162421520Y-119895500D01*
X162421519Y-119895500D01*
X162147141Y-119933212D01*
X162147135Y-119933213D01*
X161880448Y-120007936D01*
X161626423Y-120118274D01*
X161389785Y-120262176D01*
X161174941Y-120436965D01*
X160985907Y-120639372D01*
X160826186Y-120865643D01*
X160698763Y-121111558D01*
X160698760Y-121111564D01*
X160606019Y-121372514D01*
X160606014Y-121372530D01*
X160549669Y-121643683D01*
X160549668Y-121643685D01*
X160530769Y-121920000D01*
X160549668Y-122196314D01*
X160549669Y-122196316D01*
X160606014Y-122467469D01*
X160606019Y-122467485D01*
X160698760Y-122728435D01*
X160698763Y-122728441D01*
X160698764Y-122728444D01*
X160698766Y-122728448D01*
X160826186Y-122974356D01*
X160985903Y-123200623D01*
X161174942Y-123403035D01*
X161389782Y-123577821D01*
X161389784Y-123577822D01*
X161389785Y-123577823D01*
X161626423Y-123721725D01*
X161626513Y-123721764D01*
X161626536Y-123721783D01*
X161630188Y-123723676D01*
X161629770Y-123724481D01*
X161680162Y-123766525D01*
X161701094Y-123833185D01*
X161682665Y-123900581D01*
X161630724Y-123947313D01*
X161577116Y-123959500D01*
X130522884Y-123959500D01*
X130455845Y-123939815D01*
X130410090Y-123887011D01*
X130400146Y-123817853D01*
X130429171Y-123754297D01*
X130470107Y-123724245D01*
X130469812Y-123723676D01*
X130473451Y-123721789D01*
X130473487Y-123721764D01*
X130473576Y-123721725D01*
X130531898Y-123686259D01*
X130710218Y-123577821D01*
X130925058Y-123403035D01*
X131114097Y-123200623D01*
X131273814Y-122974356D01*
X131401234Y-122728448D01*
X131408495Y-122708019D01*
X131493980Y-122467485D01*
X131493985Y-122467469D01*
X131526358Y-122311676D01*
X131550331Y-122196314D01*
X131569231Y-121920000D01*
X131550331Y-121643686D01*
X131533989Y-121565046D01*
X131493985Y-121372530D01*
X131493980Y-121372514D01*
X131401239Y-121111564D01*
X131401236Y-121111558D01*
X131401234Y-121111552D01*
X131273814Y-120865644D01*
X131114097Y-120639377D01*
X130925058Y-120436965D01*
X130710218Y-120262179D01*
X130710216Y-120262178D01*
X130710214Y-120262176D01*
X130473576Y-120118274D01*
X130219551Y-120007936D01*
X130219549Y-120007935D01*
X130219548Y-120007935D01*
X130143673Y-119986676D01*
X129952864Y-119933213D01*
X129952860Y-119933212D01*
X129952859Y-119933212D01*
X129815669Y-119914356D01*
X129678481Y-119895500D01*
X129678480Y-119895500D01*
X129401520Y-119895500D01*
X129401519Y-119895500D01*
X129127141Y-119933212D01*
X129127135Y-119933213D01*
X128860448Y-120007936D01*
X128606423Y-120118274D01*
X128369785Y-120262176D01*
X128154941Y-120436965D01*
X127965907Y-120639372D01*
X127806186Y-120865643D01*
X127734598Y-121003802D01*
X127686277Y-121054269D01*
X127618343Y-121070601D01*
X127552364Y-121047612D01*
X127509287Y-120992601D01*
X127500500Y-120946754D01*
X127500500Y-79713245D01*
X127520185Y-79646206D01*
X127572989Y-79600451D01*
X127642147Y-79590507D01*
X127705703Y-79619532D01*
G37*
%TD.AperFunction*%
%TA.AperFunction,Conductor*%
G36*
X152598694Y-94595072D02*
G01*
X152649097Y-94643459D01*
X152665500Y-94705094D01*
X152665500Y-99604905D01*
X152645815Y-99671944D01*
X152593011Y-99717699D01*
X152523853Y-99727643D01*
X152460297Y-99698618D01*
X152424458Y-99645860D01*
X152386665Y-99537853D01*
X152363789Y-99472478D01*
X152267816Y-99319738D01*
X152140262Y-99192184D01*
X151987523Y-99096211D01*
X151817254Y-99036631D01*
X151817249Y-99036630D01*
X151638004Y-99016435D01*
X151637996Y-99016435D01*
X151458750Y-99036630D01*
X151458745Y-99036631D01*
X151288476Y-99096211D01*
X151135737Y-99192184D01*
X151008184Y-99319737D01*
X150912211Y-99472476D01*
X150852631Y-99642745D01*
X150852630Y-99642750D01*
X150832435Y-99821996D01*
X150832435Y-99822003D01*
X150852630Y-100001249D01*
X150852631Y-100001254D01*
X150912211Y-100171523D01*
X150956124Y-100241409D01*
X150997106Y-100306632D01*
X151008185Y-100324263D01*
X151010445Y-100327097D01*
X151011334Y-100329275D01*
X151011889Y-100330158D01*
X151011734Y-100330255D01*
X151036855Y-100391783D01*
X151037500Y-100404412D01*
X151037500Y-101525587D01*
X151017815Y-101592626D01*
X151010450Y-101602896D01*
X151008186Y-101605734D01*
X150912211Y-101758476D01*
X150852631Y-101928745D01*
X150852630Y-101928750D01*
X150832435Y-102107996D01*
X150832435Y-102108003D01*
X150852630Y-102287249D01*
X150852631Y-102287254D01*
X150912211Y-102457524D01*
X150949948Y-102517580D01*
X150968949Y-102584817D01*
X150948582Y-102651652D01*
X150932636Y-102671234D01*
X148218690Y-105385181D01*
X148157367Y-105418666D01*
X148131009Y-105421500D01*
X140872193Y-105421500D01*
X140805154Y-105401815D01*
X140767200Y-105363473D01*
X140710816Y-105273738D01*
X140583262Y-105146184D01*
X140555021Y-105128439D01*
X140430523Y-105050211D01*
X140429351Y-105049801D01*
X141423040Y-105049801D01*
X141505955Y-105093318D01*
X141671006Y-105134000D01*
X141840994Y-105134000D01*
X142006044Y-105093318D01*
X142079375Y-105054832D01*
X142147883Y-105041108D01*
X142194625Y-105054832D01*
X142267955Y-105093318D01*
X142433006Y-105134000D01*
X142602994Y-105134000D01*
X142768044Y-105093318D01*
X142841375Y-105054832D01*
X142909883Y-105041108D01*
X142956625Y-105054832D01*
X143029955Y-105093318D01*
X143195006Y-105134000D01*
X143364994Y-105134000D01*
X143530044Y-105093318D01*
X143612959Y-105049801D01*
X143138579Y-104575421D01*
X142977268Y-104414109D01*
X143180000Y-104414109D01*
X143180000Y-104453891D01*
X143195224Y-104490645D01*
X143223355Y-104518776D01*
X143260109Y-104534000D01*
X143299891Y-104534000D01*
X143336645Y-104518776D01*
X143364776Y-104490645D01*
X143380000Y-104453891D01*
X143380000Y-104414109D01*
X143364776Y-104377355D01*
X143336645Y-104349224D01*
X143299891Y-104334000D01*
X143260109Y-104334000D01*
X143223355Y-104349224D01*
X143195224Y-104377355D01*
X143180000Y-104414109D01*
X142977268Y-104414109D01*
X142904891Y-104341732D01*
X142899001Y-104335842D01*
X142870843Y-104364000D01*
X142870836Y-104364003D01*
X142747101Y-104487739D01*
X142685778Y-104521224D01*
X142616086Y-104516240D01*
X142592402Y-104501018D01*
X142602776Y-104490645D01*
X142618000Y-104453891D01*
X142618000Y-104414109D01*
X142602776Y-104377355D01*
X142574645Y-104349224D01*
X142537891Y-104334000D01*
X142498109Y-104334000D01*
X142461355Y-104349224D01*
X142433224Y-104377355D01*
X142418000Y-104414109D01*
X142418000Y-104453891D01*
X142433224Y-104490645D01*
X142442306Y-104499727D01*
X142402936Y-104521224D01*
X142333245Y-104516240D01*
X142288898Y-104487739D01*
X142137001Y-104335842D01*
X142108843Y-104364000D01*
X142108838Y-104364002D01*
X141897422Y-104575421D01*
X141897421Y-104575421D01*
X141423040Y-105049801D01*
X140429351Y-105049801D01*
X140260254Y-104990631D01*
X140260249Y-104990630D01*
X140081004Y-104970435D01*
X140080996Y-104970435D01*
X139901750Y-104990630D01*
X139901745Y-104990631D01*
X139731476Y-105050211D01*
X139602782Y-105131075D01*
X139535545Y-105150075D01*
X139468710Y-105129707D01*
X139449129Y-105113762D01*
X138217403Y-103882036D01*
X138183918Y-103820713D01*
X138188902Y-103751021D01*
X138217399Y-103706678D01*
X138297816Y-103626262D01*
X138393789Y-103473522D01*
X138453368Y-103303255D01*
X138454085Y-103296891D01*
X138473565Y-103124003D01*
X138473565Y-103123997D01*
X138463489Y-103034576D01*
X138475543Y-102965754D01*
X138522892Y-102914375D01*
X138535819Y-102909999D01*
X141050859Y-102909999D01*
X141050859Y-102910000D01*
X141071348Y-103078748D01*
X141071349Y-103078751D01*
X141134289Y-103244707D01*
X141131821Y-103245642D01*
X141143086Y-103301889D01*
X141132850Y-103336747D01*
X141134289Y-103337293D01*
X141071349Y-103503248D01*
X141071348Y-103503251D01*
X141050859Y-103671999D01*
X141050859Y-103672000D01*
X141071348Y-103840748D01*
X141071349Y-103840751D01*
X141134289Y-104006707D01*
X141131821Y-104007642D01*
X141143086Y-104063889D01*
X141132850Y-104098747D01*
X141134289Y-104099293D01*
X141071349Y-104265248D01*
X141071348Y-104265251D01*
X141050859Y-104433999D01*
X141050859Y-104434000D01*
X141071348Y-104602748D01*
X141071349Y-104602751D01*
X141131629Y-104761694D01*
X141137278Y-104769878D01*
X141493048Y-104414109D01*
X141656000Y-104414109D01*
X141656000Y-104453891D01*
X141671224Y-104490645D01*
X141699355Y-104518776D01*
X141736109Y-104534000D01*
X141775891Y-104534000D01*
X141812645Y-104518776D01*
X141840776Y-104490645D01*
X141856000Y-104453891D01*
X141856000Y-104414109D01*
X141840776Y-104377355D01*
X141812645Y-104349224D01*
X141775891Y-104334000D01*
X141736109Y-104334000D01*
X141699355Y-104349224D01*
X141671224Y-104377355D01*
X141656000Y-104414109D01*
X141493048Y-104414109D01*
X141614579Y-104292579D01*
X141789680Y-104117477D01*
X141854157Y-104053000D01*
X141854156Y-104052999D01*
X142419842Y-104052999D01*
X142419842Y-104053000D01*
X142425731Y-104058889D01*
X142425732Y-104058891D01*
X142518000Y-104151156D01*
X142551679Y-104117477D01*
X142551680Y-104117477D01*
X142616157Y-104053000D01*
X142569120Y-104005963D01*
X142518000Y-103954842D01*
X142448004Y-104024835D01*
X142448000Y-104024841D01*
X142419842Y-104052999D01*
X141854156Y-104052999D01*
X141807121Y-104005964D01*
X141807119Y-104005961D01*
X141702260Y-103901102D01*
X141668775Y-103839779D01*
X141673759Y-103770087D01*
X141688980Y-103746401D01*
X141699355Y-103756776D01*
X141736109Y-103772000D01*
X141775891Y-103772000D01*
X141812645Y-103756776D01*
X141840776Y-103728645D01*
X141856000Y-103691891D01*
X141856000Y-103672000D01*
X142038842Y-103672000D01*
X142089963Y-103723120D01*
X142137000Y-103770157D01*
X142201477Y-103705680D01*
X142201477Y-103705679D01*
X142235156Y-103672000D01*
X142215266Y-103652109D01*
X142418000Y-103652109D01*
X142418000Y-103691891D01*
X142433224Y-103728645D01*
X142461355Y-103756776D01*
X142498109Y-103772000D01*
X142537891Y-103772000D01*
X142574645Y-103756776D01*
X142602776Y-103728645D01*
X142618000Y-103691891D01*
X142618000Y-103672000D01*
X142800842Y-103672000D01*
X142851963Y-103723120D01*
X142899000Y-103770157D01*
X142963477Y-103705680D01*
X142963477Y-103705679D01*
X142997156Y-103672000D01*
X142977266Y-103652109D01*
X143180000Y-103652109D01*
X143180000Y-103691891D01*
X143195224Y-103728645D01*
X143223355Y-103756776D01*
X143260109Y-103772000D01*
X143299891Y-103772000D01*
X143336645Y-103756776D01*
X143345727Y-103747693D01*
X143367224Y-103787062D01*
X143362240Y-103856754D01*
X143333739Y-103901101D01*
X143210004Y-104024835D01*
X143210000Y-104024841D01*
X143181842Y-104052999D01*
X143181842Y-104053000D01*
X143187731Y-104058889D01*
X143187732Y-104058891D01*
X143421421Y-104292579D01*
X143898720Y-104769879D01*
X143898720Y-104769878D01*
X143904369Y-104761696D01*
X143964650Y-104602751D01*
X143964651Y-104602748D01*
X143985141Y-104434000D01*
X143985141Y-104433999D01*
X143964651Y-104265251D01*
X143964650Y-104265245D01*
X143901711Y-104099291D01*
X143904183Y-104098353D01*
X143892912Y-104042133D01*
X143903153Y-104007255D01*
X143901711Y-104006709D01*
X143964650Y-103840754D01*
X143964651Y-103840748D01*
X143985141Y-103672000D01*
X143985141Y-103671999D01*
X143964651Y-103503251D01*
X143964650Y-103503245D01*
X143901711Y-103337291D01*
X143904183Y-103336353D01*
X143892912Y-103280133D01*
X143903153Y-103245255D01*
X143901711Y-103244709D01*
X143964650Y-103078754D01*
X143964651Y-103078748D01*
X143985141Y-102910000D01*
X143985141Y-102909999D01*
X143964651Y-102741251D01*
X143964650Y-102741245D01*
X143904371Y-102582304D01*
X143898721Y-102574119D01*
X143421421Y-103051421D01*
X143421421Y-103051422D01*
X143210000Y-103262841D01*
X143181842Y-103290999D01*
X143181842Y-103291000D01*
X143187731Y-103296889D01*
X143187732Y-103296891D01*
X143333739Y-103442898D01*
X143367224Y-103504221D01*
X143362240Y-103573913D01*
X143347018Y-103597597D01*
X143336645Y-103587224D01*
X143299891Y-103572000D01*
X143260109Y-103572000D01*
X143223355Y-103587224D01*
X143195224Y-103615355D01*
X143180000Y-103652109D01*
X142977266Y-103652109D01*
X142904894Y-103579735D01*
X142904889Y-103579731D01*
X142899000Y-103573842D01*
X142870843Y-103602000D01*
X142870836Y-103602003D01*
X142800842Y-103672000D01*
X142618000Y-103672000D01*
X142618000Y-103652109D01*
X142602776Y-103615355D01*
X142574645Y-103587224D01*
X142537891Y-103572000D01*
X142498109Y-103572000D01*
X142461355Y-103587224D01*
X142433224Y-103615355D01*
X142418000Y-103652109D01*
X142215266Y-103652109D01*
X142142894Y-103579735D01*
X142142889Y-103579731D01*
X142137000Y-103573842D01*
X142108843Y-103602000D01*
X142108836Y-103602003D01*
X142038842Y-103672000D01*
X141856000Y-103672000D01*
X141856000Y-103652109D01*
X141840776Y-103615355D01*
X141812645Y-103587224D01*
X141775891Y-103572000D01*
X141736109Y-103572000D01*
X141699355Y-103587224D01*
X141690272Y-103596306D01*
X141668774Y-103556936D01*
X141673758Y-103487244D01*
X141702259Y-103442896D01*
X141789680Y-103355476D01*
X141854157Y-103291000D01*
X141854156Y-103290999D01*
X142419842Y-103290999D01*
X142419842Y-103291000D01*
X142425731Y-103296889D01*
X142425732Y-103296891D01*
X142518000Y-103389156D01*
X142551679Y-103355477D01*
X142551680Y-103355477D01*
X142616157Y-103291000D01*
X142569120Y-103243963D01*
X142518000Y-103192842D01*
X142448004Y-103262835D01*
X142448000Y-103262841D01*
X142419842Y-103290999D01*
X141854156Y-103290999D01*
X141807121Y-103243964D01*
X141807119Y-103243961D01*
X141614579Y-103051421D01*
X141453267Y-102890109D01*
X141656000Y-102890109D01*
X141656000Y-102929891D01*
X141671224Y-102966645D01*
X141699355Y-102994776D01*
X141736109Y-103010000D01*
X141775891Y-103010000D01*
X141812645Y-102994776D01*
X141840776Y-102966645D01*
X141856000Y-102929891D01*
X141856000Y-102890109D01*
X141840776Y-102853355D01*
X141812645Y-102825224D01*
X141775891Y-102810000D01*
X141736109Y-102810000D01*
X141699355Y-102825224D01*
X141671224Y-102853355D01*
X141656000Y-102890109D01*
X141453267Y-102890109D01*
X141137278Y-102574119D01*
X141137277Y-102574120D01*
X141131628Y-102582305D01*
X141071349Y-102741245D01*
X141071348Y-102741251D01*
X141050859Y-102909999D01*
X138535819Y-102909999D01*
X138572824Y-102897472D01*
X138609255Y-102893368D01*
X138779522Y-102833789D01*
X138932262Y-102737816D01*
X139059816Y-102610262D01*
X139155789Y-102457522D01*
X139212939Y-102294196D01*
X141423039Y-102294196D01*
X141423039Y-102294197D01*
X142089958Y-102961116D01*
X142089964Y-102961121D01*
X142137000Y-103008157D01*
X142201476Y-102943680D01*
X142288896Y-102856259D01*
X142350219Y-102822774D01*
X142419911Y-102827758D01*
X142443598Y-102842980D01*
X142433224Y-102853355D01*
X142418000Y-102890109D01*
X142418000Y-102929891D01*
X142433224Y-102966645D01*
X142461355Y-102994776D01*
X142498109Y-103010000D01*
X142537891Y-103010000D01*
X142574645Y-102994776D01*
X142602776Y-102966645D01*
X142618000Y-102929891D01*
X142618000Y-102890109D01*
X142602776Y-102853355D01*
X142593693Y-102844272D01*
X142633063Y-102822775D01*
X142702755Y-102827759D01*
X142747102Y-102856260D01*
X142851958Y-102961116D01*
X142851964Y-102961121D01*
X142899000Y-103008157D01*
X142963477Y-102943680D01*
X143017048Y-102890109D01*
X143180000Y-102890109D01*
X143180000Y-102929891D01*
X143195224Y-102966645D01*
X143223355Y-102994776D01*
X143260109Y-103010000D01*
X143299891Y-103010000D01*
X143336645Y-102994776D01*
X143364776Y-102966645D01*
X143380000Y-102929891D01*
X143380000Y-102890109D01*
X143364776Y-102853355D01*
X143336645Y-102825224D01*
X143299891Y-102810000D01*
X143260109Y-102810000D01*
X143223355Y-102825224D01*
X143195224Y-102853355D01*
X143180000Y-102890109D01*
X143017048Y-102890109D01*
X143138579Y-102768579D01*
X143612959Y-102294197D01*
X143612959Y-102294196D01*
X143530046Y-102250682D01*
X143364994Y-102210000D01*
X143195006Y-102210000D01*
X143029952Y-102250682D01*
X142956624Y-102289167D01*
X142888115Y-102302891D01*
X142841376Y-102289167D01*
X142768046Y-102250682D01*
X142768047Y-102250682D01*
X142602994Y-102210000D01*
X142433006Y-102210000D01*
X142267952Y-102250682D01*
X142194624Y-102289167D01*
X142126115Y-102302891D01*
X142079376Y-102289167D01*
X142006046Y-102250682D01*
X142006047Y-102250682D01*
X141840994Y-102210000D01*
X141671006Y-102210000D01*
X141505951Y-102250682D01*
X141423039Y-102294196D01*
X139212939Y-102294196D01*
X139215368Y-102287255D01*
X139219489Y-102250682D01*
X139235565Y-102108003D01*
X139235565Y-102107996D01*
X139215369Y-101928750D01*
X139215368Y-101928745D01*
X139155788Y-101758476D01*
X139059815Y-101605737D01*
X138932262Y-101478184D01*
X138779521Y-101382210D01*
X138609255Y-101322632D01*
X138609246Y-101322630D01*
X138602012Y-101321815D01*
X138537600Y-101294744D01*
X138528223Y-101286277D01*
X136576819Y-99334873D01*
X136543334Y-99273550D01*
X136540500Y-99247192D01*
X136540500Y-97668960D01*
X136560185Y-97601921D01*
X136612989Y-97556166D01*
X136682147Y-97546222D01*
X136705456Y-97551919D01*
X136726740Y-97559367D01*
X136726750Y-97559369D01*
X136905996Y-97579565D01*
X136906000Y-97579565D01*
X136906004Y-97579565D01*
X137085249Y-97559369D01*
X137085251Y-97559368D01*
X137085255Y-97559368D01*
X137085258Y-97559366D01*
X137085262Y-97559366D01*
X137175377Y-97527832D01*
X137255522Y-97499789D01*
X137345096Y-97443505D01*
X137411068Y-97424500D01*
X138363192Y-97424500D01*
X138430231Y-97444185D01*
X138450873Y-97460819D01*
X140457873Y-99467819D01*
X140491358Y-99529142D01*
X140486374Y-99598834D01*
X140444502Y-99654767D01*
X140379038Y-99679184D01*
X140370192Y-99679500D01*
X139697068Y-99679500D01*
X139631096Y-99660494D01*
X139541522Y-99604210D01*
X139541518Y-99604209D01*
X139371262Y-99544633D01*
X139371249Y-99544630D01*
X139192004Y-99524435D01*
X139191996Y-99524435D01*
X139012750Y-99544630D01*
X139012745Y-99544631D01*
X138842476Y-99604211D01*
X138689737Y-99700184D01*
X138562184Y-99827737D01*
X138466211Y-99980476D01*
X138406631Y-100150745D01*
X138406630Y-100150750D01*
X138386435Y-100329996D01*
X138386435Y-100330003D01*
X138406630Y-100509249D01*
X138406631Y-100509254D01*
X138466211Y-100679523D01*
X138505769Y-100742478D01*
X138562184Y-100832262D01*
X138689738Y-100959816D01*
X138842478Y-101055789D01*
X138945952Y-101091996D01*
X139012745Y-101115368D01*
X139012750Y-101115369D01*
X139191996Y-101135565D01*
X139192000Y-101135565D01*
X139192004Y-101135565D01*
X139371249Y-101115369D01*
X139371251Y-101115368D01*
X139371255Y-101115368D01*
X139371258Y-101115366D01*
X139371262Y-101115366D01*
X139461377Y-101083832D01*
X139541522Y-101055789D01*
X139631096Y-100999505D01*
X139697068Y-100980500D01*
X145221192Y-100980500D01*
X145288231Y-101000185D01*
X145308873Y-101016819D01*
X145711974Y-101419920D01*
X146100532Y-101808477D01*
X146134017Y-101869800D01*
X146129033Y-101939491D01*
X146117846Y-101962128D01*
X146086212Y-102012474D01*
X146086209Y-102012481D01*
X146026633Y-102182737D01*
X146026630Y-102182750D01*
X146006435Y-102361996D01*
X146006435Y-102362003D01*
X146026630Y-102541249D01*
X146026631Y-102541254D01*
X146086211Y-102711523D01*
X146177155Y-102856259D01*
X146182184Y-102864262D01*
X146309738Y-102991816D01*
X146462478Y-103087789D01*
X146465702Y-103088917D01*
X146632745Y-103147368D01*
X146632750Y-103147369D01*
X146811996Y-103167565D01*
X146812000Y-103167565D01*
X146812004Y-103167565D01*
X146991249Y-103147369D01*
X146991252Y-103147368D01*
X146991255Y-103147368D01*
X147161522Y-103087789D01*
X147314262Y-102991816D01*
X147441816Y-102864262D01*
X147537789Y-102711522D01*
X147597368Y-102541255D01*
X147606802Y-102457524D01*
X147617565Y-102362003D01*
X147617565Y-102361996D01*
X147597369Y-102182750D01*
X147597366Y-102182737D01*
X147537790Y-102012481D01*
X147537789Y-102012478D01*
X147506152Y-101962128D01*
X147481506Y-101922903D01*
X147462500Y-101856931D01*
X147462500Y-101535928D01*
X147437502Y-101410261D01*
X147437501Y-101410260D01*
X147437501Y-101410256D01*
X147388465Y-101291873D01*
X147388464Y-101291872D01*
X147388461Y-101291866D01*
X147317277Y-101185332D01*
X147272264Y-101140319D01*
X147226669Y-101094724D01*
X146964207Y-100832262D01*
X145956674Y-99824727D01*
X145956673Y-99824726D01*
X145952598Y-99822003D01*
X145850127Y-99753535D01*
X145787618Y-99727643D01*
X145731744Y-99704499D01*
X145731738Y-99704497D01*
X145606071Y-99679500D01*
X145606069Y-99679500D01*
X142585808Y-99679500D01*
X142518769Y-99659815D01*
X142473014Y-99607011D01*
X142463070Y-99537853D01*
X142492095Y-99474297D01*
X142498127Y-99467819D01*
X146791127Y-95174819D01*
X146852450Y-95141334D01*
X146878808Y-95138500D01*
X151132932Y-95138500D01*
X151198904Y-95157506D01*
X151288477Y-95213789D01*
X151288481Y-95213790D01*
X151458737Y-95273366D01*
X151458743Y-95273367D01*
X151458745Y-95273368D01*
X151458746Y-95273368D01*
X151458750Y-95273369D01*
X151637996Y-95293565D01*
X151638000Y-95293565D01*
X151638004Y-95293565D01*
X151817249Y-95273369D01*
X151817252Y-95273368D01*
X151817255Y-95273368D01*
X151987522Y-95213789D01*
X152140262Y-95117816D01*
X152267816Y-94990262D01*
X152363789Y-94837522D01*
X152423368Y-94667255D01*
X152423367Y-94667255D01*
X152424458Y-94664140D01*
X152465180Y-94607363D01*
X152530133Y-94581616D01*
X152598694Y-94595072D01*
G37*
%TD.AperFunction*%
%TA.AperFunction,Conductor*%
G36*
X162800703Y-84360517D02*
G01*
X162807181Y-84366549D01*
X163043181Y-84602549D01*
X163076666Y-84663872D01*
X163079500Y-84690230D01*
X163079500Y-104285770D01*
X163059815Y-104352809D01*
X163043181Y-104373451D01*
X162031451Y-105385181D01*
X161970128Y-105418666D01*
X161943770Y-105421500D01*
X160382229Y-105421500D01*
X160315190Y-105401815D01*
X160294548Y-105385181D01*
X156488819Y-101579451D01*
X156455334Y-101518128D01*
X156452500Y-101491770D01*
X156452500Y-101391972D01*
X156459458Y-101351017D01*
X156479149Y-101294744D01*
X156487368Y-101271255D01*
X156487369Y-101271249D01*
X156507565Y-101092003D01*
X156507565Y-101091996D01*
X156487369Y-100912750D01*
X156487368Y-100912745D01*
X156427788Y-100742476D01*
X156331815Y-100589737D01*
X156204262Y-100462184D01*
X156051523Y-100366211D01*
X155881254Y-100306631D01*
X155881249Y-100306630D01*
X155702004Y-100286435D01*
X155701996Y-100286435D01*
X155574383Y-100300813D01*
X155505561Y-100288758D01*
X155454182Y-100241409D01*
X155436500Y-100177593D01*
X155436500Y-92644229D01*
X155456185Y-92577190D01*
X155472819Y-92556548D01*
X156834164Y-91195203D01*
X158362926Y-89666440D01*
X158424247Y-89632957D01*
X158493939Y-89637941D01*
X158549872Y-89679813D01*
X158573078Y-89734723D01*
X158577753Y-89764241D01*
X158643444Y-89966414D01*
X158739951Y-90155820D01*
X158864890Y-90327786D01*
X159003705Y-90466601D01*
X159037190Y-90527924D01*
X159032206Y-90597616D01*
X158990334Y-90653549D01*
X158981121Y-90659821D01*
X158826342Y-90755289D01*
X158702289Y-90879342D01*
X158610187Y-91028663D01*
X158610186Y-91028666D01*
X158555001Y-91195203D01*
X158555001Y-91195204D01*
X158555000Y-91195204D01*
X158544500Y-91297983D01*
X158544500Y-92598001D01*
X158544501Y-92598018D01*
X158555000Y-92700796D01*
X158555001Y-92700799D01*
X158610185Y-92867331D01*
X158610186Y-92867334D01*
X158702288Y-93016656D01*
X158826344Y-93140712D01*
X158975666Y-93232814D01*
X159142203Y-93287999D01*
X159244991Y-93298500D01*
X160795008Y-93298499D01*
X160897797Y-93287999D01*
X161064334Y-93232814D01*
X161213656Y-93140712D01*
X161337712Y-93016656D01*
X161429814Y-92867334D01*
X161484999Y-92700797D01*
X161495500Y-92598009D01*
X161495499Y-91585229D01*
X161515183Y-91518191D01*
X161531818Y-91497549D01*
X162427947Y-90601421D01*
X162427950Y-90601418D01*
X162427950Y-90601417D01*
X162427952Y-90601416D01*
X162477057Y-90527924D01*
X162492605Y-90504655D01*
X162496959Y-90498137D01*
X162510084Y-90478495D01*
X162561099Y-90355334D01*
X162566659Y-90341912D01*
X162595500Y-90196917D01*
X162595500Y-90049082D01*
X162595500Y-84454230D01*
X162615185Y-84387191D01*
X162667989Y-84341436D01*
X162737147Y-84331492D01*
X162800703Y-84360517D01*
G37*
%TD.AperFunction*%
%TA.AperFunction,Conductor*%
G36*
X139617099Y-82558185D02*
G01*
X139662854Y-82610989D01*
X139672798Y-82680147D01*
X139643773Y-82743703D01*
X139637741Y-82750181D01*
X139578184Y-82809737D01*
X139482211Y-82962476D01*
X139422631Y-83132745D01*
X139422630Y-83132750D01*
X139402435Y-83311996D01*
X139402435Y-83312003D01*
X139422630Y-83491249D01*
X139422631Y-83491254D01*
X139482211Y-83661523D01*
X139578184Y-83814262D01*
X139611048Y-83847126D01*
X139627595Y-83869434D01*
X139628152Y-83869063D01*
X139631534Y-83874124D01*
X139631535Y-83874127D01*
X139682749Y-83950775D01*
X139702726Y-83980673D01*
X139702727Y-83980674D01*
X141831181Y-86109127D01*
X141864666Y-86170450D01*
X141867500Y-86196808D01*
X141867500Y-96776931D01*
X141848494Y-96842903D01*
X141792211Y-96932477D01*
X141792209Y-96932481D01*
X141732633Y-97102737D01*
X141732630Y-97102750D01*
X141712435Y-97281996D01*
X141712435Y-97282003D01*
X141732630Y-97461249D01*
X141732631Y-97461254D01*
X141792211Y-97631523D01*
X141888184Y-97784262D01*
X142015738Y-97911816D01*
X142017689Y-97913372D01*
X142018618Y-97914696D01*
X142020662Y-97916740D01*
X142020304Y-97917097D01*
X142057828Y-97970561D01*
X142060676Y-98040373D01*
X142028055Y-98097998D01*
X141565680Y-98560372D01*
X141504357Y-98593857D01*
X141434665Y-98588873D01*
X141390318Y-98560372D01*
X139098674Y-96268727D01*
X139098673Y-96268726D01*
X139098669Y-96268723D01*
X138992127Y-96197535D01*
X138873744Y-96148499D01*
X138873738Y-96148497D01*
X138748071Y-96123500D01*
X138748069Y-96123500D01*
X137411068Y-96123500D01*
X137345096Y-96104494D01*
X137255522Y-96048210D01*
X137255518Y-96048209D01*
X137085262Y-95988633D01*
X137085249Y-95988630D01*
X136906004Y-95968435D01*
X136905996Y-95968435D01*
X136726750Y-95988630D01*
X136726735Y-95988634D01*
X136705452Y-95996081D01*
X136635673Y-95999642D01*
X136575047Y-95964911D01*
X136542821Y-95902917D01*
X136540500Y-95879039D01*
X136540500Y-83043067D01*
X136559507Y-82977094D01*
X136615788Y-82887523D01*
X136615789Y-82887522D01*
X136675368Y-82717255D01*
X136681538Y-82662500D01*
X136683102Y-82648617D01*
X136710168Y-82584203D01*
X136767763Y-82544648D01*
X136806322Y-82538500D01*
X139550060Y-82538500D01*
X139617099Y-82558185D01*
G37*
%TD.AperFunction*%
%TA.AperFunction,Conductor*%
G36*
X148656539Y-82558185D02*
G01*
X148702294Y-82610989D01*
X148713500Y-82662500D01*
X148713500Y-84077870D01*
X148713501Y-84077876D01*
X148719908Y-84137483D01*
X148770202Y-84272328D01*
X148770206Y-84272335D01*
X148856452Y-84387544D01*
X148856455Y-84387547D01*
X148971664Y-84473793D01*
X148971671Y-84473797D01*
X148993925Y-84482097D01*
X149106517Y-84524091D01*
X149166127Y-84530500D01*
X149339500Y-84530499D01*
X149406539Y-84550183D01*
X149452294Y-84602987D01*
X149463500Y-84654499D01*
X149463500Y-87694069D01*
X149463500Y-87694071D01*
X149463499Y-87694071D01*
X149488497Y-87819738D01*
X149488499Y-87819744D01*
X149537535Y-87938127D01*
X149608723Y-88044669D01*
X149608726Y-88044673D01*
X149608727Y-88044674D01*
X150012873Y-88448819D01*
X150046358Y-88510142D01*
X150041374Y-88579833D01*
X149999503Y-88635767D01*
X149934038Y-88660184D01*
X149925192Y-88660500D01*
X149438998Y-88660500D01*
X149438980Y-88660501D01*
X149336203Y-88671000D01*
X149336200Y-88671001D01*
X149169668Y-88726185D01*
X149169663Y-88726187D01*
X149020342Y-88818289D01*
X148896289Y-88942342D01*
X148804187Y-89091663D01*
X148804185Y-89091668D01*
X148776349Y-89175670D01*
X148749001Y-89258203D01*
X148749001Y-89258204D01*
X148749000Y-89258204D01*
X148738500Y-89360983D01*
X148738500Y-90086001D01*
X148738501Y-90086019D01*
X148749000Y-90188796D01*
X148749001Y-90188799D01*
X148757208Y-90213565D01*
X148804186Y-90355334D01*
X148896288Y-90504656D01*
X149020344Y-90628712D01*
X149169666Y-90720814D01*
X149336203Y-90775999D01*
X149438991Y-90786500D01*
X150789008Y-90786499D01*
X150891797Y-90775999D01*
X151058334Y-90720814D01*
X151207656Y-90628712D01*
X151331712Y-90504656D01*
X151423814Y-90355334D01*
X151462271Y-90239276D01*
X151502042Y-90181834D01*
X151566558Y-90155011D01*
X151620930Y-90161241D01*
X151712742Y-90193367D01*
X151712745Y-90193368D01*
X151712746Y-90193368D01*
X151712750Y-90193369D01*
X151891996Y-90213565D01*
X151892000Y-90213565D01*
X151892004Y-90213565D01*
X152071249Y-90193369D01*
X152071252Y-90193368D01*
X152071255Y-90193368D01*
X152241522Y-90133789D01*
X152394262Y-90037816D01*
X152521816Y-89910262D01*
X152617789Y-89757522D01*
X152677368Y-89587255D01*
X152677369Y-89587249D01*
X152697565Y-89408003D01*
X152697565Y-89407996D01*
X152677369Y-89228750D01*
X152677368Y-89228745D01*
X152639252Y-89119816D01*
X152617789Y-89058478D01*
X152521816Y-88905738D01*
X152394262Y-88778184D01*
X152241521Y-88682210D01*
X152071255Y-88622632D01*
X152071246Y-88622630D01*
X152064012Y-88621815D01*
X151999600Y-88594744D01*
X151990223Y-88586277D01*
X150800819Y-87396873D01*
X150767334Y-87335550D01*
X150764500Y-87309192D01*
X150764500Y-84654499D01*
X150784185Y-84587460D01*
X150836989Y-84541705D01*
X150888500Y-84530499D01*
X151061871Y-84530499D01*
X151061872Y-84530499D01*
X151121483Y-84524091D01*
X151256331Y-84473796D01*
X151371546Y-84387546D01*
X151457796Y-84272331D01*
X151508091Y-84137483D01*
X151514500Y-84077873D01*
X151514499Y-82662499D01*
X151534184Y-82595461D01*
X151586987Y-82549706D01*
X151638499Y-82538500D01*
X156997770Y-82538500D01*
X157064809Y-82558185D01*
X157085451Y-82574819D01*
X158541915Y-84031283D01*
X158575400Y-84092606D01*
X158576707Y-84138361D01*
X158548918Y-84313816D01*
X158544500Y-84341713D01*
X158544500Y-84554287D01*
X158547306Y-84572001D01*
X158577753Y-84764239D01*
X158643444Y-84966414D01*
X158739951Y-85155820D01*
X158864890Y-85327786D01*
X159015209Y-85478105D01*
X159015214Y-85478109D01*
X159179793Y-85597682D01*
X159222459Y-85653011D01*
X159228438Y-85722625D01*
X159195833Y-85784420D01*
X159179793Y-85798318D01*
X159015214Y-85917890D01*
X159015209Y-85917894D01*
X158864890Y-86068213D01*
X158739951Y-86240179D01*
X158643444Y-86429585D01*
X158577753Y-86631760D01*
X158544500Y-86841713D01*
X158544500Y-87054286D01*
X158576707Y-87257637D01*
X158567752Y-87326931D01*
X158541915Y-87364716D01*
X157516035Y-88390595D01*
X157454712Y-88424080D01*
X157385020Y-88419096D01*
X157340673Y-88390595D01*
X157220262Y-88270184D01*
X157067523Y-88174211D01*
X156897254Y-88114631D01*
X156897249Y-88114630D01*
X156718004Y-88094435D01*
X156717996Y-88094435D01*
X156538750Y-88114630D01*
X156538745Y-88114631D01*
X156458983Y-88142542D01*
X156418028Y-88149500D01*
X156172024Y-88149500D01*
X156027036Y-88178340D01*
X156027026Y-88178343D01*
X155890455Y-88234912D01*
X155890442Y-88234919D01*
X155767528Y-88317048D01*
X155767524Y-88317051D01*
X152833050Y-91251524D01*
X152833044Y-91251532D01*
X152783812Y-91325212D01*
X152783813Y-91325213D01*
X152750921Y-91374440D01*
X152750914Y-91374452D01*
X152694342Y-91511030D01*
X152694340Y-91511036D01*
X152665500Y-91656023D01*
X152665500Y-94270905D01*
X152645815Y-94337944D01*
X152593011Y-94383699D01*
X152523853Y-94393643D01*
X152460297Y-94364618D01*
X152424458Y-94311860D01*
X152363788Y-94138476D01*
X152267815Y-93985737D01*
X152140262Y-93858184D01*
X151987523Y-93762211D01*
X151817254Y-93702631D01*
X151817249Y-93702630D01*
X151638004Y-93682435D01*
X151637996Y-93682435D01*
X151458750Y-93702630D01*
X151458742Y-93702632D01*
X151355131Y-93738887D01*
X151285352Y-93742448D01*
X151224725Y-93707719D01*
X151192498Y-93645725D01*
X151198904Y-93576150D01*
X151226496Y-93534163D01*
X151331317Y-93429342D01*
X151423356Y-93280124D01*
X151423358Y-93280119D01*
X151478505Y-93113697D01*
X151478506Y-93113690D01*
X151488999Y-93010986D01*
X151489000Y-93010973D01*
X151489000Y-92898500D01*
X148739001Y-92898500D01*
X148739001Y-93010986D01*
X148749494Y-93113697D01*
X148804641Y-93280119D01*
X148804643Y-93280124D01*
X148896684Y-93429345D01*
X149020654Y-93553315D01*
X149109249Y-93607961D01*
X149155973Y-93659909D01*
X149167196Y-93728872D01*
X149139352Y-93792954D01*
X149081284Y-93831810D01*
X149044152Y-93837500D01*
X146493929Y-93837500D01*
X146368261Y-93862497D01*
X146368255Y-93862499D01*
X146249874Y-93911534D01*
X146143326Y-93982726D01*
X146143325Y-93982727D01*
X143380181Y-96745872D01*
X143318858Y-96779357D01*
X143249166Y-96774373D01*
X143193233Y-96732501D01*
X143168816Y-96667037D01*
X143168500Y-96658191D01*
X143168500Y-92286013D01*
X148739000Y-92286013D01*
X148739000Y-92398500D01*
X149864000Y-92398500D01*
X150364000Y-92398500D01*
X151488999Y-92398500D01*
X151488999Y-92286028D01*
X151488998Y-92286013D01*
X151478505Y-92183302D01*
X151423358Y-92016880D01*
X151423356Y-92016875D01*
X151331315Y-91867654D01*
X151207345Y-91743684D01*
X151058124Y-91651643D01*
X151058119Y-91651641D01*
X150891697Y-91596494D01*
X150891690Y-91596493D01*
X150788986Y-91586000D01*
X150364000Y-91586000D01*
X150364000Y-92398500D01*
X149864000Y-92398500D01*
X149864000Y-91586000D01*
X149439028Y-91586000D01*
X149439012Y-91586001D01*
X149336302Y-91596494D01*
X149169880Y-91651641D01*
X149169875Y-91651643D01*
X149020654Y-91743684D01*
X148896684Y-91867654D01*
X148804643Y-92016875D01*
X148804641Y-92016880D01*
X148749494Y-92183302D01*
X148749493Y-92183309D01*
X148739000Y-92286013D01*
X143168500Y-92286013D01*
X143168500Y-85811928D01*
X143143502Y-85686261D01*
X143143501Y-85686260D01*
X143143501Y-85686256D01*
X143094465Y-85567873D01*
X143094464Y-85567870D01*
X143023277Y-85461331D01*
X143023271Y-85461324D01*
X141041651Y-83479705D01*
X141008166Y-83418382D01*
X141006112Y-83378142D01*
X141013565Y-83312000D01*
X140993368Y-83132745D01*
X140933789Y-82962478D01*
X140837816Y-82809738D01*
X140778259Y-82750181D01*
X140744774Y-82688858D01*
X140749758Y-82619166D01*
X140791630Y-82563233D01*
X140857094Y-82538816D01*
X140865940Y-82538500D01*
X148589500Y-82538500D01*
X148656539Y-82558185D01*
G37*
%TD.AperFunction*%
%TA.AperFunction,Conductor*%
G36*
X161644155Y-76720185D02*
G01*
X161689910Y-76772989D01*
X161699854Y-76842147D01*
X161670829Y-76905703D01*
X161629892Y-76935754D01*
X161630188Y-76936324D01*
X161626548Y-76938210D01*
X161626513Y-76938236D01*
X161626423Y-76938274D01*
X161389785Y-77082176D01*
X161174941Y-77256965D01*
X160985907Y-77459372D01*
X160985904Y-77459374D01*
X160985903Y-77459377D01*
X160958336Y-77498431D01*
X160826186Y-77685643D01*
X160787548Y-77760211D01*
X160701776Y-77925744D01*
X160698763Y-77931558D01*
X160698760Y-77931564D01*
X160606019Y-78192514D01*
X160606014Y-78192530D01*
X160549669Y-78463683D01*
X160549668Y-78463685D01*
X160530769Y-78740000D01*
X160549668Y-79016314D01*
X160549669Y-79016316D01*
X160606014Y-79287469D01*
X160606019Y-79287485D01*
X160698760Y-79548435D01*
X160698763Y-79548441D01*
X160698764Y-79548444D01*
X160698766Y-79548448D01*
X160826186Y-79794356D01*
X160985903Y-80020623D01*
X161174942Y-80223035D01*
X161389782Y-80397821D01*
X161389784Y-80397822D01*
X161389785Y-80397823D01*
X161626423Y-80541725D01*
X161724789Y-80584451D01*
X161880452Y-80652065D01*
X162147141Y-80726788D01*
X162388364Y-80759942D01*
X162421519Y-80764500D01*
X162421520Y-80764500D01*
X162698481Y-80764500D01*
X162728061Y-80760434D01*
X162972859Y-80726788D01*
X163239548Y-80652065D01*
X163493578Y-80541724D01*
X163730218Y-80397821D01*
X163945058Y-80223035D01*
X164134097Y-80020623D01*
X164293814Y-79794356D01*
X164365403Y-79656195D01*
X164413722Y-79605730D01*
X164481656Y-79589398D01*
X164547636Y-79612387D01*
X164590713Y-79667397D01*
X164599500Y-79713245D01*
X164599500Y-83736769D01*
X164579815Y-83803808D01*
X164527011Y-83849563D01*
X164457853Y-83859507D01*
X164394297Y-83830482D01*
X164387819Y-83824450D01*
X159503307Y-78939939D01*
X159480653Y-78903869D01*
X159478813Y-78904756D01*
X159475792Y-78898484D01*
X159475789Y-78898480D01*
X159475789Y-78898478D01*
X159379816Y-78745738D01*
X159252262Y-78618184D01*
X159234880Y-78607262D01*
X159099523Y-78522211D01*
X158929254Y-78462631D01*
X158929249Y-78462630D01*
X158750004Y-78442435D01*
X158749996Y-78442435D01*
X158570750Y-78462630D01*
X158570745Y-78462631D01*
X158400476Y-78522211D01*
X158247737Y-78618184D01*
X158120184Y-78745737D01*
X158024211Y-78898476D01*
X157964631Y-79068745D01*
X157964630Y-79068750D01*
X157944435Y-79247996D01*
X157944435Y-79248003D01*
X157964630Y-79427249D01*
X157964631Y-79427254D01*
X158024211Y-79597523D01*
X158120184Y-79750262D01*
X158179741Y-79809819D01*
X158213226Y-79871142D01*
X158208242Y-79940834D01*
X158166370Y-79996767D01*
X158100906Y-80021184D01*
X158092060Y-80021500D01*
X151638500Y-80021500D01*
X151571461Y-80001815D01*
X151525706Y-79949011D01*
X151514500Y-79897500D01*
X151514500Y-79612387D01*
X151514499Y-79326806D01*
X151534183Y-79259768D01*
X151550813Y-79239131D01*
X151863224Y-78926720D01*
X151924545Y-78893237D01*
X151937019Y-78891183D01*
X151944255Y-78890368D01*
X152114522Y-78830789D01*
X152267262Y-78734816D01*
X152394816Y-78607262D01*
X152490789Y-78454522D01*
X152550368Y-78284255D01*
X152552683Y-78263708D01*
X152570565Y-78105003D01*
X152570565Y-78104996D01*
X152550369Y-77925750D01*
X152550368Y-77925745D01*
X152537507Y-77888991D01*
X152490789Y-77755478D01*
X152478654Y-77736166D01*
X152394815Y-77602737D01*
X152267262Y-77475184D01*
X152114523Y-77379211D01*
X151944254Y-77319631D01*
X151944249Y-77319630D01*
X151765004Y-77299435D01*
X151764996Y-77299435D01*
X151585750Y-77319630D01*
X151585745Y-77319631D01*
X151415476Y-77379211D01*
X151262737Y-77475184D01*
X151135184Y-77602737D01*
X151039210Y-77755478D01*
X150979632Y-77925744D01*
X150978083Y-77932534D01*
X150975141Y-77931862D01*
X150953157Y-77983951D01*
X150895499Y-78023414D01*
X150857128Y-78029500D01*
X149166129Y-78029500D01*
X149166123Y-78029501D01*
X149106516Y-78035908D01*
X148971671Y-78086202D01*
X148971664Y-78086206D01*
X148856455Y-78172452D01*
X148856452Y-78172455D01*
X148770206Y-78287664D01*
X148770202Y-78287671D01*
X148719908Y-78422516D01*
X148717625Y-78443757D01*
X148690886Y-78508308D01*
X148633493Y-78548155D01*
X148594336Y-78554500D01*
X143692634Y-78554500D01*
X143626663Y-78535495D01*
X143605522Y-78522211D01*
X143605521Y-78522210D01*
X143605517Y-78522208D01*
X143435262Y-78462633D01*
X143435249Y-78462630D01*
X143256004Y-78442435D01*
X143255996Y-78442435D01*
X143076750Y-78462630D01*
X143076745Y-78462631D01*
X142906476Y-78522211D01*
X142753737Y-78618184D01*
X142626184Y-78745737D01*
X142530211Y-78898476D01*
X142470631Y-79068745D01*
X142470630Y-79068750D01*
X142450435Y-79247996D01*
X142450435Y-79248003D01*
X142470630Y-79427249D01*
X142470631Y-79427254D01*
X142530211Y-79597523D01*
X142626184Y-79750262D01*
X142685741Y-79809819D01*
X142719226Y-79871142D01*
X142714242Y-79940834D01*
X142672370Y-79996767D01*
X142606906Y-80021184D01*
X142598060Y-80021500D01*
X142395674Y-80021500D01*
X142328635Y-80001815D01*
X142282880Y-79949011D01*
X142272454Y-79911383D01*
X142263369Y-79830750D01*
X142263368Y-79830745D01*
X142237215Y-79756003D01*
X142203789Y-79660478D01*
X142166071Y-79600451D01*
X142133391Y-79548441D01*
X142107816Y-79507738D01*
X141980262Y-79380184D01*
X141827523Y-79284211D01*
X141657254Y-79224631D01*
X141657249Y-79224630D01*
X141617879Y-79220195D01*
X141562872Y-79200078D01*
X141532127Y-79179535D01*
X141413744Y-79130499D01*
X141413738Y-79130497D01*
X141288071Y-79105500D01*
X141288069Y-79105500D01*
X136670512Y-79105500D01*
X136603473Y-79085815D01*
X136557718Y-79033011D01*
X136547774Y-78963853D01*
X136565518Y-78915528D01*
X136615788Y-78835523D01*
X136615789Y-78835522D01*
X136675368Y-78665255D01*
X136680672Y-78618184D01*
X136695565Y-78486003D01*
X136695565Y-78485996D01*
X136675369Y-78306750D01*
X136675368Y-78306745D01*
X136628378Y-78172455D01*
X136615789Y-78136478D01*
X136584198Y-78086202D01*
X136552597Y-78035909D01*
X136519816Y-77983738D01*
X136392262Y-77856184D01*
X136293948Y-77794409D01*
X136239523Y-77760211D01*
X136069254Y-77700631D01*
X136069249Y-77700630D01*
X135890004Y-77680435D01*
X135889996Y-77680435D01*
X135710750Y-77700630D01*
X135710745Y-77700631D01*
X135540476Y-77760211D01*
X135387737Y-77856184D01*
X135260184Y-77983737D01*
X135164210Y-78136478D01*
X135104632Y-78306744D01*
X135104630Y-78306752D01*
X135103815Y-78313988D01*
X135076743Y-78378400D01*
X135068277Y-78387775D01*
X131689873Y-81766181D01*
X131628550Y-81799666D01*
X131602192Y-81802500D01*
X131275997Y-81802500D01*
X131204057Y-81807645D01*
X131192267Y-81811107D01*
X131141439Y-81812468D01*
X131141196Y-81814738D01*
X131073883Y-81807501D01*
X131073881Y-81807500D01*
X131073873Y-81807500D01*
X131073865Y-81807500D01*
X130940807Y-81807500D01*
X130873768Y-81787815D01*
X130828013Y-81735011D01*
X130818069Y-81665853D01*
X130847094Y-81602297D01*
X130853126Y-81595819D01*
X130926445Y-81522500D01*
X131864495Y-80584449D01*
X131925816Y-80550966D01*
X131938270Y-80548914D01*
X132005255Y-80541368D01*
X132175522Y-80481789D01*
X132328262Y-80385816D01*
X132455816Y-80258262D01*
X132551789Y-80105522D01*
X132611368Y-79935255D01*
X132623143Y-79830750D01*
X132631565Y-79756003D01*
X132631565Y-79755996D01*
X132611369Y-79576750D01*
X132611368Y-79576745D01*
X132551788Y-79406476D01*
X132490304Y-79308626D01*
X132455816Y-79253738D01*
X132328262Y-79126184D01*
X132295344Y-79105500D01*
X132175523Y-79030211D01*
X132005254Y-78970631D01*
X132005249Y-78970630D01*
X131826004Y-78950435D01*
X131825996Y-78950435D01*
X131700470Y-78964578D01*
X131631648Y-78952523D01*
X131580269Y-78905174D01*
X131562645Y-78837564D01*
X131562873Y-78832941D01*
X131569231Y-78740000D01*
X131550331Y-78463686D01*
X131528181Y-78357095D01*
X131493985Y-78192530D01*
X131493980Y-78192514D01*
X131401239Y-77931564D01*
X131401236Y-77931558D01*
X131401234Y-77931552D01*
X131273814Y-77685644D01*
X131114097Y-77459377D01*
X130925058Y-77256965D01*
X130710218Y-77082179D01*
X130710216Y-77082178D01*
X130710214Y-77082176D01*
X130473576Y-76938274D01*
X130473487Y-76938236D01*
X130473463Y-76938216D01*
X130469812Y-76936324D01*
X130470229Y-76935518D01*
X130419838Y-76893475D01*
X130398906Y-76826815D01*
X130417335Y-76759419D01*
X130469276Y-76712687D01*
X130522884Y-76700500D01*
X161577116Y-76700500D01*
X161644155Y-76720185D01*
G37*
%TD.AperFunction*%
%TD*%
M02*
