%TF.GenerationSoftware,KiCad,Pcbnew,8.0.9*%
%TF.CreationDate,2026-03-04T14:02:13+02:00*%
%TF.ProjectId,DeFocuserLiteSMD,4465466f-6375-4736-9572-4c697465534d,rev?*%
%TF.SameCoordinates,Original*%
%TF.FileFunction,Copper,L1,Top*%
%TF.FilePolarity,Positive*%
%FSLAX46Y46*%
G04 Gerber Fmt 4.6, Leading zero omitted, Abs format (unit mm)*
G04 Created by KiCad (PCBNEW 8.0.9) date 2026-03-04 14:02:13*
%MOMM*%
%LPD*%
G01*
G04 APERTURE LIST*
G04 Aperture macros list*
%AMRoundRect*
0 Rectangle with rounded corners*
0 $1 Rounding radius*
0 $2 $3 $4 $5 $6 $7 $8 $9 X,Y pos of 4 corners*
0 Add a 4 corners polygon primitive as box body*
4,1,4,$2,$3,$4,$5,$6,$7,$8,$9,$2,$3,0*
0 Add four circle primitives for the rounded corners*
1,1,$1+$1,$2,$3*
1,1,$1+$1,$4,$5*
1,1,$1+$1,$6,$7*
1,1,$1+$1,$8,$9*
0 Add four rect primitives between the rounded corners*
20,1,$1+$1,$2,$3,$4,$5,0*
20,1,$1+$1,$4,$5,$6,$7,0*
20,1,$1+$1,$6,$7,$8,$9,0*
20,1,$1+$1,$8,$9,$2,$3,0*%
%AMOutline4P*
0 Free polygon, 4 corners , with rotation*
0 The origin of the aperture is its center*
0 number of corners: always 4*
0 $1 to $8 corner X, Y*
0 $9 Rotation angle, in degrees counterclockwise*
0 create outline with 4 corners*
4,1,4,$1,$2,$3,$4,$5,$6,$7,$8,$1,$2,$9*%
G04 Aperture macros list end*
%TA.AperFunction,SMDPad,CuDef*%
%ADD10RoundRect,0.381000X-0.381000X1.333500X-0.381000X-1.333500X0.381000X-1.333500X0.381000X1.333500X0*%
%TD*%
%TA.AperFunction,SMDPad,CuDef*%
%ADD11RoundRect,0.249999X-0.450001X-1.450001X0.450001X-1.450001X0.450001X1.450001X-0.450001X1.450001X0*%
%TD*%
%TA.AperFunction,SMDPad,CuDef*%
%ADD12RoundRect,0.250000X1.500000X0.550000X-1.500000X0.550000X-1.500000X-0.550000X1.500000X-0.550000X0*%
%TD*%
%TA.AperFunction,SMDPad,CuDef*%
%ADD13RoundRect,0.250000X0.625000X-0.400000X0.625000X0.400000X-0.625000X0.400000X-0.625000X-0.400000X0*%
%TD*%
%TA.AperFunction,SMDPad,CuDef*%
%ADD14RoundRect,0.500000X-0.875000X-0.500000X0.875000X-0.500000X0.875000X0.500000X-0.875000X0.500000X0*%
%TD*%
%TA.AperFunction,SMDPad,CuDef*%
%ADD15RoundRect,0.275000X0.975000X0.275000X-0.975000X0.275000X-0.975000X-0.275000X0.975000X-0.275000X0*%
%TD*%
%TA.AperFunction,SMDPad,CuDef*%
%ADD16C,1.700000*%
%TD*%
%TA.AperFunction,SMDPad,CuDef*%
%ADD17RoundRect,0.250000X1.075000X-0.312500X1.075000X0.312500X-1.075000X0.312500X-1.075000X-0.312500X0*%
%TD*%
%TA.AperFunction,SMDPad,CuDef*%
%ADD18RoundRect,0.250000X-0.625000X0.312500X-0.625000X-0.312500X0.625000X-0.312500X0.625000X0.312500X0*%
%TD*%
%TA.AperFunction,SMDPad,CuDef*%
%ADD19RoundRect,0.250000X-0.475000X0.250000X-0.475000X-0.250000X0.475000X-0.250000X0.475000X0.250000X0*%
%TD*%
%TA.AperFunction,SMDPad,CuDef*%
%ADD20RoundRect,0.250000X-0.250000X-0.475000X0.250000X-0.475000X0.250000X0.475000X-0.250000X0.475000X0*%
%TD*%
%TA.AperFunction,ComponentPad*%
%ADD21RoundRect,0.250000X0.725000X-0.600000X0.725000X0.600000X-0.725000X0.600000X-0.725000X-0.600000X0*%
%TD*%
%TA.AperFunction,ComponentPad*%
%ADD22O,1.950000X1.700000*%
%TD*%
%TA.AperFunction,SMDPad,CuDef*%
%ADD23Outline4P,-1.800000X-1.150000X1.800000X-0.550000X1.800000X0.550000X-1.800000X1.150000X270.000000*%
%TD*%
%TA.AperFunction,SMDPad,CuDef*%
%ADD24Outline4P,-1.800000X-1.150000X1.800000X-0.550000X1.800000X0.550000X-1.800000X1.150000X90.000000*%
%TD*%
%TA.AperFunction,SMDPad,CuDef*%
%ADD25O,0.900000X0.280000*%
%TD*%
%TA.AperFunction,SMDPad,CuDef*%
%ADD26O,0.280000X0.900000*%
%TD*%
%TA.AperFunction,ComponentPad*%
%ADD27C,0.400000*%
%TD*%
%TA.AperFunction,SMDPad,CuDef*%
%ADD28R,3.500000X3.500000*%
%TD*%
%TA.AperFunction,SMDPad,CuDef*%
%ADD29RoundRect,0.250000X-0.625000X0.400000X-0.625000X-0.400000X0.625000X-0.400000X0.625000X0.400000X0*%
%TD*%
%TA.AperFunction,ComponentPad*%
%ADD30RoundRect,0.250000X-0.725000X0.600000X-0.725000X-0.600000X0.725000X-0.600000X0.725000X0.600000X0*%
%TD*%
%TA.AperFunction,SMDPad,CuDef*%
%ADD31RoundRect,0.250000X0.325000X0.650000X-0.325000X0.650000X-0.325000X-0.650000X0.325000X-0.650000X0*%
%TD*%
%TA.AperFunction,SMDPad,CuDef*%
%ADD32RoundRect,0.150000X-0.150000X0.512500X-0.150000X-0.512500X0.150000X-0.512500X0.150000X0.512500X0*%
%TD*%
%TA.AperFunction,SMDPad,CuDef*%
%ADD33RoundRect,0.250000X-0.450000X0.262500X-0.450000X-0.262500X0.450000X-0.262500X0.450000X0.262500X0*%
%TD*%
%TA.AperFunction,ViaPad*%
%ADD34C,0.600000*%
%TD*%
%TA.AperFunction,Conductor*%
%ADD35C,0.300000*%
%TD*%
%TA.AperFunction,Conductor*%
%ADD36C,0.800000*%
%TD*%
%TA.AperFunction,Conductor*%
%ADD37C,0.500000*%
%TD*%
%TA.AperFunction,Conductor*%
%ADD38C,0.200000*%
%TD*%
G04 APERTURE END LIST*
D10*
%TO.P,L1,1,In*%
%TO.N,+5V*%
X158496000Y-117348000D03*
%TO.P,L1,2,Out*%
%TO.N,Net-(D1-A)*%
X148082000Y-117348000D03*
%TD*%
D11*
%TO.P,C2,1*%
%TO.N,+12V*%
X158732000Y-98298000D03*
%TO.P,C2,2*%
%TO.N,GND*%
X162832000Y-98298000D03*
%TD*%
D12*
%TO.P,C5,1*%
%TO.N,+12V*%
X135288000Y-107442000D03*
%TO.P,C5,2*%
%TO.N,GND*%
X129888000Y-107442000D03*
%TD*%
D13*
%TO.P,R2,1*%
%TO.N,Net-(U2-FB)*%
X155702000Y-102642000D03*
%TO.P,R2,2*%
%TO.N,GND*%
X155702000Y-99542000D03*
%TD*%
D14*
%TO.P,U1,1,PA02_A0_D0*%
%TO.N,DIAG*%
X137995000Y-79244000D03*
%TO.P,U1,2,PA4_A1_D1*%
%TO.N,STP*%
X137995000Y-81784000D03*
%TO.P,U1,3,PA10_A2_D2*%
%TO.N,DIR*%
X137995000Y-84324000D03*
%TO.P,U1,4,PA11_A3_D3*%
%TO.N,unconnected-(U1-PA11_A3_D3-Pad4)*%
X137995000Y-86864000D03*
%TO.P,U1,5,PA8_A4_D4_SDA*%
%TO.N,SDA*%
X137995000Y-89404000D03*
%TO.P,U1,6,PA9_A5_D5_SCL*%
%TO.N,SCL*%
X137995000Y-91944000D03*
%TO.P,U1,7,PB08_A6_D6_TX*%
%TO.N,TX*%
X137995000Y-94484000D03*
%TO.P,U1,8,PB09_A7_D7_RX*%
%TO.N,RX*%
X154160000Y-94484000D03*
%TO.P,U1,9,PA7_A8_D8_SCK*%
%TO.N,unconnected-(U1-PA7_A8_D8_SCK-Pad9)*%
X154160000Y-91944000D03*
%TO.P,U1,10,PA5_A9_D9_MISO*%
%TO.N,BTN*%
X154160000Y-89404000D03*
%TO.P,U1,11,PA6_A10_D10_MOSI*%
%TO.N,EN*%
X154160000Y-86864000D03*
%TO.P,U1,12,3V3*%
%TO.N,+3.3V*%
X154160000Y-84324000D03*
%TO.P,U1,13,GND*%
%TO.N,GND*%
X154160000Y-81784000D03*
%TO.P,U1,14,5V*%
%TO.N,+5V*%
X154160000Y-79244000D03*
D15*
%TO.P,U1,15*%
%TO.N,N/C*%
X141605000Y-86482000D03*
%TO.P,U1,16*%
X141605000Y-84577000D03*
D16*
%TO.P,U1,17*%
X144780000Y-78232000D03*
%TO.P,U1,18*%
X147320000Y-78232000D03*
%TO.P,U1,19*%
X144780000Y-80772000D03*
%TO.P,U1,20*%
X147320000Y-80772000D03*
%TO.P,U1,21*%
X144780000Y-83312000D03*
%TO.P,U1,22*%
X147320000Y-83312000D03*
%TD*%
D17*
%TO.P,R3,1*%
%TO.N,GND*%
X136144000Y-115000500D03*
%TO.P,R3,2*%
%TO.N,Net-(U3-BRA)*%
X136144000Y-112075500D03*
%TD*%
D18*
%TO.P,R6,1*%
%TO.N,TX*%
X130556000Y-99121500D03*
%TO.P,R6,2*%
%TO.N,RX*%
X130556000Y-102046500D03*
%TD*%
D19*
%TO.P,C7,1*%
%TO.N,+12V*%
X142240000Y-109794000D03*
%TO.P,C7,2*%
%TO.N,GND*%
X142240000Y-111694000D03*
%TD*%
D20*
%TO.P,C9,1*%
%TO.N,Net-(U3-5VOUT)*%
X145608000Y-98806000D03*
%TO.P,C9,2*%
%TO.N,GND*%
X147508000Y-98806000D03*
%TD*%
D21*
%TO.P,Motor,1,Pin_1*%
%TO.N,A+*%
X160020000Y-91948000D03*
D22*
%TO.P,Motor,2,Pin_2*%
%TO.N,A-*%
X160020000Y-89448000D03*
%TO.P,Motor,3,Pin_3*%
%TO.N,B-*%
X160020000Y-86948000D03*
%TO.P,Motor,4,Pin_4*%
%TO.N,B+*%
X160020000Y-84448000D03*
%TD*%
D23*
%TO.P,D1,1,K*%
%TO.N,+12V*%
X143764000Y-115718000D03*
D24*
%TO.P,D1,2,A*%
%TO.N,Net-(D1-A)*%
X143764000Y-121518000D03*
%TD*%
D19*
%TO.P,C8,1*%
%TO.N,+12V*%
X144526000Y-109794000D03*
%TO.P,C8,2*%
%TO.N,GND*%
X144526000Y-111694000D03*
%TD*%
%TO.P,C3,1*%
%TO.N,Net-(U3-CPI)*%
X148590000Y-102428000D03*
%TO.P,C3,2*%
%TO.N,Net-(U3-CPO)*%
X148590000Y-104328000D03*
%TD*%
D25*
%TO.P,U3,1,OB2*%
%TO.N,B-*%
X145018000Y-105172000D03*
%TO.P,U3,2,ENN*%
%TO.N,EN*%
X145018000Y-104672000D03*
%TO.P,U3,3,GND*%
%TO.N,GND*%
X145018000Y-104172000D03*
%TO.P,U3,4,CPO*%
%TO.N,Net-(U3-CPO)*%
X145018000Y-103672000D03*
%TO.P,U3,5,CPI*%
%TO.N,Net-(U3-CPI)*%
X145018000Y-103172000D03*
%TO.P,U3,6,VCP*%
%TO.N,Net-(U3-VCP)*%
X145018000Y-102672000D03*
%TO.P,U3,7,SPREAD*%
%TO.N,GND*%
X145018000Y-102172000D03*
D26*
%TO.P,U3,8,5VOUT*%
%TO.N,Net-(U3-5VOUT)*%
X144018000Y-101172000D03*
%TO.P,U3,9,MS1_AD0*%
%TO.N,GND*%
X143518000Y-101172000D03*
%TO.P,U3,10,MS2_AD1*%
X143018000Y-101172000D03*
%TO.P,U3,11,DIAG*%
%TO.N,DIAG*%
X142518000Y-101172000D03*
%TO.P,U3,12,INDEX*%
%TO.N,unconnected-(U3-INDEX-Pad12)*%
X142018000Y-101172000D03*
%TO.P,U3,13,CLK*%
%TO.N,GND*%
X141518000Y-101172000D03*
%TO.P,U3,14,PDN_UART*%
%TO.N,RX*%
X141018000Y-101172000D03*
D25*
%TO.P,U3,15,VCC_IO*%
%TO.N,+5V*%
X140018000Y-102172000D03*
%TO.P,U3,16,STEP*%
%TO.N,STP*%
X140018000Y-102672000D03*
%TO.P,U3,17,VREF*%
%TO.N,unconnected-(U3-VREF-Pad17)*%
X140018000Y-103172000D03*
%TO.P,U3,18,GND*%
%TO.N,GND*%
X140018000Y-103672000D03*
%TO.P,U3,19,DIR*%
%TO.N,DIR*%
X140018000Y-104172000D03*
%TO.P,U3,20,STDBY*%
%TO.N,GND*%
X140018000Y-104672000D03*
%TO.P,U3,21,OA2*%
%TO.N,A-*%
X140018000Y-105172000D03*
D26*
%TO.P,U3,22,VS*%
%TO.N,+12V*%
X141018000Y-106172000D03*
%TO.P,U3,23,BRA*%
%TO.N,Net-(U3-BRA)*%
X141518000Y-106172000D03*
%TO.P,U3,24,OA1*%
%TO.N,A+*%
X142018000Y-106172000D03*
%TO.P,U3,25,UNUSED*%
%TO.N,unconnected-(U3-UNUSED-Pad25)*%
X142518000Y-106172000D03*
%TO.P,U3,26,OB1*%
%TO.N,B+*%
X143018000Y-106172000D03*
%TO.P,U3,27,BRB*%
%TO.N,Net-(U3-BRB)*%
X143518000Y-106172000D03*
%TO.P,U3,28,VS*%
%TO.N,+12V*%
X144018000Y-106172000D03*
D27*
%TO.P,U3,29,EP*%
%TO.N,GND*%
X141756000Y-104434000D03*
X142518000Y-104434000D03*
X143280000Y-104434000D03*
X141756000Y-103672000D03*
X142518000Y-103672000D03*
D28*
X142518000Y-103672000D03*
D27*
X143280000Y-103672000D03*
X141756000Y-102910000D03*
X142518000Y-102910000D03*
X143280000Y-102910000D03*
%TD*%
D29*
%TO.P,R1,1*%
%TO.N,+12V*%
X155702000Y-106400000D03*
%TO.P,R1,2*%
%TO.N,Net-(U2-FB)*%
X155702000Y-109500000D03*
%TD*%
D17*
%TO.P,R4,1*%
%TO.N,GND*%
X139446000Y-115000500D03*
%TO.P,R4,2*%
%TO.N,Net-(U3-BRB)*%
X139446000Y-112075500D03*
%TD*%
D30*
%TO.P,I2C,1,Pin_1*%
%TO.N,Net-(JP1-C)*%
X131589000Y-85912000D03*
D22*
%TO.P,I2C,2,Pin_2*%
%TO.N,SDA*%
X131589000Y-88412000D03*
%TO.P,I2C,3,Pin_3*%
%TO.N,SCL*%
X131589000Y-90912000D03*
%TO.P,I2C,4,Pin_4*%
%TO.N,GND*%
X131589000Y-93412000D03*
%TD*%
D11*
%TO.P,C1,1*%
%TO.N,+5V*%
X158732000Y-108712000D03*
%TO.P,C1,2*%
%TO.N,GND*%
X162832000Y-108712000D03*
%TD*%
D31*
%TO.P,C4,1*%
%TO.N,+5V*%
X140159000Y-98806000D03*
%TO.P,C4,2*%
%TO.N,GND*%
X137209000Y-98806000D03*
%TD*%
D32*
%TO.P,U2,1,SW*%
%TO.N,Net-(D1-A)*%
X160462000Y-102494500D03*
%TO.P,U2,2,GND*%
%TO.N,GND*%
X159512000Y-102494500D03*
%TO.P,U2,3,FB*%
%TO.N,Net-(U2-FB)*%
X158562000Y-102494500D03*
%TO.P,U2,4,EN*%
%TO.N,+5V*%
X158562000Y-104769500D03*
%TO.P,U2,5,IN*%
X159512000Y-104769500D03*
%TO.P,U2,6,NC*%
%TO.N,unconnected-(U2-NC-Pad6)*%
X160462000Y-104769500D03*
%TD*%
D33*
%TO.P,C6,1*%
%TO.N,Net-(U3-VCP)*%
X134874000Y-101195500D03*
%TO.P,C6,2*%
%TO.N,+12V*%
X134874000Y-103020500D03*
%TD*%
D34*
%TO.N,GND*%
X140716000Y-88646000D03*
X141478000Y-88646000D03*
X161544000Y-101092000D03*
X146812000Y-88138000D03*
X132588000Y-111252000D03*
X144780000Y-89154000D03*
X158242000Y-77216000D03*
X132588000Y-112268000D03*
X153924000Y-112776000D03*
X161290000Y-94488000D03*
X130556000Y-111252000D03*
X151384000Y-85090000D03*
X147828000Y-90170000D03*
X151892000Y-112776000D03*
X147574000Y-108966000D03*
X151892000Y-83058000D03*
X151384000Y-86106000D03*
X154940000Y-112776000D03*
X141478000Y-89408000D03*
X132588000Y-110236000D03*
X147828000Y-91186000D03*
X156718000Y-77216000D03*
X131572000Y-110236000D03*
X145796000Y-90170000D03*
X146812000Y-89154000D03*
X151892000Y-121666000D03*
X135128000Y-77978000D03*
X156718000Y-84836000D03*
X149606000Y-96520000D03*
X142240000Y-78994000D03*
X153924000Y-121666000D03*
X148082000Y-95758000D03*
X134366000Y-77978000D03*
X149606000Y-95758000D03*
X131572000Y-112268000D03*
X145796000Y-91186000D03*
X132588000Y-109220000D03*
X162560000Y-101092000D03*
X130556000Y-112268000D03*
X152908000Y-112776000D03*
X144780000Y-90170000D03*
X150622000Y-108966000D03*
X147828000Y-100584000D03*
X148590000Y-108966000D03*
X144780000Y-91186000D03*
X145796000Y-89154000D03*
X148590000Y-100584000D03*
X133604000Y-77978000D03*
X131572000Y-109220000D03*
X140716000Y-78994000D03*
X154940000Y-121666000D03*
X152908000Y-121666000D03*
X132842000Y-77978000D03*
X143764000Y-99060000D03*
X162052000Y-95250000D03*
X162814000Y-94488000D03*
X147828000Y-88138000D03*
X146812000Y-90170000D03*
X148844000Y-95758000D03*
X149606000Y-108966000D03*
X162814000Y-95250000D03*
X148844000Y-96520000D03*
X130556000Y-110236000D03*
X162052000Y-94488000D03*
X141478000Y-78994000D03*
X131572000Y-111252000D03*
X156718000Y-83312000D03*
X140716000Y-89408000D03*
X130556000Y-109220000D03*
X161290000Y-95250000D03*
X144780000Y-88138000D03*
X146812000Y-91186000D03*
X147828000Y-89154000D03*
X156718000Y-84074000D03*
X155956000Y-77216000D03*
X145796000Y-88138000D03*
X156718000Y-85598000D03*
X157480000Y-77216000D03*
%TO.N,BTN*%
X151892000Y-89408000D03*
%TO.N,+5V*%
X160020000Y-106172000D03*
X158750000Y-79248000D03*
X151765000Y-78105000D03*
X135890000Y-78486000D03*
X143256000Y-79248000D03*
X155702000Y-101092000D03*
%TO.N,+12V*%
X140716000Y-109794000D03*
X138557000Y-107823000D03*
%TO.N,A-*%
X140081000Y-105776000D03*
X156718000Y-88900000D03*
%TO.N,B+*%
X142240000Y-108204000D03*
%TO.N,B-*%
X150622000Y-106934000D03*
%TO.N,A+*%
X140510380Y-108155620D03*
%TO.N,Net-(U2-FB)*%
X153416000Y-105918000D03*
X154178000Y-109728000D03*
%TO.N,DIAG*%
X140208000Y-83312000D03*
X142518000Y-97282000D03*
%TO.N,EN*%
X151638000Y-99822000D03*
X151638000Y-102108000D03*
%TO.N,DIR*%
X135128000Y-85344000D03*
X137668000Y-103124000D03*
%TO.N,STP*%
X138430000Y-102108000D03*
X135890000Y-82538000D03*
%TO.N,RX*%
X141478000Y-99568000D03*
X151638000Y-94488000D03*
X136906000Y-96774000D03*
%TO.N,Net-(U3-VCP)*%
X139192000Y-100330000D03*
X146812000Y-102362000D03*
%TO.N,Net-(U3-BRB)*%
X143518000Y-108196000D03*
X140716000Y-110998000D03*
%TO.N,+3.3V*%
X131826000Y-79756000D03*
X141478000Y-80010000D03*
X135636000Y-79756000D03*
%TD*%
D35*
%TO.N,GND*%
X159512000Y-102494500D02*
X159512000Y-101832001D01*
D36*
X156968000Y-81784000D02*
X156972000Y-81788000D01*
X151892000Y-83058000D02*
X153166000Y-81784000D01*
X154160000Y-81784000D02*
X156968000Y-81784000D01*
D35*
X141518000Y-101172000D02*
X141518000Y-102672000D01*
X140018000Y-103672000D02*
X141756000Y-103672000D01*
X145018000Y-102172000D02*
X144018000Y-102172000D01*
X144018000Y-102172000D02*
X143280000Y-102910000D01*
X140018000Y-104672000D02*
X141518000Y-104672000D01*
X143018000Y-102648000D02*
X143280000Y-102910000D01*
X143518000Y-99306000D02*
X143764000Y-99060000D01*
X161544000Y-101092000D02*
X162560000Y-101092000D01*
X143518000Y-101346000D02*
X143518000Y-99306000D01*
X159512000Y-101832001D02*
X160252001Y-101092000D01*
X145018000Y-104172000D02*
X143542000Y-104172000D01*
X160252001Y-101092000D02*
X161544000Y-101092000D01*
X141518000Y-102672000D02*
X141756000Y-102910000D01*
X143018000Y-101172000D02*
X143018000Y-102648000D01*
X143542000Y-104172000D02*
X143280000Y-104434000D01*
X141518000Y-104672000D02*
X141756000Y-104434000D01*
D36*
X153166000Y-81784000D02*
X154160000Y-81784000D01*
D35*
%TO.N,BTN*%
X154160000Y-89404000D02*
X151896000Y-89404000D01*
X151896000Y-89404000D02*
X151892000Y-89408000D01*
%TO.N,+5V*%
X153021000Y-78105000D02*
X154160000Y-79244000D01*
D37*
X150876000Y-101092000D02*
X149352000Y-99568000D01*
D35*
X143256000Y-79248000D02*
X143256000Y-78328761D01*
D37*
X159512000Y-104769500D02*
X159512000Y-105664000D01*
X154164000Y-79248000D02*
X154160000Y-79244000D01*
X149352000Y-98552000D02*
X147066000Y-96266000D01*
D35*
X140018000Y-98947000D02*
X140159000Y-98806000D01*
D37*
X140159000Y-97331000D02*
X140159000Y-98806000D01*
X159512000Y-104769500D02*
X158562000Y-104769500D01*
D35*
X151765000Y-78105000D02*
X153021000Y-78105000D01*
D37*
X158732000Y-117112000D02*
X158496000Y-117348000D01*
X158750000Y-79248000D02*
X154164000Y-79248000D01*
X155702000Y-101092000D02*
X150876000Y-101092000D01*
D35*
X140018000Y-102172000D02*
X140018000Y-98947000D01*
X143256000Y-78328761D02*
X142821239Y-77894000D01*
D37*
X147066000Y-96266000D02*
X141224000Y-96266000D01*
D35*
X136482000Y-77894000D02*
X135890000Y-78486000D01*
X142821239Y-77894000D02*
X136482000Y-77894000D01*
D37*
X158562000Y-104769500D02*
X158562000Y-108542000D01*
X158732000Y-108712000D02*
X158732000Y-117112000D01*
X149352000Y-99568000D02*
X149352000Y-98552000D01*
X158562000Y-108542000D02*
X158732000Y-108712000D01*
X159512000Y-105664000D02*
X160020000Y-106172000D01*
X141224000Y-96266000D02*
X140159000Y-97331000D01*
%TO.N,+12V*%
X157812000Y-99218000D02*
X157812000Y-104290000D01*
X134874000Y-107028000D02*
X135288000Y-107442000D01*
X135288000Y-107442000D02*
X138176000Y-107442000D01*
X154712000Y-106400000D02*
X153416000Y-107696000D01*
X143764000Y-115718000D02*
X146050000Y-113432000D01*
D35*
X140764000Y-106426000D02*
X141018000Y-106172000D01*
D37*
X157812000Y-104290000D02*
X155702000Y-106400000D01*
D35*
X144018000Y-106172000D02*
X144018000Y-106426000D01*
D37*
X144780000Y-108204000D02*
X144780000Y-109794000D01*
D35*
X144018000Y-106426000D02*
X145288000Y-107696000D01*
D37*
X140716000Y-109794000D02*
X144780000Y-109794000D01*
X138176000Y-107442000D02*
X138557000Y-107823000D01*
D35*
X139954000Y-106426000D02*
X140764000Y-106426000D01*
D37*
X158732000Y-98298000D02*
X157812000Y-99218000D01*
X146050000Y-109794000D02*
X144780000Y-109794000D01*
X146050000Y-113432000D02*
X146050000Y-109794000D01*
X134874000Y-103020500D02*
X134874000Y-107028000D01*
D35*
X138557000Y-107823000D02*
X139954000Y-106426000D01*
X145288000Y-109794000D02*
X144780000Y-109794000D01*
D37*
X153416000Y-107696000D02*
X145288000Y-107696000D01*
X155702000Y-106400000D02*
X154712000Y-106400000D01*
X145288000Y-107696000D02*
X144780000Y-108204000D01*
%TO.N,Net-(D1-A)*%
X143912000Y-121518000D02*
X143764000Y-121518000D01*
X161212000Y-103244500D02*
X160462000Y-102494500D01*
X150246500Y-119512500D02*
X159391500Y-119512500D01*
X159391500Y-119512500D02*
X161212000Y-117692000D01*
X148082000Y-117348000D02*
X150246500Y-119512500D01*
X148082000Y-117348000D02*
X143912000Y-121518000D01*
X161212000Y-117692000D02*
X161212000Y-103244500D01*
D35*
%TO.N,A-*%
X140018000Y-105713000D02*
X140081000Y-105776000D01*
D37*
X156718000Y-88900000D02*
X159472000Y-88900000D01*
D35*
X140018000Y-105172000D02*
X140018000Y-105713000D01*
D37*
X159472000Y-88900000D02*
X160020000Y-89448000D01*
D35*
%TO.N,B+*%
X142240000Y-108204000D02*
X143018000Y-107426000D01*
X143018000Y-107426000D02*
X143018000Y-106172000D01*
%TO.N,B-*%
X150622000Y-106934000D02*
X146558000Y-106934000D01*
X146558000Y-106934000D02*
X145018000Y-105394000D01*
X145018000Y-105394000D02*
X145018000Y-105246000D01*
%TO.N,A+*%
X140510380Y-108155620D02*
X140831627Y-108155620D01*
X142018000Y-106969247D02*
X142018000Y-106172000D01*
X140831627Y-108155620D02*
X142018000Y-106969247D01*
D37*
%TO.N,Net-(U2-FB)*%
X159882000Y-100609316D02*
X158562000Y-101929316D01*
X159478878Y-96148000D02*
X159882000Y-96551122D01*
X159882000Y-96551122D02*
X159882000Y-100609316D01*
X158562000Y-101929316D02*
X158562000Y-102494500D01*
X153416000Y-105918000D02*
X153416000Y-105156000D01*
X153416000Y-105156000D02*
X155702000Y-102870000D01*
X157112000Y-101232000D02*
X155702000Y-102642000D01*
X155702000Y-102870000D02*
X155702000Y-102642000D01*
X154178000Y-109728000D02*
X155474000Y-109728000D01*
X155474000Y-109728000D02*
X155702000Y-109500000D01*
X157112000Y-101232000D02*
X157112000Y-97021122D01*
X157112000Y-97021122D02*
X157985122Y-96148000D01*
X157985122Y-96148000D02*
X159478878Y-96148000D01*
D35*
%TO.N,TX*%
X137995000Y-94484000D02*
X137164000Y-94484000D01*
X132526500Y-99121500D02*
X130556000Y-99121500D01*
X137164000Y-94484000D02*
X132526500Y-99121500D01*
%TO.N,DIAG*%
X142518000Y-101346000D02*
X142518000Y-97282000D01*
X139370000Y-79244000D02*
X137995000Y-79244000D01*
X140208000Y-83312000D02*
X140208000Y-80082000D01*
X140208000Y-80082000D02*
X139370000Y-79244000D01*
D38*
%TO.N,EN*%
X151638000Y-99822000D02*
X150988000Y-99172000D01*
X150988000Y-88534000D02*
X152658000Y-86864000D01*
X149838000Y-105432000D02*
X146210254Y-105432000D01*
X146210254Y-105432000D02*
X145450254Y-104672000D01*
X150988000Y-99172000D02*
X150988000Y-88534000D01*
X151638000Y-103632000D02*
X149838000Y-105432000D01*
X145450254Y-104672000D02*
X145018000Y-104672000D01*
X151638000Y-102108000D02*
X151638000Y-103632000D01*
X152658000Y-86864000D02*
X154160000Y-86864000D01*
D35*
%TO.N,DIR*%
X135128000Y-85344000D02*
X135648000Y-84824000D01*
X135648000Y-84824000D02*
X137995000Y-84824000D01*
X138753000Y-83566000D02*
X137995000Y-84324000D01*
X137668000Y-103124000D02*
X138379860Y-103124000D01*
X139427860Y-104172000D02*
X138379860Y-103124000D01*
X137995000Y-84324000D02*
X137950646Y-84324000D01*
X140018000Y-104172000D02*
X139427860Y-104172000D01*
%TO.N,STP*%
X140018000Y-102672000D02*
X138994000Y-102672000D01*
X135890000Y-82538000D02*
X137241000Y-82538000D01*
X137241000Y-82538000D02*
X137995000Y-81784000D01*
X138994000Y-102672000D02*
X138430000Y-102108000D01*
X138430000Y-102108000D02*
X138587239Y-102108000D01*
%TO.N,SDA*%
X137995000Y-89404000D02*
X137950646Y-89404000D01*
X137995000Y-89404000D02*
X137595000Y-89804000D01*
X137595000Y-89804000D02*
X132981000Y-89804000D01*
X132981000Y-89804000D02*
X131589000Y-88412000D01*
%TO.N,RX*%
X136906000Y-96774000D02*
X135828500Y-96774000D01*
X141018000Y-100028000D02*
X141478000Y-99568000D01*
X141018000Y-101346000D02*
X141018000Y-100028000D01*
X135828500Y-96774000D02*
X130556000Y-102046500D01*
X151638000Y-94488000D02*
X154156000Y-94488000D01*
X154156000Y-94488000D02*
X154160000Y-94484000D01*
%TO.N,SCL*%
X137995000Y-91944000D02*
X136983000Y-90932000D01*
X131609000Y-90932000D02*
X131589000Y-90912000D01*
X136983000Y-90932000D02*
X131609000Y-90932000D01*
%TO.N,Net-(U3-CPO)*%
X147934000Y-103672000D02*
X145018000Y-103672000D01*
X148590000Y-104328000D02*
X147934000Y-103672000D01*
%TO.N,Net-(U3-CPI)*%
X147846000Y-103172000D02*
X145018000Y-103172000D01*
X148590000Y-102428000D02*
X147846000Y-103172000D01*
%TO.N,Net-(U3-VCP)*%
X138326500Y-101195500D02*
X134874000Y-101195500D01*
X146502000Y-102672000D02*
X146812000Y-102362000D01*
X145018000Y-102672000D02*
X146502000Y-102672000D01*
X139192000Y-100330000D02*
X138326500Y-101195500D01*
%TO.N,Net-(U3-5VOUT)*%
X145083000Y-98806000D02*
X145608000Y-98806000D01*
X144018000Y-99871000D02*
X145083000Y-98806000D01*
X144018000Y-101346000D02*
X144018000Y-99871000D01*
%TO.N,Net-(U3-BRA)*%
X139890380Y-107505620D02*
X136906000Y-110490000D01*
X140774520Y-107505620D02*
X139890380Y-107505620D01*
X136906000Y-110490000D02*
X136906000Y-112075500D01*
X141518000Y-106762140D02*
X140774520Y-107505620D01*
X141518000Y-106762140D02*
X141518000Y-106172000D01*
%TO.N,Net-(U3-BRB)*%
X140523500Y-110998000D02*
X139446000Y-112075500D01*
X143518000Y-108196000D02*
X143518000Y-106172000D01*
X140716000Y-110998000D02*
X140523500Y-110998000D01*
%TO.N,+3.3V*%
X141478000Y-80010000D02*
X141478000Y-81707057D01*
X151230761Y-84324000D02*
X154160000Y-84324000D01*
X144282943Y-84512000D02*
X151042761Y-84512000D01*
X151042761Y-84512000D02*
X151230761Y-84324000D01*
X131826000Y-79756000D02*
X135636000Y-79756000D01*
X141478000Y-81707057D02*
X144282943Y-84512000D01*
%TD*%
%TA.AperFunction,Conductor*%
%TO.N,GND*%
G36*
X127705703Y-79619532D02*
G01*
X127734596Y-79656194D01*
X127806186Y-79794356D01*
X127965903Y-80020623D01*
X128154942Y-80223035D01*
X128369782Y-80397821D01*
X128369784Y-80397822D01*
X128369785Y-80397823D01*
X128606423Y-80541725D01*
X128779917Y-80617083D01*
X128860452Y-80652065D01*
X129127141Y-80726788D01*
X129368364Y-80759942D01*
X129401519Y-80764500D01*
X129401520Y-80764500D01*
X129678481Y-80764500D01*
X129708061Y-80760434D01*
X129952859Y-80726788D01*
X130219548Y-80652065D01*
X130473578Y-80541724D01*
X130710218Y-80397821D01*
X130925058Y-80223035D01*
X130963975Y-80181363D01*
X131024117Y-80145805D01*
X131093939Y-80148406D01*
X131151270Y-80188342D01*
X131159592Y-80200027D01*
X131196182Y-80258260D01*
X131196184Y-80258262D01*
X131323738Y-80385816D01*
X131386904Y-80425506D01*
X131441054Y-80459531D01*
X131476478Y-80481789D01*
X131529757Y-80500432D01*
X131646745Y-80541368D01*
X131646750Y-80541369D01*
X131825996Y-80561565D01*
X131826000Y-80561565D01*
X131826004Y-80561565D01*
X132005249Y-80541369D01*
X132005251Y-80541368D01*
X132005255Y-80541368D01*
X132005258Y-80541366D01*
X132005262Y-80541366D01*
X132123375Y-80500036D01*
X132175522Y-80481789D01*
X132265096Y-80425505D01*
X132331068Y-80406500D01*
X135130932Y-80406500D01*
X135196904Y-80425506D01*
X135286477Y-80481789D01*
X135286481Y-80481790D01*
X135456737Y-80541366D01*
X135456743Y-80541367D01*
X135456745Y-80541368D01*
X135456746Y-80541368D01*
X135456750Y-80541369D01*
X135635996Y-80561565D01*
X135636000Y-80561565D01*
X135636004Y-80561565D01*
X135815249Y-80541369D01*
X135815252Y-80541368D01*
X135815255Y-80541368D01*
X135985522Y-80481789D01*
X136138262Y-80385816D01*
X136159165Y-80364912D01*
X136220484Y-80331429D01*
X136290175Y-80336412D01*
X136342946Y-80374234D01*
X136393015Y-80435639D01*
X136420124Y-80500036D01*
X136408115Y-80568865D01*
X136393015Y-80592361D01*
X136283405Y-80726788D01*
X136280302Y-80730593D01*
X136258673Y-80772000D01*
X136186089Y-80910954D01*
X136130114Y-81106583D01*
X136130113Y-81106586D01*
X136119500Y-81225966D01*
X136119500Y-81619537D01*
X136099815Y-81686576D01*
X136047011Y-81732331D01*
X135981617Y-81742757D01*
X135890004Y-81732435D01*
X135889996Y-81732435D01*
X135710750Y-81752630D01*
X135710745Y-81752631D01*
X135540476Y-81812211D01*
X135387737Y-81908184D01*
X135260184Y-82035737D01*
X135164211Y-82188476D01*
X135104631Y-82358745D01*
X135104630Y-82358750D01*
X135084435Y-82537996D01*
X135084435Y-82538003D01*
X135104630Y-82717249D01*
X135104631Y-82717254D01*
X135164211Y-82887523D01*
X135219329Y-82975242D01*
X135260184Y-83040262D01*
X135387738Y-83167816D01*
X135540478Y-83263789D01*
X135678246Y-83311996D01*
X135710745Y-83323368D01*
X135710750Y-83323369D01*
X135889996Y-83343565D01*
X135890000Y-83343565D01*
X135890004Y-83343565D01*
X136043654Y-83326253D01*
X136112475Y-83338308D01*
X136163855Y-83385657D01*
X136181479Y-83453267D01*
X136176753Y-83483584D01*
X136152538Y-83568213D01*
X136131240Y-83642649D01*
X136130114Y-83646583D01*
X136130113Y-83646586D01*
X136122607Y-83731016D01*
X136121139Y-83747535D01*
X136119500Y-83765966D01*
X136119500Y-84049500D01*
X136099815Y-84116539D01*
X136047011Y-84162294D01*
X135995500Y-84173500D01*
X135583929Y-84173500D01*
X135458261Y-84198497D01*
X135458255Y-84198499D01*
X135339874Y-84247534D01*
X135233331Y-84318723D01*
X135029775Y-84522278D01*
X134968452Y-84555762D01*
X134955988Y-84557815D01*
X134948752Y-84558630D01*
X134948744Y-84558632D01*
X134778478Y-84618210D01*
X134625737Y-84714184D01*
X134498184Y-84841737D01*
X134402211Y-84994476D01*
X134342631Y-85164745D01*
X134342630Y-85164750D01*
X134322435Y-85343996D01*
X134322435Y-85344003D01*
X134342630Y-85523249D01*
X134342631Y-85523254D01*
X134402211Y-85693523D01*
X134433293Y-85742989D01*
X134498184Y-85846262D01*
X134625738Y-85973816D01*
X134653013Y-85990954D01*
X134775969Y-86068213D01*
X134778478Y-86069789D01*
X134948745Y-86129368D01*
X134948750Y-86129369D01*
X135127996Y-86149565D01*
X135128000Y-86149565D01*
X135128004Y-86149565D01*
X135307249Y-86129369D01*
X135307252Y-86129368D01*
X135307255Y-86129368D01*
X135477522Y-86069789D01*
X135630262Y-85973816D01*
X135757816Y-85846262D01*
X135853789Y-85693522D01*
X135901369Y-85557545D01*
X135942091Y-85500770D01*
X136007043Y-85475022D01*
X136018411Y-85474500D01*
X136293244Y-85474500D01*
X136360283Y-85494185D01*
X136406038Y-85546989D01*
X136415982Y-85616147D01*
X136389346Y-85676861D01*
X136280304Y-85810590D01*
X136186089Y-85990954D01*
X136146485Y-86129368D01*
X136136734Y-86163448D01*
X136130114Y-86186583D01*
X136130113Y-86186586D01*
X136119500Y-86305966D01*
X136119500Y-87422028D01*
X136119501Y-87422034D01*
X136130113Y-87541415D01*
X136186089Y-87737045D01*
X136186090Y-87737048D01*
X136186091Y-87737049D01*
X136280302Y-87917407D01*
X136280304Y-87917409D01*
X136393015Y-88055639D01*
X136420124Y-88120036D01*
X136408115Y-88188865D01*
X136393015Y-88212361D01*
X136316897Y-88305713D01*
X136280302Y-88350593D01*
X136255676Y-88397738D01*
X136186089Y-88530954D01*
X136156031Y-88636005D01*
X136132709Y-88717515D01*
X136130114Y-88726583D01*
X136130113Y-88726586D01*
X136119500Y-88845966D01*
X136119500Y-89029500D01*
X136099815Y-89096539D01*
X136047011Y-89142294D01*
X135995500Y-89153500D01*
X133301808Y-89153500D01*
X133234769Y-89133815D01*
X133214127Y-89117181D01*
X133034443Y-88937497D01*
X133000958Y-88876174D01*
X133004193Y-88811498D01*
X133031246Y-88728243D01*
X133064500Y-88518287D01*
X133064500Y-88305713D01*
X133031246Y-88095757D01*
X132965557Y-87893588D01*
X132869051Y-87704184D01*
X132869049Y-87704181D01*
X132869048Y-87704179D01*
X132744109Y-87532213D01*
X132605294Y-87393398D01*
X132571809Y-87332075D01*
X132576793Y-87262383D01*
X132618665Y-87206450D01*
X132627879Y-87200178D01*
X132633331Y-87196814D01*
X132633334Y-87196814D01*
X132782656Y-87104712D01*
X132906712Y-86980656D01*
X132998814Y-86831334D01*
X133053999Y-86664797D01*
X133064500Y-86562009D01*
X133064499Y-85261992D01*
X133061005Y-85227792D01*
X133053999Y-85159203D01*
X133053998Y-85159200D01*
X133046807Y-85137500D01*
X132998814Y-84992666D01*
X132906712Y-84843344D01*
X132782656Y-84719288D01*
X132633334Y-84627186D01*
X132466797Y-84572001D01*
X132466795Y-84572000D01*
X132364010Y-84561500D01*
X130813998Y-84561500D01*
X130813981Y-84561501D01*
X130711203Y-84572000D01*
X130711200Y-84572001D01*
X130544668Y-84627185D01*
X130544663Y-84627187D01*
X130395342Y-84719289D01*
X130271289Y-84843342D01*
X130179187Y-84992663D01*
X130179185Y-84992668D01*
X130161185Y-85046989D01*
X130124001Y-85159203D01*
X130124001Y-85159204D01*
X130124000Y-85159204D01*
X130113500Y-85261983D01*
X130113500Y-86562001D01*
X130113501Y-86562018D01*
X130124000Y-86664796D01*
X130124001Y-86664799D01*
X130179185Y-86831331D01*
X130179187Y-86831336D01*
X130271289Y-86980657D01*
X130395344Y-87104712D01*
X130550120Y-87200178D01*
X130596845Y-87252126D01*
X130608068Y-87321088D01*
X130580224Y-87385171D01*
X130572706Y-87393398D01*
X130433889Y-87532215D01*
X130308951Y-87704179D01*
X130212444Y-87893585D01*
X130146753Y-88095760D01*
X130113500Y-88305713D01*
X130113500Y-88518286D01*
X130146753Y-88728239D01*
X130146753Y-88728241D01*
X130146754Y-88728243D01*
X130212175Y-88929588D01*
X130212444Y-88930414D01*
X130308951Y-89119820D01*
X130433890Y-89291786D01*
X130584209Y-89442105D01*
X130584214Y-89442109D01*
X130748793Y-89561682D01*
X130791459Y-89617011D01*
X130797438Y-89686625D01*
X130764833Y-89748420D01*
X130748793Y-89762318D01*
X130584214Y-89881890D01*
X130584209Y-89881894D01*
X130433890Y-90032213D01*
X130308951Y-90204179D01*
X130212444Y-90393585D01*
X130146753Y-90595760D01*
X130121486Y-90755289D01*
X130113500Y-90805713D01*
X130113500Y-91018287D01*
X130146754Y-91228243D01*
X130198003Y-91385971D01*
X130212444Y-91430414D01*
X130308951Y-91619820D01*
X130433890Y-91791786D01*
X130584209Y-91942105D01*
X130584214Y-91942109D01*
X130749218Y-92061991D01*
X130791884Y-92117320D01*
X130797863Y-92186934D01*
X130765258Y-92248729D01*
X130749218Y-92262627D01*
X130584540Y-92382272D01*
X130584535Y-92382276D01*
X130434276Y-92532535D01*
X130434272Y-92532540D01*
X130309379Y-92704442D01*
X130212904Y-92893782D01*
X130147242Y-93095870D01*
X130147242Y-93095873D01*
X130136769Y-93162000D01*
X131184854Y-93162000D01*
X131146370Y-93228657D01*
X131114000Y-93349465D01*
X131114000Y-93474535D01*
X131146370Y-93595343D01*
X131184854Y-93662000D01*
X130136769Y-93662000D01*
X130147242Y-93728126D01*
X130147242Y-93728129D01*
X130212904Y-93930217D01*
X130309379Y-94119557D01*
X130434272Y-94291459D01*
X130434276Y-94291464D01*
X130584535Y-94441723D01*
X130584540Y-94441727D01*
X130756442Y-94566620D01*
X130945782Y-94663095D01*
X131147872Y-94728757D01*
X131339000Y-94759029D01*
X131339000Y-93816145D01*
X131405657Y-93854630D01*
X131526465Y-93887000D01*
X131651535Y-93887000D01*
X131772343Y-93854630D01*
X131839000Y-93816145D01*
X131839000Y-94759028D01*
X132030127Y-94728757D01*
X132232217Y-94663095D01*
X132421557Y-94566620D01*
X132593459Y-94441727D01*
X132593464Y-94441723D01*
X132743723Y-94291464D01*
X132743727Y-94291459D01*
X132868620Y-94119557D01*
X132965095Y-93930217D01*
X133030757Y-93728129D01*
X133030757Y-93728126D01*
X133041231Y-93662000D01*
X131993146Y-93662000D01*
X132031630Y-93595343D01*
X132064000Y-93474535D01*
X132064000Y-93349465D01*
X132031630Y-93228657D01*
X131993146Y-93162000D01*
X133041231Y-93162000D01*
X133030757Y-93095873D01*
X133030757Y-93095870D01*
X132965095Y-92893782D01*
X132868620Y-92704442D01*
X132743727Y-92532540D01*
X132743723Y-92532535D01*
X132593464Y-92382276D01*
X132593459Y-92382272D01*
X132428781Y-92262627D01*
X132386115Y-92207297D01*
X132380136Y-92137684D01*
X132412741Y-92075889D01*
X132428776Y-92061994D01*
X132593792Y-91942104D01*
X132744104Y-91791792D01*
X132859026Y-91633614D01*
X132914355Y-91590949D01*
X132959344Y-91582500D01*
X135995500Y-91582500D01*
X136062539Y-91602185D01*
X136108294Y-91654989D01*
X136119500Y-91706500D01*
X136119500Y-92502028D01*
X136119501Y-92502034D01*
X136130113Y-92621415D01*
X136186089Y-92817045D01*
X136186090Y-92817048D01*
X136186091Y-92817049D01*
X136280302Y-92997407D01*
X136341438Y-93072385D01*
X136393015Y-93135639D01*
X136420124Y-93200036D01*
X136408115Y-93268865D01*
X136393015Y-93292361D01*
X136280304Y-93430590D01*
X136186089Y-93610954D01*
X136130114Y-93806583D01*
X136130113Y-93806586D01*
X136119500Y-93925966D01*
X136119500Y-94557191D01*
X136099815Y-94624230D01*
X136083181Y-94644872D01*
X132293373Y-98434681D01*
X132232050Y-98468166D01*
X132205692Y-98471000D01*
X131923508Y-98471000D01*
X131856469Y-98451315D01*
X131817969Y-98412097D01*
X131805574Y-98392001D01*
X131773712Y-98340344D01*
X131649656Y-98216288D01*
X131500334Y-98124186D01*
X131333797Y-98069001D01*
X131333795Y-98069000D01*
X131231010Y-98058500D01*
X129880998Y-98058500D01*
X129880981Y-98058501D01*
X129778203Y-98069000D01*
X129778200Y-98069001D01*
X129611668Y-98124185D01*
X129611663Y-98124187D01*
X129462342Y-98216289D01*
X129338289Y-98340342D01*
X129246187Y-98489663D01*
X129246186Y-98489666D01*
X129191001Y-98656203D01*
X129191001Y-98656204D01*
X129191000Y-98656204D01*
X129180500Y-98758983D01*
X129180500Y-99484001D01*
X129180501Y-99484019D01*
X129191000Y-99586796D01*
X129191001Y-99586799D01*
X129246185Y-99753331D01*
X129246187Y-99753336D01*
X129266900Y-99786917D01*
X129338288Y-99902656D01*
X129462344Y-100026712D01*
X129611666Y-100118814D01*
X129778203Y-100173999D01*
X129880991Y-100184500D01*
X131198692Y-100184499D01*
X131265731Y-100204184D01*
X131311486Y-100256987D01*
X131321430Y-100326146D01*
X131292405Y-100389702D01*
X131286373Y-100396180D01*
X130735371Y-100947181D01*
X130674048Y-100980666D01*
X130647690Y-100983500D01*
X129880998Y-100983500D01*
X129880980Y-100983501D01*
X129778203Y-100994000D01*
X129778200Y-100994001D01*
X129611668Y-101049185D01*
X129611663Y-101049187D01*
X129462342Y-101141289D01*
X129338289Y-101265342D01*
X129246187Y-101414663D01*
X129246185Y-101414668D01*
X129231326Y-101459511D01*
X129191001Y-101581203D01*
X129191001Y-101581204D01*
X129191000Y-101581204D01*
X129180500Y-101683983D01*
X129180500Y-102409001D01*
X129180501Y-102409019D01*
X129191000Y-102511796D01*
X129191001Y-102511799D01*
X129246185Y-102678331D01*
X129246187Y-102678336D01*
X129264478Y-102707991D01*
X129338288Y-102827656D01*
X129462344Y-102951712D01*
X129611666Y-103043814D01*
X129778203Y-103098999D01*
X129880991Y-103109500D01*
X131231008Y-103109499D01*
X131333797Y-103098999D01*
X131500334Y-103043814D01*
X131649656Y-102951712D01*
X131773712Y-102827656D01*
X131865814Y-102678334D01*
X131920999Y-102511797D01*
X131931500Y-102409009D01*
X131931499Y-101683992D01*
X131928863Y-101658187D01*
X131941633Y-101589494D01*
X131964537Y-101557907D01*
X134016459Y-99505986D01*
X136134001Y-99505986D01*
X136144494Y-99608697D01*
X136199641Y-99775119D01*
X136199643Y-99775124D01*
X136291684Y-99924345D01*
X136415654Y-100048315D01*
X136564875Y-100140356D01*
X136564880Y-100140358D01*
X136731302Y-100195505D01*
X136731309Y-100195506D01*
X136834019Y-100205999D01*
X136958999Y-100205999D01*
X137459000Y-100205999D01*
X137583972Y-100205999D01*
X137583986Y-100205998D01*
X137686697Y-100195505D01*
X137853119Y-100140358D01*
X137853124Y-100140356D01*
X138002345Y-100048315D01*
X138126315Y-99924345D01*
X138218356Y-99775124D01*
X138218358Y-99775119D01*
X138273505Y-99608697D01*
X138273506Y-99608690D01*
X138283999Y-99505986D01*
X138284000Y-99505973D01*
X138284000Y-99056000D01*
X137459000Y-99056000D01*
X137459000Y-100205999D01*
X136958999Y-100205999D01*
X136959000Y-100205998D01*
X136959000Y-99056000D01*
X136134001Y-99056000D01*
X136134001Y-99505986D01*
X134016459Y-99505986D01*
X136061627Y-97460819D01*
X136122950Y-97427334D01*
X136149308Y-97424500D01*
X136255477Y-97424500D01*
X136322516Y-97444185D01*
X136368271Y-97496989D01*
X136378215Y-97566147D01*
X136349190Y-97629703D01*
X136343158Y-97636181D01*
X136291684Y-97687654D01*
X136199643Y-97836875D01*
X136199641Y-97836880D01*
X136144494Y-98003302D01*
X136144493Y-98003309D01*
X136134000Y-98106013D01*
X136134000Y-98556000D01*
X138283999Y-98556000D01*
X138283999Y-98106028D01*
X138283998Y-98106013D01*
X138273505Y-98003302D01*
X138218358Y-97836880D01*
X138218356Y-97836875D01*
X138126315Y-97687654D01*
X138002345Y-97563684D01*
X137853124Y-97471643D01*
X137853119Y-97471641D01*
X137686697Y-97416494D01*
X137686691Y-97416493D01*
X137660722Y-97413840D01*
X137596031Y-97387442D01*
X137555881Y-97330261D01*
X137553019Y-97260450D01*
X137568332Y-97224511D01*
X137631789Y-97123522D01*
X137691368Y-96953255D01*
X137692050Y-96947201D01*
X137711565Y-96774003D01*
X137711565Y-96773996D01*
X137691369Y-96594750D01*
X137691368Y-96594745D01*
X137668317Y-96528869D01*
X137631789Y-96424478D01*
X137535816Y-96271738D01*
X137460258Y-96196180D01*
X137426773Y-96134857D01*
X137431757Y-96065165D01*
X137473629Y-96009232D01*
X137539093Y-95984815D01*
X137547918Y-95984499D01*
X138928036Y-95984499D01*
X139047418Y-95973886D01*
X139243049Y-95917909D01*
X139423407Y-95823698D01*
X139581109Y-95695109D01*
X139709698Y-95537407D01*
X139803909Y-95357049D01*
X139859886Y-95161418D01*
X139870500Y-95042037D01*
X139870499Y-93925964D01*
X139859886Y-93806582D01*
X139803909Y-93610951D01*
X139709698Y-93430593D01*
X139596983Y-93292359D01*
X139569875Y-93227965D01*
X139581884Y-93159135D01*
X139596981Y-93135642D01*
X139709698Y-92997407D01*
X139803909Y-92817049D01*
X139859886Y-92621418D01*
X139870500Y-92502037D01*
X139870499Y-91385964D01*
X139859886Y-91266582D01*
X139803909Y-91070951D01*
X139709698Y-90890593D01*
X139596983Y-90752359D01*
X139569875Y-90687965D01*
X139581884Y-90619135D01*
X139596981Y-90595642D01*
X139709698Y-90457407D01*
X139803909Y-90277049D01*
X139859886Y-90081418D01*
X139870500Y-89962037D01*
X139870499Y-88845964D01*
X139859886Y-88726582D01*
X139803909Y-88530951D01*
X139709698Y-88350593D01*
X139596983Y-88212359D01*
X139569875Y-88147965D01*
X139581884Y-88079135D01*
X139596983Y-88055641D01*
X139709698Y-87917407D01*
X139803909Y-87737049D01*
X139859886Y-87541418D01*
X139870500Y-87422037D01*
X139870499Y-87393584D01*
X139890181Y-87326548D01*
X139942984Y-87280791D01*
X140012142Y-87270846D01*
X140075699Y-87299868D01*
X140082180Y-87305903D01*
X140143424Y-87367147D01*
X140291394Y-87460122D01*
X140456343Y-87517841D01*
X140456349Y-87517841D01*
X140456351Y-87517842D01*
X140497750Y-87522506D01*
X140586442Y-87532499D01*
X140586445Y-87532500D01*
X140586448Y-87532500D01*
X142623555Y-87532500D01*
X142623556Y-87532499D01*
X142753657Y-87517841D01*
X142918606Y-87460122D01*
X143066576Y-87367147D01*
X143190147Y-87243576D01*
X143283122Y-87095606D01*
X143340841Y-86930657D01*
X143355500Y-86800552D01*
X143355500Y-86163448D01*
X143340841Y-86033343D01*
X143283122Y-85868394D01*
X143190147Y-85720424D01*
X143086904Y-85617181D01*
X143053419Y-85555858D01*
X143058403Y-85486166D01*
X143086904Y-85441819D01*
X143190147Y-85338576D01*
X143283122Y-85190606D01*
X143340841Y-85025657D01*
X143355500Y-84895552D01*
X143355500Y-84803865D01*
X143375185Y-84736826D01*
X143427989Y-84691071D01*
X143497147Y-84681127D01*
X143560703Y-84710152D01*
X143567181Y-84716184D01*
X143868267Y-85017271D01*
X143868270Y-85017274D01*
X143946948Y-85069845D01*
X143946949Y-85069845D01*
X143946952Y-85069847D01*
X143974815Y-85088465D01*
X144023851Y-85108776D01*
X144093199Y-85137501D01*
X144093203Y-85137501D01*
X144093204Y-85137502D01*
X144218871Y-85162500D01*
X144218874Y-85162500D01*
X151106832Y-85162500D01*
X151191376Y-85145682D01*
X151232505Y-85137501D01*
X151350888Y-85088465D01*
X151378755Y-85069845D01*
X151457430Y-85017277D01*
X151457436Y-85017271D01*
X151463889Y-85010819D01*
X151525212Y-84977334D01*
X151551570Y-84974500D01*
X152193917Y-84974500D01*
X152260956Y-84994185D01*
X152306711Y-85046989D01*
X152313129Y-85064379D01*
X152330902Y-85126494D01*
X152351089Y-85197045D01*
X152351090Y-85197048D01*
X152351091Y-85197049D01*
X152445302Y-85377407D01*
X152445304Y-85377409D01*
X152558015Y-85515639D01*
X152585124Y-85580036D01*
X152573115Y-85648865D01*
X152558015Y-85672361D01*
X152445304Y-85810590D01*
X152351089Y-85990954D01*
X152311485Y-86129368D01*
X152301734Y-86163448D01*
X152295114Y-86186583D01*
X152295113Y-86186586D01*
X152284500Y-86305966D01*
X152284500Y-86336901D01*
X152264815Y-86403940D01*
X152248181Y-86424582D01*
X150619286Y-88053478D01*
X150507481Y-88165282D01*
X150507477Y-88165287D01*
X150488591Y-88198000D01*
X150458858Y-88249500D01*
X150428423Y-88302215D01*
X150387499Y-88454943D01*
X150387499Y-88454945D01*
X150387499Y-88623046D01*
X150387500Y-88623059D01*
X150387500Y-99085330D01*
X150387499Y-99085348D01*
X150387499Y-99242769D01*
X150367814Y-99309808D01*
X150315010Y-99355563D01*
X150245852Y-99365507D01*
X150182296Y-99336482D01*
X150175818Y-99330450D01*
X150138819Y-99293451D01*
X150105334Y-99232128D01*
X150102500Y-99205770D01*
X150102500Y-98478079D01*
X150073659Y-98333092D01*
X150073658Y-98333091D01*
X150073658Y-98333087D01*
X150025279Y-98216289D01*
X150017087Y-98196511D01*
X150017080Y-98196498D01*
X149934952Y-98073585D01*
X149909367Y-98048000D01*
X149830416Y-97969049D01*
X149265183Y-97403816D01*
X147544421Y-95683052D01*
X147544414Y-95683046D01*
X147470729Y-95633812D01*
X147470729Y-95633813D01*
X147421491Y-95600913D01*
X147284917Y-95544343D01*
X147284907Y-95544340D01*
X147139920Y-95515500D01*
X147139918Y-95515500D01*
X141150082Y-95515500D01*
X141150080Y-95515500D01*
X141005092Y-95544340D01*
X141005082Y-95544343D01*
X140868511Y-95600912D01*
X140868498Y-95600919D01*
X140745584Y-95683048D01*
X140745580Y-95683051D01*
X139576045Y-96852586D01*
X139545371Y-96898497D01*
X139545369Y-96898500D01*
X139493919Y-96975498D01*
X139493912Y-96975511D01*
X139437343Y-97112082D01*
X139437340Y-97112092D01*
X139408500Y-97257079D01*
X139408500Y-97469132D01*
X139388815Y-97536171D01*
X139369616Y-97557346D01*
X139370451Y-97558181D01*
X139241289Y-97687342D01*
X139149187Y-97836663D01*
X139149185Y-97836668D01*
X139139038Y-97867290D01*
X139094001Y-98003203D01*
X139094001Y-98003204D01*
X139094000Y-98003204D01*
X139083500Y-98105983D01*
X139083500Y-99431891D01*
X139063815Y-99498930D01*
X139011011Y-99544685D01*
X139000457Y-99548931D01*
X138974886Y-99557879D01*
X138842478Y-99604210D01*
X138689737Y-99700184D01*
X138562184Y-99827737D01*
X138466210Y-99980478D01*
X138406632Y-100150744D01*
X138406630Y-100150752D01*
X138405815Y-100157988D01*
X138378743Y-100222400D01*
X138370277Y-100231775D01*
X138093371Y-100508682D01*
X138032051Y-100542166D01*
X138005692Y-100545000D01*
X136035668Y-100545000D01*
X135968629Y-100525315D01*
X135930130Y-100486097D01*
X135916714Y-100464347D01*
X135916711Y-100464343D01*
X135792657Y-100340289D01*
X135792656Y-100340288D01*
X135643334Y-100248186D01*
X135476797Y-100193001D01*
X135476795Y-100193000D01*
X135374010Y-100182500D01*
X134373998Y-100182500D01*
X134373980Y-100182501D01*
X134271203Y-100193000D01*
X134271200Y-100193001D01*
X134104668Y-100248185D01*
X134104663Y-100248187D01*
X133955342Y-100340289D01*
X133831289Y-100464342D01*
X133739187Y-100613663D01*
X133739186Y-100613666D01*
X133684001Y-100780203D01*
X133684001Y-100780204D01*
X133684000Y-100780204D01*
X133673500Y-100882983D01*
X133673500Y-101508001D01*
X133673501Y-101508019D01*
X133684000Y-101610796D01*
X133684001Y-101610799D01*
X133724225Y-101732184D01*
X133739186Y-101777334D01*
X133824908Y-101916313D01*
X133831289Y-101926657D01*
X133924951Y-102020319D01*
X133958436Y-102081642D01*
X133953452Y-102151334D01*
X133924951Y-102195681D01*
X133831289Y-102289342D01*
X133739187Y-102438663D01*
X133739185Y-102438668D01*
X133732937Y-102457523D01*
X133684001Y-102605203D01*
X133684001Y-102605204D01*
X133684000Y-102605204D01*
X133673500Y-102707983D01*
X133673500Y-103333001D01*
X133673501Y-103333019D01*
X133684000Y-103435796D01*
X133684001Y-103435799D01*
X133739185Y-103602331D01*
X133739187Y-103602336D01*
X133759157Y-103634712D01*
X133831288Y-103751656D01*
X133955344Y-103875712D01*
X134064597Y-103943099D01*
X134111321Y-103995047D01*
X134123500Y-104048638D01*
X134123500Y-106017500D01*
X134103815Y-106084539D01*
X134051011Y-106130294D01*
X133999500Y-106141500D01*
X133737999Y-106141500D01*
X133737980Y-106141501D01*
X133635203Y-106152000D01*
X133635200Y-106152001D01*
X133468668Y-106207185D01*
X133468663Y-106207187D01*
X133319342Y-106299289D01*
X133195289Y-106423342D01*
X133103187Y-106572663D01*
X133103185Y-106572668D01*
X133087829Y-106619011D01*
X133048001Y-106739203D01*
X133048001Y-106739204D01*
X133048000Y-106739204D01*
X133037500Y-106841983D01*
X133037500Y-108042001D01*
X133037501Y-108042018D01*
X133048000Y-108144796D01*
X133048001Y-108144799D01*
X133103185Y-108311331D01*
X133103187Y-108311336D01*
X133109457Y-108321501D01*
X133195288Y-108460656D01*
X133319344Y-108584712D01*
X133468666Y-108676814D01*
X133635203Y-108731999D01*
X133737991Y-108742500D01*
X136838008Y-108742499D01*
X136940797Y-108731999D01*
X137107334Y-108676814D01*
X137256656Y-108584712D01*
X137380712Y-108460656D01*
X137472814Y-108311334D01*
X137480543Y-108288009D01*
X137484028Y-108277494D01*
X137523801Y-108220050D01*
X137588317Y-108193228D01*
X137601733Y-108192500D01*
X137775232Y-108192500D01*
X137842271Y-108212185D01*
X137880224Y-108250526D01*
X137918434Y-108311336D01*
X137927184Y-108325262D01*
X137951306Y-108349384D01*
X137984791Y-108410707D01*
X137979807Y-108480399D01*
X137951306Y-108524746D01*
X136400726Y-110075326D01*
X136329534Y-110181874D01*
X136280499Y-110300255D01*
X136280497Y-110300261D01*
X136255500Y-110425928D01*
X136255500Y-110888500D01*
X136235815Y-110955539D01*
X136183011Y-111001294D01*
X136131500Y-111012500D01*
X135018998Y-111012500D01*
X135018981Y-111012501D01*
X134916203Y-111023000D01*
X134916200Y-111023001D01*
X134749668Y-111078185D01*
X134749663Y-111078187D01*
X134600342Y-111170289D01*
X134476289Y-111294342D01*
X134384187Y-111443663D01*
X134384186Y-111443666D01*
X134329001Y-111610203D01*
X134329001Y-111610204D01*
X134329000Y-111610204D01*
X134318500Y-111712983D01*
X134318500Y-112438001D01*
X134318501Y-112438019D01*
X134329000Y-112540796D01*
X134329001Y-112540798D01*
X134379767Y-112693998D01*
X134384186Y-112707334D01*
X134476288Y-112856656D01*
X134600344Y-112980712D01*
X134749666Y-113072814D01*
X134916203Y-113127999D01*
X135018991Y-113138500D01*
X137269008Y-113138499D01*
X137371797Y-113127999D01*
X137538334Y-113072814D01*
X137687656Y-112980712D01*
X137707319Y-112961049D01*
X137768642Y-112927564D01*
X137838334Y-112932548D01*
X137882681Y-112961049D01*
X137902344Y-112980712D01*
X138051666Y-113072814D01*
X138218203Y-113127999D01*
X138320991Y-113138500D01*
X140571008Y-113138499D01*
X140673797Y-113127999D01*
X140840334Y-113072814D01*
X140989656Y-112980712D01*
X141113712Y-112856656D01*
X141205814Y-112707334D01*
X141218954Y-112667677D01*
X141258726Y-112610234D01*
X141323242Y-112583410D01*
X141392018Y-112595725D01*
X141401757Y-112601144D01*
X141445869Y-112628353D01*
X141445880Y-112628358D01*
X141612302Y-112683505D01*
X141612309Y-112683506D01*
X141715019Y-112693999D01*
X141989999Y-112693999D01*
X142490000Y-112693999D01*
X142764972Y-112693999D01*
X142764986Y-112693998D01*
X142867697Y-112683505D01*
X143034119Y-112628358D01*
X143034124Y-112628356D01*
X143183345Y-112536315D01*
X143295319Y-112424342D01*
X143356642Y-112390857D01*
X143426334Y-112395841D01*
X143470681Y-112424342D01*
X143582654Y-112536315D01*
X143731875Y-112628356D01*
X143731880Y-112628358D01*
X143898302Y-112683505D01*
X143898309Y-112683506D01*
X144001019Y-112693999D01*
X144275999Y-112693999D01*
X144276000Y-112693998D01*
X144276000Y-111944000D01*
X142490000Y-111944000D01*
X142490000Y-112693999D01*
X141989999Y-112693999D01*
X141990000Y-112693998D01*
X141990000Y-111818000D01*
X142009685Y-111750961D01*
X142062489Y-111705206D01*
X142114000Y-111694000D01*
X142240000Y-111694000D01*
X142240000Y-111568000D01*
X142259685Y-111500961D01*
X142312489Y-111455206D01*
X142364000Y-111444000D01*
X144402000Y-111444000D01*
X144469039Y-111463685D01*
X144514794Y-111516489D01*
X144526000Y-111568000D01*
X144526000Y-111694000D01*
X144652000Y-111694000D01*
X144719039Y-111713685D01*
X144764794Y-111766489D01*
X144776000Y-111818000D01*
X144776000Y-112693999D01*
X145050972Y-112693999D01*
X145050986Y-112693998D01*
X145160431Y-112682818D01*
X145160677Y-112685235D01*
X145219178Y-112689594D01*
X145274987Y-112731631D01*
X145299210Y-112797168D01*
X145299500Y-112805647D01*
X145299500Y-113069770D01*
X145279815Y-113136809D01*
X145263181Y-113157451D01*
X145039451Y-113381181D01*
X144978128Y-113414666D01*
X144951770Y-113417500D01*
X142547277Y-113417500D01*
X142540781Y-113418001D01*
X142536449Y-113418335D01*
X142536444Y-113418336D01*
X142398824Y-113460421D01*
X142398821Y-113460422D01*
X142398820Y-113460423D01*
X142352172Y-113491143D01*
X142278622Y-113539581D01*
X142278619Y-113539584D01*
X142185595Y-113649394D01*
X142127275Y-113780968D01*
X142127273Y-113780976D01*
X142108385Y-113923644D01*
X142108385Y-113923657D01*
X142109339Y-113934454D01*
X142109341Y-113934468D01*
X142464095Y-116062998D01*
X142726437Y-117637048D01*
X142726438Y-117637055D01*
X142756422Y-117733179D01*
X142756423Y-117733180D01*
X142835581Y-117853378D01*
X142945397Y-117946406D01*
X143076973Y-118004726D01*
X143111140Y-118009443D01*
X143176712Y-118018499D01*
X143176725Y-118018500D01*
X144351276Y-118018501D01*
X144451027Y-118004726D01*
X144582603Y-117946406D01*
X144692418Y-117853378D01*
X144771577Y-117733180D01*
X144801562Y-117637051D01*
X145174078Y-115401950D01*
X145204516Y-115339060D01*
X145208690Y-115334676D01*
X146632951Y-113910416D01*
X146715084Y-113787495D01*
X146717786Y-113780973D01*
X146771656Y-113650917D01*
X146771658Y-113650913D01*
X146781096Y-113603462D01*
X146800500Y-113505920D01*
X146800500Y-109727996D01*
X153372435Y-109727996D01*
X153372435Y-109728003D01*
X153392630Y-109907249D01*
X153392631Y-109907254D01*
X153452211Y-110077523D01*
X153493682Y-110143523D01*
X153548184Y-110230262D01*
X153675738Y-110357816D01*
X153766080Y-110414582D01*
X153784137Y-110425928D01*
X153828478Y-110453789D01*
X153998745Y-110513368D01*
X153998750Y-110513369D01*
X154177996Y-110533565D01*
X154178000Y-110533565D01*
X154178004Y-110533565D01*
X154357249Y-110513369D01*
X154357252Y-110513368D01*
X154357255Y-110513368D01*
X154437017Y-110485457D01*
X154477972Y-110478500D01*
X154550137Y-110478500D01*
X154615231Y-110496960D01*
X154757666Y-110584814D01*
X154924203Y-110639999D01*
X155026991Y-110650500D01*
X156377008Y-110650499D01*
X156479797Y-110639999D01*
X156646334Y-110584814D01*
X156795656Y-110492712D01*
X156919712Y-110368656D01*
X157011814Y-110219334D01*
X157066999Y-110052797D01*
X157077500Y-109950009D01*
X157077499Y-109049992D01*
X157076546Y-109040666D01*
X157066999Y-108947203D01*
X157066998Y-108947200D01*
X157045197Y-108881409D01*
X157011814Y-108780666D01*
X156919712Y-108631344D01*
X156795656Y-108507288D01*
X156677803Y-108434596D01*
X156646336Y-108415187D01*
X156646331Y-108415185D01*
X156632817Y-108410707D01*
X156479797Y-108360001D01*
X156479795Y-108360000D01*
X156377010Y-108349500D01*
X155026998Y-108349500D01*
X155026981Y-108349501D01*
X154924203Y-108360000D01*
X154924200Y-108360001D01*
X154757668Y-108415185D01*
X154757663Y-108415187D01*
X154608342Y-108507289D01*
X154484289Y-108631342D01*
X154392187Y-108780663D01*
X154392184Y-108780671D01*
X154370827Y-108845120D01*
X154331054Y-108902564D01*
X154266538Y-108929386D01*
X154239240Y-108929334D01*
X154178004Y-108922435D01*
X154177996Y-108922435D01*
X153998750Y-108942630D01*
X153998745Y-108942631D01*
X153828476Y-109002211D01*
X153675737Y-109098184D01*
X153548184Y-109225737D01*
X153452211Y-109378476D01*
X153392631Y-109548745D01*
X153392630Y-109548750D01*
X153372435Y-109727996D01*
X146800500Y-109727996D01*
X146800500Y-109720079D01*
X146771659Y-109575092D01*
X146771658Y-109575091D01*
X146771658Y-109575087D01*
X146760747Y-109548745D01*
X146715087Y-109438511D01*
X146715080Y-109438498D01*
X146632951Y-109315584D01*
X146632948Y-109315580D01*
X146528419Y-109211051D01*
X146528415Y-109211048D01*
X146405501Y-109128919D01*
X146405488Y-109128912D01*
X146268917Y-109072343D01*
X146268907Y-109072340D01*
X146123920Y-109043500D01*
X146123918Y-109043500D01*
X145654500Y-109043500D01*
X145587461Y-109023815D01*
X145541706Y-108971011D01*
X145530500Y-108919500D01*
X145530500Y-108570500D01*
X145550185Y-108503461D01*
X145602989Y-108457706D01*
X145654500Y-108446500D01*
X153489920Y-108446500D01*
X153587462Y-108427096D01*
X153634913Y-108417658D01*
X153771495Y-108361084D01*
X153830735Y-108321501D01*
X153894416Y-108278952D01*
X154651674Y-107521692D01*
X154712995Y-107488209D01*
X154778352Y-107491668D01*
X154924203Y-107539999D01*
X155026991Y-107550500D01*
X156377008Y-107550499D01*
X156479797Y-107539999D01*
X156646334Y-107484814D01*
X156795656Y-107392712D01*
X156919712Y-107268656D01*
X157011814Y-107119334D01*
X157066999Y-106952797D01*
X157077500Y-106850009D01*
X157077499Y-106137228D01*
X157097183Y-106070190D01*
X157113814Y-106049552D01*
X157599819Y-105563546D01*
X157661142Y-105530062D01*
X157730834Y-105535046D01*
X157786767Y-105576918D01*
X157811184Y-105642382D01*
X157811500Y-105651228D01*
X157811500Y-106619770D01*
X157791815Y-106686809D01*
X157775181Y-106707451D01*
X157689289Y-106793342D01*
X157597187Y-106942662D01*
X157597186Y-106942664D01*
X157597186Y-106942665D01*
X157542001Y-107109202D01*
X157542001Y-107109203D01*
X157542000Y-107109203D01*
X157531500Y-107211982D01*
X157531500Y-110212017D01*
X157542000Y-110314796D01*
X157568909Y-110396000D01*
X157597186Y-110481335D01*
X157689288Y-110630656D01*
X157813344Y-110754712D01*
X157922598Y-110822100D01*
X157969321Y-110874047D01*
X157981500Y-110927638D01*
X157981500Y-115042409D01*
X157961815Y-115109448D01*
X157909011Y-115155203D01*
X157887428Y-115162743D01*
X157809228Y-115182191D01*
X157809221Y-115182194D01*
X157637456Y-115267381D01*
X157637453Y-115267383D01*
X157488010Y-115387509D01*
X157488009Y-115387510D01*
X157367883Y-115536953D01*
X157367881Y-115536956D01*
X157282694Y-115708721D01*
X157236419Y-115894791D01*
X157234334Y-115925543D01*
X157233500Y-115937843D01*
X157233500Y-117329769D01*
X157233501Y-118638000D01*
X157213816Y-118705039D01*
X157161013Y-118750794D01*
X157109501Y-118762000D01*
X150608729Y-118762000D01*
X150541690Y-118742315D01*
X150521048Y-118725681D01*
X149380818Y-117585450D01*
X149347333Y-117524127D01*
X149344499Y-117497769D01*
X149344499Y-115937843D01*
X149344498Y-115937842D01*
X149341581Y-115894796D01*
X149295307Y-115708725D01*
X149292695Y-115703459D01*
X149210118Y-115536956D01*
X149210116Y-115536953D01*
X149089990Y-115387510D01*
X149089989Y-115387509D01*
X148940546Y-115267383D01*
X148940543Y-115267381D01*
X148768778Y-115182194D01*
X148768776Y-115182193D01*
X148768775Y-115182193D01*
X148730939Y-115172783D01*
X148582708Y-115135919D01*
X148558105Y-115134251D01*
X148539657Y-115133000D01*
X148539654Y-115133000D01*
X147624343Y-115133000D01*
X147624340Y-115133001D01*
X147581298Y-115135918D01*
X147581297Y-115135918D01*
X147395221Y-115182194D01*
X147223456Y-115267381D01*
X147223453Y-115267383D01*
X147074010Y-115387509D01*
X147074009Y-115387510D01*
X146953883Y-115536953D01*
X146953881Y-115536956D01*
X146868694Y-115708721D01*
X146822419Y-115894791D01*
X146819500Y-115937845D01*
X146819500Y-117497769D01*
X146799815Y-117564808D01*
X146783181Y-117585450D01*
X144916564Y-119452066D01*
X144855241Y-119485551D01*
X144785549Y-119480567D01*
X144729616Y-119438695D01*
X144725323Y-119432585D01*
X144692421Y-119382625D01*
X144692420Y-119382623D01*
X144582603Y-119289594D01*
X144451027Y-119231274D01*
X144451023Y-119231273D01*
X144351287Y-119217500D01*
X144351274Y-119217499D01*
X143176718Y-119217499D01*
X143076975Y-119231273D01*
X142945394Y-119289595D01*
X142835584Y-119382619D01*
X142835577Y-119382627D01*
X142756426Y-119502813D01*
X142756422Y-119502820D01*
X142726439Y-119598943D01*
X142726438Y-119598948D01*
X142109339Y-123301536D01*
X142108385Y-123312343D01*
X142108385Y-123312356D01*
X142127273Y-123455023D01*
X142127275Y-123455031D01*
X142181701Y-123577821D01*
X142185594Y-123586603D01*
X142278622Y-123696419D01*
X142317047Y-123721724D01*
X142332559Y-123731940D01*
X142377721Y-123785252D01*
X142386891Y-123854517D01*
X142357158Y-123917745D01*
X142297961Y-123954860D01*
X142264358Y-123959500D01*
X130522884Y-123959500D01*
X130455845Y-123939815D01*
X130410090Y-123887011D01*
X130400146Y-123817853D01*
X130429171Y-123754297D01*
X130470107Y-123724245D01*
X130469812Y-123723676D01*
X130473451Y-123721789D01*
X130473487Y-123721764D01*
X130473576Y-123721725D01*
X130515189Y-123696420D01*
X130710218Y-123577821D01*
X130925058Y-123403035D01*
X131114097Y-123200623D01*
X131273814Y-122974356D01*
X131401234Y-122728448D01*
X131408495Y-122708019D01*
X131493980Y-122467485D01*
X131493985Y-122467469D01*
X131526358Y-122311676D01*
X131550331Y-122196314D01*
X131569231Y-121920000D01*
X131550331Y-121643686D01*
X131533989Y-121565046D01*
X131493985Y-121372530D01*
X131493980Y-121372514D01*
X131401239Y-121111564D01*
X131401236Y-121111558D01*
X131401234Y-121111552D01*
X131273814Y-120865644D01*
X131114097Y-120639377D01*
X130925058Y-120436965D01*
X130710218Y-120262179D01*
X130710216Y-120262178D01*
X130710214Y-120262176D01*
X130473576Y-120118274D01*
X130219551Y-120007936D01*
X130219549Y-120007935D01*
X130219548Y-120007935D01*
X130143673Y-119986676D01*
X129952864Y-119933213D01*
X129952860Y-119933212D01*
X129952859Y-119933212D01*
X129815669Y-119914356D01*
X129678481Y-119895500D01*
X129678480Y-119895500D01*
X129401520Y-119895500D01*
X129401519Y-119895500D01*
X129127141Y-119933212D01*
X129127135Y-119933213D01*
X128860448Y-120007936D01*
X128606423Y-120118274D01*
X128369785Y-120262176D01*
X128154941Y-120436965D01*
X127965907Y-120639372D01*
X127806186Y-120865643D01*
X127734598Y-121003802D01*
X127686277Y-121054269D01*
X127618343Y-121070601D01*
X127552364Y-121047612D01*
X127509287Y-120992601D01*
X127500500Y-120946754D01*
X127500500Y-115362986D01*
X134319001Y-115362986D01*
X134329494Y-115465697D01*
X134384641Y-115632119D01*
X134384643Y-115632124D01*
X134476684Y-115781345D01*
X134600654Y-115905315D01*
X134749875Y-115997356D01*
X134749880Y-115997358D01*
X134916302Y-116052505D01*
X134916309Y-116052506D01*
X135019019Y-116062999D01*
X135893999Y-116062999D01*
X136394000Y-116062999D01*
X137268972Y-116062999D01*
X137268986Y-116062998D01*
X137371697Y-116052505D01*
X137538119Y-115997358D01*
X137538124Y-115997356D01*
X137687345Y-115905315D01*
X137707319Y-115885342D01*
X137768642Y-115851857D01*
X137838334Y-115856841D01*
X137882681Y-115885342D01*
X137902654Y-115905315D01*
X138051875Y-115997356D01*
X138051880Y-115997358D01*
X138218302Y-116052505D01*
X138218309Y-116052506D01*
X138321019Y-116062999D01*
X139195999Y-116062999D01*
X139696000Y-116062999D01*
X140570972Y-116062999D01*
X140570986Y-116062998D01*
X140673697Y-116052505D01*
X140840119Y-115997358D01*
X140840124Y-115997356D01*
X140989345Y-115905315D01*
X141113315Y-115781345D01*
X141205356Y-115632124D01*
X141205358Y-115632119D01*
X141260505Y-115465697D01*
X141260506Y-115465690D01*
X141270999Y-115362986D01*
X141271000Y-115362973D01*
X141271000Y-115250500D01*
X139696000Y-115250500D01*
X139696000Y-116062999D01*
X139195999Y-116062999D01*
X139196000Y-116062998D01*
X139196000Y-115250500D01*
X136394000Y-115250500D01*
X136394000Y-116062999D01*
X135893999Y-116062999D01*
X135894000Y-116062998D01*
X135894000Y-115250500D01*
X134319001Y-115250500D01*
X134319001Y-115362986D01*
X127500500Y-115362986D01*
X127500500Y-114638013D01*
X134319000Y-114638013D01*
X134319000Y-114750500D01*
X135894000Y-114750500D01*
X136394000Y-114750500D01*
X139196000Y-114750500D01*
X139696000Y-114750500D01*
X141270999Y-114750500D01*
X141270999Y-114638028D01*
X141270998Y-114638013D01*
X141260505Y-114535302D01*
X141205358Y-114368880D01*
X141205356Y-114368875D01*
X141113315Y-114219654D01*
X140989345Y-114095684D01*
X140840124Y-114003643D01*
X140840119Y-114003641D01*
X140673697Y-113948494D01*
X140673690Y-113948493D01*
X140570986Y-113938000D01*
X139696000Y-113938000D01*
X139696000Y-114750500D01*
X139196000Y-114750500D01*
X139196000Y-113938000D01*
X138321028Y-113938000D01*
X138321012Y-113938001D01*
X138218302Y-113948494D01*
X138051880Y-114003641D01*
X138051875Y-114003643D01*
X137902654Y-114095684D01*
X137882681Y-114115658D01*
X137821358Y-114149143D01*
X137751666Y-114144159D01*
X137707319Y-114115658D01*
X137687345Y-114095684D01*
X137538124Y-114003643D01*
X137538119Y-114003641D01*
X137371697Y-113948494D01*
X137371690Y-113948493D01*
X137268986Y-113938000D01*
X136394000Y-113938000D01*
X136394000Y-114750500D01*
X135894000Y-114750500D01*
X135894000Y-113938000D01*
X135019028Y-113938000D01*
X135019012Y-113938001D01*
X134916302Y-113948494D01*
X134749880Y-114003641D01*
X134749875Y-114003643D01*
X134600654Y-114095684D01*
X134476684Y-114219654D01*
X134384643Y-114368875D01*
X134384641Y-114368880D01*
X134329494Y-114535302D01*
X134329493Y-114535309D01*
X134319000Y-114638013D01*
X127500500Y-114638013D01*
X127500500Y-108419014D01*
X127520185Y-108351975D01*
X127572989Y-108306220D01*
X127642147Y-108296276D01*
X127705703Y-108325301D01*
X127730039Y-108353917D01*
X127795684Y-108460345D01*
X127919654Y-108584315D01*
X128068875Y-108676356D01*
X128068880Y-108676358D01*
X128235302Y-108731505D01*
X128235309Y-108731506D01*
X128338019Y-108741999D01*
X129637999Y-108741999D01*
X130138000Y-108741999D01*
X131437972Y-108741999D01*
X131437986Y-108741998D01*
X131540697Y-108731505D01*
X131707119Y-108676358D01*
X131707124Y-108676356D01*
X131856345Y-108584315D01*
X131980315Y-108460345D01*
X132072356Y-108311124D01*
X132072358Y-108311119D01*
X132127505Y-108144697D01*
X132127506Y-108144690D01*
X132137999Y-108041986D01*
X132138000Y-108041973D01*
X132138000Y-107692000D01*
X130138000Y-107692000D01*
X130138000Y-108741999D01*
X129637999Y-108741999D01*
X129638000Y-108741998D01*
X129638000Y-107192000D01*
X130138000Y-107192000D01*
X132137999Y-107192000D01*
X132137999Y-106842028D01*
X132137998Y-106842013D01*
X132127505Y-106739302D01*
X132072358Y-106572880D01*
X132072356Y-106572875D01*
X131980315Y-106423654D01*
X131856345Y-106299684D01*
X131707124Y-106207643D01*
X131707119Y-106207641D01*
X131540697Y-106152494D01*
X131540690Y-106152493D01*
X131437986Y-106142000D01*
X130138000Y-106142000D01*
X130138000Y-107192000D01*
X129638000Y-107192000D01*
X129638000Y-106142000D01*
X128338028Y-106142000D01*
X128338012Y-106142001D01*
X128235302Y-106152494D01*
X128068880Y-106207641D01*
X128068875Y-106207643D01*
X127919654Y-106299684D01*
X127795683Y-106423655D01*
X127795680Y-106423659D01*
X127730038Y-106530082D01*
X127678091Y-106576807D01*
X127609128Y-106588028D01*
X127545046Y-106560185D01*
X127506190Y-106502116D01*
X127500500Y-106464985D01*
X127500500Y-79713245D01*
X127520185Y-79646206D01*
X127572989Y-79600451D01*
X127642147Y-79590507D01*
X127705703Y-79619532D01*
G37*
%TD.AperFunction*%
%TA.AperFunction,Conductor*%
G36*
X161644155Y-76720185D02*
G01*
X161689910Y-76772989D01*
X161699854Y-76842147D01*
X161670829Y-76905703D01*
X161629892Y-76935754D01*
X161630188Y-76936324D01*
X161626548Y-76938210D01*
X161626513Y-76938236D01*
X161626423Y-76938274D01*
X161389785Y-77082176D01*
X161174941Y-77256965D01*
X160985907Y-77459372D01*
X160985904Y-77459374D01*
X160985903Y-77459377D01*
X160958336Y-77498431D01*
X160826186Y-77685643D01*
X160698763Y-77931558D01*
X160698760Y-77931564D01*
X160606019Y-78192514D01*
X160606014Y-78192530D01*
X160549669Y-78463683D01*
X160549668Y-78463685D01*
X160530769Y-78740000D01*
X160549668Y-79016314D01*
X160549669Y-79016316D01*
X160606014Y-79287469D01*
X160606019Y-79287485D01*
X160698760Y-79548435D01*
X160698763Y-79548441D01*
X160698764Y-79548444D01*
X160698766Y-79548448D01*
X160826186Y-79794356D01*
X160985903Y-80020623D01*
X161174942Y-80223035D01*
X161389782Y-80397821D01*
X161389784Y-80397822D01*
X161389785Y-80397823D01*
X161626423Y-80541725D01*
X161799917Y-80617083D01*
X161880452Y-80652065D01*
X162147141Y-80726788D01*
X162388364Y-80759942D01*
X162421519Y-80764500D01*
X162421520Y-80764500D01*
X162698481Y-80764500D01*
X162728061Y-80760434D01*
X162972859Y-80726788D01*
X163239548Y-80652065D01*
X163493578Y-80541724D01*
X163730218Y-80397821D01*
X163945058Y-80223035D01*
X164134097Y-80020623D01*
X164293814Y-79794356D01*
X164365403Y-79656195D01*
X164413722Y-79605730D01*
X164481656Y-79589398D01*
X164547636Y-79612387D01*
X164590713Y-79667397D01*
X164599500Y-79713245D01*
X164599500Y-120946754D01*
X164579815Y-121013793D01*
X164527011Y-121059548D01*
X164457853Y-121069492D01*
X164394297Y-121040467D01*
X164365402Y-121003802D01*
X164335842Y-120946754D01*
X164293814Y-120865644D01*
X164134097Y-120639377D01*
X163945058Y-120436965D01*
X163730218Y-120262179D01*
X163730216Y-120262178D01*
X163730214Y-120262176D01*
X163493576Y-120118274D01*
X163239551Y-120007936D01*
X163239549Y-120007935D01*
X163239548Y-120007935D01*
X163163673Y-119986676D01*
X162972864Y-119933213D01*
X162972860Y-119933212D01*
X162972859Y-119933212D01*
X162835669Y-119914356D01*
X162698481Y-119895500D01*
X162698480Y-119895500D01*
X162421520Y-119895500D01*
X162421519Y-119895500D01*
X162147141Y-119933212D01*
X162147135Y-119933213D01*
X161880448Y-120007936D01*
X161626423Y-120118274D01*
X161389785Y-120262176D01*
X161174941Y-120436965D01*
X160985907Y-120639372D01*
X160826186Y-120865643D01*
X160698763Y-121111558D01*
X160698760Y-121111564D01*
X160606019Y-121372514D01*
X160606014Y-121372530D01*
X160549669Y-121643683D01*
X160549668Y-121643685D01*
X160530769Y-121920000D01*
X160549668Y-122196314D01*
X160549669Y-122196316D01*
X160606014Y-122467469D01*
X160606019Y-122467485D01*
X160698760Y-122728435D01*
X160698763Y-122728441D01*
X160698764Y-122728444D01*
X160698766Y-122728448D01*
X160826186Y-122974356D01*
X160985903Y-123200623D01*
X161174942Y-123403035D01*
X161389782Y-123577821D01*
X161389784Y-123577822D01*
X161389785Y-123577823D01*
X161626423Y-123721725D01*
X161626513Y-123721764D01*
X161626536Y-123721783D01*
X161630188Y-123723676D01*
X161629770Y-123724481D01*
X161680162Y-123766525D01*
X161701094Y-123833185D01*
X161682665Y-123900581D01*
X161630724Y-123947313D01*
X161577116Y-123959500D01*
X145263640Y-123959500D01*
X145196601Y-123939815D01*
X145150846Y-123887011D01*
X145140902Y-123817853D01*
X145169927Y-123754297D01*
X145195440Y-123731940D01*
X145207988Y-123723676D01*
X145249378Y-123696418D01*
X145342406Y-123586603D01*
X145400726Y-123455027D01*
X145419615Y-123312350D01*
X145418659Y-123301532D01*
X145110746Y-121454052D01*
X145119142Y-121384691D01*
X145145375Y-121345991D01*
X147055702Y-119435663D01*
X147117023Y-119402180D01*
X147186715Y-119407164D01*
X147221067Y-119426698D01*
X147223454Y-119428617D01*
X147223456Y-119428618D01*
X147338252Y-119485551D01*
X147395225Y-119513807D01*
X147545013Y-119551058D01*
X147581291Y-119560080D01*
X147581292Y-119560080D01*
X147581296Y-119560081D01*
X147624343Y-119563000D01*
X148539656Y-119562999D01*
X148582704Y-119560081D01*
X148768775Y-119513807D01*
X148940547Y-119428616D01*
X148942927Y-119426703D01*
X148944660Y-119425987D01*
X148946213Y-119424995D01*
X148946390Y-119425273D01*
X149007510Y-119400042D01*
X149076255Y-119412529D01*
X149108299Y-119435666D01*
X149768080Y-120095448D01*
X149768084Y-120095451D01*
X149890998Y-120177580D01*
X149891011Y-120177587D01*
X150027582Y-120234156D01*
X150027587Y-120234158D01*
X150027591Y-120234158D01*
X150027592Y-120234159D01*
X150172579Y-120263000D01*
X150172582Y-120263000D01*
X159465420Y-120263000D01*
X159562962Y-120243596D01*
X159610413Y-120234158D01*
X159746995Y-120177584D01*
X159796229Y-120144686D01*
X159869916Y-120095452D01*
X161794952Y-118170416D01*
X161862275Y-118069658D01*
X161877084Y-118047495D01*
X161933658Y-117910913D01*
X161945104Y-117853372D01*
X161962500Y-117765920D01*
X161962500Y-110984816D01*
X161982185Y-110917777D01*
X162034989Y-110872022D01*
X162104147Y-110862078D01*
X162125504Y-110867110D01*
X162229302Y-110901505D01*
X162332019Y-110911999D01*
X162581999Y-110911999D01*
X163082000Y-110911999D01*
X163331972Y-110911999D01*
X163331986Y-110911998D01*
X163434696Y-110901505D01*
X163434698Y-110901505D01*
X163601119Y-110846359D01*
X163601130Y-110846354D01*
X163750340Y-110754319D01*
X163750344Y-110754316D01*
X163874316Y-110630344D01*
X163874319Y-110630340D01*
X163966354Y-110481130D01*
X163966359Y-110481119D01*
X164021505Y-110314697D01*
X164031999Y-110211986D01*
X164032000Y-110211973D01*
X164032000Y-108962000D01*
X163082000Y-108962000D01*
X163082000Y-110911999D01*
X162581999Y-110911999D01*
X162582000Y-110911998D01*
X162582000Y-108462000D01*
X163082000Y-108462000D01*
X164031999Y-108462000D01*
X164031999Y-107212028D01*
X164031998Y-107212013D01*
X164021505Y-107109303D01*
X164021505Y-107109301D01*
X163966359Y-106942880D01*
X163966354Y-106942869D01*
X163874319Y-106793659D01*
X163874316Y-106793655D01*
X163750344Y-106669683D01*
X163750340Y-106669680D01*
X163601130Y-106577645D01*
X163601119Y-106577640D01*
X163434697Y-106522494D01*
X163331986Y-106512000D01*
X163082000Y-106512000D01*
X163082000Y-108462000D01*
X162582000Y-108462000D01*
X162582000Y-106512000D01*
X162332029Y-106512000D01*
X162332012Y-106512001D01*
X162229303Y-106522494D01*
X162229294Y-106522496D01*
X162125502Y-106556888D01*
X162055674Y-106559289D01*
X161995633Y-106523557D01*
X161964441Y-106461036D01*
X161962500Y-106439182D01*
X161962500Y-103170579D01*
X161933659Y-103025592D01*
X161933658Y-103025591D01*
X161933658Y-103025587D01*
X161916918Y-102985173D01*
X161877087Y-102889011D01*
X161877080Y-102888998D01*
X161794952Y-102766085D01*
X161756876Y-102728009D01*
X161690416Y-102661549D01*
X161514040Y-102485173D01*
X161298819Y-102269951D01*
X161265334Y-102208628D01*
X161262500Y-102182270D01*
X161262500Y-101916313D01*
X161262499Y-101916298D01*
X161262126Y-101911561D01*
X161259598Y-101879431D01*
X161256522Y-101868845D01*
X161221635Y-101748762D01*
X161213744Y-101721602D01*
X161130081Y-101580135D01*
X161130079Y-101580133D01*
X161130076Y-101580129D01*
X161013870Y-101463923D01*
X161013862Y-101463917D01*
X160872396Y-101380255D01*
X160872393Y-101380254D01*
X160714573Y-101334402D01*
X160714567Y-101334401D01*
X160677701Y-101331500D01*
X160677694Y-101331500D01*
X160520547Y-101331500D01*
X160453508Y-101311815D01*
X160407753Y-101259011D01*
X160397809Y-101189853D01*
X160426834Y-101126297D01*
X160432866Y-101119819D01*
X160464947Y-101087737D01*
X160464947Y-101087736D01*
X160464952Y-101087732D01*
X160490708Y-101049185D01*
X160527572Y-100994014D01*
X160527574Y-100994009D01*
X160527580Y-100994001D01*
X160547084Y-100964811D01*
X160603658Y-100828229D01*
X160632500Y-100683234D01*
X160632500Y-99797986D01*
X161632001Y-99797986D01*
X161642494Y-99900696D01*
X161642494Y-99900698D01*
X161697640Y-100067119D01*
X161697645Y-100067130D01*
X161789680Y-100216340D01*
X161789683Y-100216344D01*
X161913655Y-100340316D01*
X161913659Y-100340319D01*
X162062869Y-100432354D01*
X162062880Y-100432359D01*
X162229302Y-100487505D01*
X162332019Y-100497999D01*
X162581999Y-100497999D01*
X163082000Y-100497999D01*
X163331972Y-100497999D01*
X163331986Y-100497998D01*
X163434696Y-100487505D01*
X163434698Y-100487505D01*
X163601119Y-100432359D01*
X163601130Y-100432354D01*
X163750340Y-100340319D01*
X163750344Y-100340316D01*
X163874316Y-100216344D01*
X163874319Y-100216340D01*
X163966354Y-100067130D01*
X163966359Y-100067119D01*
X164021505Y-99900697D01*
X164031999Y-99797986D01*
X164032000Y-99797973D01*
X164032000Y-98548000D01*
X163082000Y-98548000D01*
X163082000Y-100497999D01*
X162581999Y-100497999D01*
X162582000Y-100497998D01*
X162582000Y-98548000D01*
X161632001Y-98548000D01*
X161632001Y-99797986D01*
X160632500Y-99797986D01*
X160632500Y-96798013D01*
X161632000Y-96798013D01*
X161632000Y-98048000D01*
X162582000Y-98048000D01*
X163082000Y-98048000D01*
X164031999Y-98048000D01*
X164031999Y-96798028D01*
X164031998Y-96798013D01*
X164021505Y-96695303D01*
X164021505Y-96695301D01*
X163966359Y-96528880D01*
X163966354Y-96528869D01*
X163874319Y-96379659D01*
X163874316Y-96379655D01*
X163750344Y-96255683D01*
X163750340Y-96255680D01*
X163601130Y-96163645D01*
X163601119Y-96163640D01*
X163434697Y-96108494D01*
X163331986Y-96098000D01*
X163082000Y-96098000D01*
X163082000Y-98048000D01*
X162582000Y-98048000D01*
X162582000Y-96098000D01*
X162332029Y-96098000D01*
X162332012Y-96098001D01*
X162229303Y-96108494D01*
X162229301Y-96108494D01*
X162062880Y-96163640D01*
X162062869Y-96163645D01*
X161913659Y-96255680D01*
X161913655Y-96255683D01*
X161789683Y-96379655D01*
X161789680Y-96379659D01*
X161697645Y-96528869D01*
X161697640Y-96528880D01*
X161642494Y-96695302D01*
X161632000Y-96798013D01*
X160632500Y-96798013D01*
X160632500Y-96477204D01*
X160613034Y-96379344D01*
X160603659Y-96332210D01*
X160570518Y-96252202D01*
X160570518Y-96252201D01*
X160547087Y-96195633D01*
X160547080Y-96195620D01*
X160465871Y-96074083D01*
X160465856Y-96074060D01*
X160464955Y-96072711D01*
X160464949Y-96072704D01*
X159957299Y-95565052D01*
X159957296Y-95565049D01*
X159883139Y-95515500D01*
X159834373Y-95482916D01*
X159834370Y-95482914D01*
X159834369Y-95482914D01*
X159697795Y-95426343D01*
X159697785Y-95426340D01*
X159552798Y-95397500D01*
X159552796Y-95397500D01*
X157911204Y-95397500D01*
X157911202Y-95397500D01*
X157766214Y-95426340D01*
X157766204Y-95426343D01*
X157629630Y-95482914D01*
X157580861Y-95515500D01*
X157506703Y-95565049D01*
X156529049Y-96542703D01*
X156484523Y-96609341D01*
X156484524Y-96609342D01*
X156446914Y-96665630D01*
X156390343Y-96802204D01*
X156390340Y-96802214D01*
X156361500Y-96947201D01*
X156361500Y-98268000D01*
X156341815Y-98335039D01*
X156289011Y-98380794D01*
X156237500Y-98392000D01*
X155952000Y-98392000D01*
X155952000Y-99418000D01*
X155932315Y-99485039D01*
X155879511Y-99530794D01*
X155828000Y-99542000D01*
X155702000Y-99542000D01*
X155702000Y-99668000D01*
X155682315Y-99735039D01*
X155629511Y-99780794D01*
X155578000Y-99792000D01*
X154327001Y-99792000D01*
X154327001Y-99991986D01*
X154337493Y-100094695D01*
X154365263Y-100178495D01*
X154367665Y-100248324D01*
X154331934Y-100308366D01*
X154269413Y-100339559D01*
X154247557Y-100341500D01*
X152479073Y-100341500D01*
X152412034Y-100321815D01*
X152366279Y-100269011D01*
X152356335Y-100199853D01*
X152362032Y-100176545D01*
X152423366Y-100001262D01*
X152423369Y-100001249D01*
X152443565Y-99822003D01*
X152443565Y-99821996D01*
X152423369Y-99642750D01*
X152423368Y-99642745D01*
X152403791Y-99586797D01*
X152363789Y-99472478D01*
X152353639Y-99456325D01*
X152320626Y-99403785D01*
X152267816Y-99319738D01*
X152140262Y-99192184D01*
X151987521Y-99096210D01*
X151975527Y-99092013D01*
X154327000Y-99092013D01*
X154327000Y-99292000D01*
X155452000Y-99292000D01*
X155452000Y-98392000D01*
X155027028Y-98392000D01*
X155027012Y-98392001D01*
X154924302Y-98402494D01*
X154757880Y-98457641D01*
X154757875Y-98457643D01*
X154608654Y-98549684D01*
X154484684Y-98673654D01*
X154392643Y-98822875D01*
X154392641Y-98822880D01*
X154337494Y-98989302D01*
X154337493Y-98989309D01*
X154327000Y-99092013D01*
X151975527Y-99092013D01*
X151817249Y-99036630D01*
X151730330Y-99026837D01*
X151665916Y-98999770D01*
X151656533Y-98991298D01*
X151624819Y-98959584D01*
X151591334Y-98898261D01*
X151588500Y-98871903D01*
X151588500Y-95409955D01*
X151608185Y-95342916D01*
X151660989Y-95297161D01*
X151698615Y-95286735D01*
X151731568Y-95283022D01*
X151817250Y-95273369D01*
X151817253Y-95273368D01*
X151817255Y-95273368D01*
X151817257Y-95273367D01*
X151817262Y-95273366D01*
X151945800Y-95228388D01*
X151987522Y-95213789D01*
X152077096Y-95157505D01*
X152143068Y-95138500D01*
X152195060Y-95138500D01*
X152262099Y-95158185D01*
X152307854Y-95210989D01*
X152314276Y-95228388D01*
X152331330Y-95287987D01*
X152351091Y-95357049D01*
X152445302Y-95537407D01*
X152445304Y-95537409D01*
X152573890Y-95695109D01*
X152667803Y-95771684D01*
X152731593Y-95823698D01*
X152911951Y-95917909D01*
X153107582Y-95973886D01*
X153226963Y-95984500D01*
X155093036Y-95984499D01*
X155212418Y-95973886D01*
X155408049Y-95917909D01*
X155588407Y-95823698D01*
X155746109Y-95695109D01*
X155874698Y-95537407D01*
X155968909Y-95357049D01*
X156024886Y-95161418D01*
X156035500Y-95042037D01*
X156035499Y-93925964D01*
X156024886Y-93806582D01*
X155968909Y-93610951D01*
X155874698Y-93430593D01*
X155761983Y-93292359D01*
X155734875Y-93227965D01*
X155746884Y-93159135D01*
X155761981Y-93135642D01*
X155874698Y-92997407D01*
X155968909Y-92817049D01*
X156024886Y-92621418D01*
X156035500Y-92502037D01*
X156035499Y-91385964D01*
X156024886Y-91266582D01*
X155968909Y-91070951D01*
X155874698Y-90890593D01*
X155761983Y-90752359D01*
X155734875Y-90687965D01*
X155746884Y-90619135D01*
X155761981Y-90595642D01*
X155874698Y-90457407D01*
X155968909Y-90277049D01*
X156024886Y-90081418D01*
X156035500Y-89962037D01*
X156035499Y-89640923D01*
X156055183Y-89573886D01*
X156107987Y-89528131D01*
X156177146Y-89518187D01*
X156225472Y-89535932D01*
X156368475Y-89625788D01*
X156538745Y-89685368D01*
X156538750Y-89685369D01*
X156717996Y-89705565D01*
X156718000Y-89705565D01*
X156718004Y-89705565D01*
X156897249Y-89685369D01*
X156897252Y-89685368D01*
X156897255Y-89685368D01*
X156977017Y-89657457D01*
X157017972Y-89650500D01*
X158453833Y-89650500D01*
X158520872Y-89670185D01*
X158566627Y-89722989D01*
X158576306Y-89755102D01*
X158577753Y-89764243D01*
X158643444Y-89966416D01*
X158739951Y-90155820D01*
X158864890Y-90327786D01*
X159003705Y-90466601D01*
X159037190Y-90527924D01*
X159032206Y-90597616D01*
X158990334Y-90653549D01*
X158981121Y-90659821D01*
X158826342Y-90755289D01*
X158702289Y-90879342D01*
X158610187Y-91028663D01*
X158610186Y-91028666D01*
X158555001Y-91195203D01*
X158555001Y-91195204D01*
X158555000Y-91195204D01*
X158544500Y-91297983D01*
X158544500Y-92598001D01*
X158544501Y-92598018D01*
X158555000Y-92700796D01*
X158555001Y-92700799D01*
X158593522Y-92817045D01*
X158610186Y-92867334D01*
X158702288Y-93016656D01*
X158826344Y-93140712D01*
X158975666Y-93232814D01*
X159142203Y-93287999D01*
X159244991Y-93298500D01*
X160795008Y-93298499D01*
X160897797Y-93287999D01*
X161064334Y-93232814D01*
X161213656Y-93140712D01*
X161337712Y-93016656D01*
X161429814Y-92867334D01*
X161484999Y-92700797D01*
X161495500Y-92598009D01*
X161495499Y-91297992D01*
X161492290Y-91266582D01*
X161484999Y-91195203D01*
X161484998Y-91195200D01*
X161429814Y-91028666D01*
X161337712Y-90879344D01*
X161213656Y-90755288D01*
X161064334Y-90663186D01*
X161064333Y-90663185D01*
X161058878Y-90659821D01*
X161012154Y-90607873D01*
X161000931Y-90538910D01*
X161028775Y-90474828D01*
X161036272Y-90466623D01*
X161175104Y-90327792D01*
X161182128Y-90318125D01*
X161272768Y-90193368D01*
X161300051Y-90155816D01*
X161396557Y-89966412D01*
X161462246Y-89764243D01*
X161495500Y-89554287D01*
X161495500Y-89341713D01*
X161462246Y-89131757D01*
X161396557Y-88929588D01*
X161300051Y-88740184D01*
X161300049Y-88740181D01*
X161300048Y-88740179D01*
X161175109Y-88568213D01*
X161024792Y-88417896D01*
X161003450Y-88402390D01*
X160860204Y-88298316D01*
X160817540Y-88242989D01*
X160811561Y-88173376D01*
X160844166Y-88111580D01*
X160860199Y-88097686D01*
X161024792Y-87978104D01*
X161175104Y-87827792D01*
X161175106Y-87827788D01*
X161175109Y-87827786D01*
X161300048Y-87655820D01*
X161300047Y-87655820D01*
X161300051Y-87655816D01*
X161396557Y-87466412D01*
X161462246Y-87264243D01*
X161495500Y-87054287D01*
X161495500Y-86841713D01*
X161462246Y-86631757D01*
X161396557Y-86429588D01*
X161300051Y-86240184D01*
X161300049Y-86240181D01*
X161300048Y-86240179D01*
X161175109Y-86068213D01*
X161024792Y-85917896D01*
X161024784Y-85917890D01*
X160860204Y-85798316D01*
X160817540Y-85742989D01*
X160811561Y-85673376D01*
X160844166Y-85611580D01*
X160860199Y-85597686D01*
X161024792Y-85478104D01*
X161175104Y-85327792D01*
X161175106Y-85327788D01*
X161175109Y-85327786D01*
X161300048Y-85155820D01*
X161300047Y-85155820D01*
X161300051Y-85155816D01*
X161396557Y-84966412D01*
X161462246Y-84764243D01*
X161495500Y-84554287D01*
X161495500Y-84341713D01*
X161462246Y-84131757D01*
X161396557Y-83929588D01*
X161300051Y-83740184D01*
X161300049Y-83740181D01*
X161300048Y-83740179D01*
X161175109Y-83568213D01*
X161024786Y-83417890D01*
X160852820Y-83292951D01*
X160663414Y-83196444D01*
X160663413Y-83196443D01*
X160663412Y-83196443D01*
X160461243Y-83130754D01*
X160461241Y-83130753D01*
X160461240Y-83130753D01*
X160299957Y-83105208D01*
X160251287Y-83097500D01*
X159788713Y-83097500D01*
X159740042Y-83105208D01*
X159578760Y-83130753D01*
X159376585Y-83196444D01*
X159187179Y-83292951D01*
X159015213Y-83417890D01*
X158864890Y-83568213D01*
X158739951Y-83740179D01*
X158643444Y-83929585D01*
X158577753Y-84131760D01*
X158559416Y-84247535D01*
X158544500Y-84341713D01*
X158544500Y-84554287D01*
X158547306Y-84572001D01*
X158573411Y-84736826D01*
X158577754Y-84764243D01*
X158616026Y-84882033D01*
X158643444Y-84966414D01*
X158739951Y-85155820D01*
X158864890Y-85327786D01*
X159015209Y-85478105D01*
X159015214Y-85478109D01*
X159179793Y-85597682D01*
X159222459Y-85653011D01*
X159228438Y-85722625D01*
X159195833Y-85784420D01*
X159179793Y-85798318D01*
X159015214Y-85917890D01*
X159015209Y-85917894D01*
X158864890Y-86068213D01*
X158739951Y-86240179D01*
X158643444Y-86429585D01*
X158577753Y-86631760D01*
X158544500Y-86841713D01*
X158544500Y-87054286D01*
X158576598Y-87256949D01*
X158577754Y-87264243D01*
X158641399Y-87460122D01*
X158643444Y-87466414D01*
X158739951Y-87655820D01*
X158864890Y-87827786D01*
X158974923Y-87937819D01*
X159008408Y-87999142D01*
X159003424Y-88068834D01*
X158961552Y-88124767D01*
X158896088Y-88149184D01*
X158887242Y-88149500D01*
X157017972Y-88149500D01*
X156977017Y-88142542D01*
X156897254Y-88114631D01*
X156897249Y-88114630D01*
X156718004Y-88094435D01*
X156717996Y-88094435D01*
X156538750Y-88114630D01*
X156538745Y-88114631D01*
X156368476Y-88174211D01*
X156215739Y-88270183D01*
X156083532Y-88402390D01*
X156022209Y-88435874D01*
X155952517Y-88430890D01*
X155896584Y-88389018D01*
X155885943Y-88372120D01*
X155874699Y-88350595D01*
X155874698Y-88350593D01*
X155832074Y-88298319D01*
X155761983Y-88212359D01*
X155734875Y-88147965D01*
X155746884Y-88079135D01*
X155761983Y-88055641D01*
X155874698Y-87917407D01*
X155968909Y-87737049D01*
X156024886Y-87541418D01*
X156035500Y-87422037D01*
X156035499Y-86305964D01*
X156024886Y-86186582D01*
X155968909Y-85990951D01*
X155874698Y-85810593D01*
X155761983Y-85672359D01*
X155734875Y-85607965D01*
X155746884Y-85539135D01*
X155761981Y-85515642D01*
X155874698Y-85377407D01*
X155968909Y-85197049D01*
X156024886Y-85001418D01*
X156035500Y-84882037D01*
X156035499Y-83765964D01*
X156024886Y-83646582D01*
X155968909Y-83450951D01*
X155874698Y-83270593D01*
X155761661Y-83131964D01*
X155734552Y-83067568D01*
X155746561Y-82998738D01*
X155761662Y-82975241D01*
X155874278Y-82837130D01*
X155968442Y-82656861D01*
X156024390Y-82461328D01*
X156024391Y-82461325D01*
X156034999Y-82342000D01*
X156035000Y-82341998D01*
X156035000Y-81226002D01*
X156034999Y-81225999D01*
X156024391Y-81106674D01*
X156024390Y-81106671D01*
X155968442Y-80911138D01*
X155874278Y-80730870D01*
X155761661Y-80592757D01*
X155734552Y-80528361D01*
X155746561Y-80459531D01*
X155761658Y-80436039D01*
X155874698Y-80297407D01*
X155968909Y-80117049D01*
X155977110Y-80088388D01*
X156014478Y-80029350D01*
X156077832Y-79999887D01*
X156096326Y-79998500D01*
X158450028Y-79998500D01*
X158490983Y-80005458D01*
X158570745Y-80033368D01*
X158570750Y-80033369D01*
X158749996Y-80053565D01*
X158750000Y-80053565D01*
X158750004Y-80053565D01*
X158929249Y-80033369D01*
X158929252Y-80033368D01*
X158929255Y-80033368D01*
X159099522Y-79973789D01*
X159252262Y-79877816D01*
X159379816Y-79750262D01*
X159475789Y-79597522D01*
X159535368Y-79427255D01*
X159540672Y-79380184D01*
X159555565Y-79248003D01*
X159555565Y-79247996D01*
X159535369Y-79068750D01*
X159535368Y-79068745D01*
X159494700Y-78952523D01*
X159475789Y-78898478D01*
X159456024Y-78867023D01*
X159433257Y-78830789D01*
X159379816Y-78745738D01*
X159252262Y-78618184D01*
X159220469Y-78598207D01*
X159099523Y-78522211D01*
X158929254Y-78462631D01*
X158929249Y-78462630D01*
X158750004Y-78442435D01*
X158749996Y-78442435D01*
X158570750Y-78462630D01*
X158570745Y-78462631D01*
X158490983Y-78490542D01*
X158450028Y-78497500D01*
X156098615Y-78497500D01*
X156031576Y-78477815D01*
X155985821Y-78425011D01*
X155979399Y-78407612D01*
X155978823Y-78405602D01*
X155968909Y-78370951D01*
X155874698Y-78190593D01*
X155830573Y-78136478D01*
X155746109Y-78032890D01*
X155588409Y-77904304D01*
X155588410Y-77904304D01*
X155588407Y-77904302D01*
X155408049Y-77810091D01*
X155408048Y-77810090D01*
X155408045Y-77810089D01*
X155290829Y-77776550D01*
X155212418Y-77754114D01*
X155212415Y-77754113D01*
X155212413Y-77754113D01*
X155139631Y-77747642D01*
X155093037Y-77743500D01*
X155093033Y-77743500D01*
X153630808Y-77743500D01*
X153563769Y-77723815D01*
X153543131Y-77707185D01*
X153435669Y-77599723D01*
X153329127Y-77528535D01*
X153329128Y-77528535D01*
X153329123Y-77528532D01*
X153210742Y-77479498D01*
X153209891Y-77479329D01*
X153209891Y-77479328D01*
X153209886Y-77479328D01*
X153085071Y-77454500D01*
X153085069Y-77454500D01*
X152270068Y-77454500D01*
X152204096Y-77435494D01*
X152114522Y-77379210D01*
X152114518Y-77379209D01*
X151944262Y-77319633D01*
X151944249Y-77319630D01*
X151765004Y-77299435D01*
X151764996Y-77299435D01*
X151585750Y-77319630D01*
X151585745Y-77319631D01*
X151415476Y-77379211D01*
X151262737Y-77475184D01*
X151135184Y-77602737D01*
X151039211Y-77755476D01*
X150979631Y-77925745D01*
X150979630Y-77925750D01*
X150959435Y-78104996D01*
X150959435Y-78105003D01*
X150979630Y-78284249D01*
X150979631Y-78284254D01*
X151039211Y-78454523D01*
X151095748Y-78544500D01*
X151135184Y-78607262D01*
X151262738Y-78734816D01*
X151332509Y-78778656D01*
X151407009Y-78825468D01*
X151415478Y-78830789D01*
X151519029Y-78867023D01*
X151585745Y-78890368D01*
X151585750Y-78890369D01*
X151764996Y-78910565D01*
X151765000Y-78910565D01*
X151765004Y-78910565D01*
X151944249Y-78890369D01*
X151944251Y-78890368D01*
X151944255Y-78890368D01*
X151944258Y-78890366D01*
X151944262Y-78890366D01*
X152039664Y-78856982D01*
X152114522Y-78830789D01*
X152114523Y-78830788D01*
X152119545Y-78829031D01*
X152189323Y-78825468D01*
X152249951Y-78860197D01*
X152282179Y-78922190D01*
X152284500Y-78946072D01*
X152284500Y-79802028D01*
X152284501Y-79802034D01*
X152295113Y-79921415D01*
X152351089Y-80117045D01*
X152351090Y-80117046D01*
X152351091Y-80117049D01*
X152445302Y-80297407D01*
X152495950Y-80359522D01*
X152558338Y-80436035D01*
X152585447Y-80500432D01*
X152573438Y-80569261D01*
X152558338Y-80592757D01*
X152445721Y-80730870D01*
X152351557Y-80911138D01*
X152295609Y-81106671D01*
X152295608Y-81106674D01*
X152285000Y-81225999D01*
X152285000Y-82342000D01*
X152295608Y-82461325D01*
X152295609Y-82461328D01*
X152351557Y-82656861D01*
X152445721Y-82837129D01*
X152558338Y-82975242D01*
X152585447Y-83039638D01*
X152573438Y-83108468D01*
X152558338Y-83131963D01*
X152445305Y-83270587D01*
X152351089Y-83450954D01*
X152335106Y-83506815D01*
X152313131Y-83583613D01*
X152275766Y-83642649D01*
X152212413Y-83672113D01*
X152193917Y-83673500D01*
X151166690Y-83673500D01*
X151041022Y-83698497D01*
X151041016Y-83698499D01*
X150922636Y-83747533D01*
X150922627Y-83747538D01*
X150816092Y-83818723D01*
X150816088Y-83818726D01*
X150809634Y-83825181D01*
X150748311Y-83858666D01*
X150721953Y-83861500D01*
X148732503Y-83861500D01*
X148665464Y-83841815D01*
X148619709Y-83789011D01*
X148609765Y-83719853D01*
X148612728Y-83705407D01*
X148628490Y-83646582D01*
X148655063Y-83547408D01*
X148675659Y-83312000D01*
X148655063Y-83076592D01*
X148593903Y-82848337D01*
X148494035Y-82634171D01*
X148488425Y-82626158D01*
X148358494Y-82440597D01*
X148191402Y-82273506D01*
X148191396Y-82273501D01*
X148005842Y-82143575D01*
X147962217Y-82088998D01*
X147955023Y-82019500D01*
X147986546Y-81957145D01*
X148005842Y-81940425D01*
X148188950Y-81812211D01*
X148191401Y-81810495D01*
X148358495Y-81643401D01*
X148494035Y-81449830D01*
X148593903Y-81235663D01*
X148655063Y-81007408D01*
X148675659Y-80772000D01*
X148655063Y-80536592D01*
X148593903Y-80308337D01*
X148494035Y-80094171D01*
X148493813Y-80093853D01*
X148358494Y-79900597D01*
X148191402Y-79733506D01*
X148191396Y-79733501D01*
X148005842Y-79603575D01*
X147962217Y-79548998D01*
X147955023Y-79479500D01*
X147986546Y-79417145D01*
X148005842Y-79400425D01*
X148136944Y-79308626D01*
X148191401Y-79270495D01*
X148358495Y-79103401D01*
X148494035Y-78909830D01*
X148593903Y-78695663D01*
X148655063Y-78467408D01*
X148675659Y-78232000D01*
X148655063Y-77996592D01*
X148593903Y-77768337D01*
X148494035Y-77554171D01*
X148488425Y-77546158D01*
X148358494Y-77360597D01*
X148191402Y-77193506D01*
X148191395Y-77193501D01*
X147997834Y-77057967D01*
X147997830Y-77057965D01*
X147997828Y-77057964D01*
X147783663Y-76958097D01*
X147783659Y-76958096D01*
X147783655Y-76958094D01*
X147732079Y-76944275D01*
X147672418Y-76907910D01*
X147641889Y-76845063D01*
X147650184Y-76775688D01*
X147694669Y-76721810D01*
X147761221Y-76700535D01*
X147764172Y-76700500D01*
X161577116Y-76700500D01*
X161644155Y-76720185D01*
G37*
%TD.AperFunction*%
%TA.AperFunction,Conductor*%
G36*
X143181911Y-102827758D02*
G01*
X143205598Y-102842980D01*
X143195224Y-102853355D01*
X143180000Y-102890109D01*
X143180000Y-102929891D01*
X143195224Y-102966645D01*
X143223355Y-102994776D01*
X143260109Y-103010000D01*
X143299891Y-103010000D01*
X143336645Y-102994776D01*
X143345727Y-102985693D01*
X143367224Y-103025062D01*
X143362240Y-103094754D01*
X143333739Y-103139101D01*
X143210004Y-103262835D01*
X143210000Y-103262841D01*
X143181842Y-103290999D01*
X143181842Y-103291000D01*
X143187731Y-103296889D01*
X143187732Y-103296891D01*
X143333739Y-103442898D01*
X143367224Y-103504221D01*
X143362240Y-103573913D01*
X143347018Y-103597597D01*
X143336645Y-103587224D01*
X143299891Y-103572000D01*
X143260109Y-103572000D01*
X143223355Y-103587224D01*
X143195224Y-103615355D01*
X143180000Y-103652109D01*
X143180000Y-103691891D01*
X143195224Y-103728645D01*
X143223355Y-103756776D01*
X143260109Y-103772000D01*
X143299891Y-103772000D01*
X143336645Y-103756776D01*
X143345727Y-103747693D01*
X143367224Y-103787062D01*
X143362240Y-103856754D01*
X143333739Y-103901101D01*
X143210004Y-104024835D01*
X143210000Y-104024841D01*
X143181842Y-104052999D01*
X143181842Y-104053000D01*
X143187731Y-104058889D01*
X143187732Y-104058891D01*
X143333739Y-104204898D01*
X143367224Y-104266221D01*
X143362240Y-104335913D01*
X143347018Y-104359597D01*
X143336645Y-104349224D01*
X143299891Y-104334000D01*
X143260109Y-104334000D01*
X143223355Y-104349224D01*
X143195224Y-104377355D01*
X143180000Y-104414109D01*
X143180000Y-104453891D01*
X143195224Y-104490645D01*
X143204305Y-104499726D01*
X143164937Y-104521224D01*
X143095245Y-104516240D01*
X143050898Y-104487739D01*
X142899001Y-104335842D01*
X142870843Y-104364000D01*
X142870836Y-104364003D01*
X142747101Y-104487739D01*
X142685778Y-104521224D01*
X142616086Y-104516240D01*
X142592402Y-104501018D01*
X142602776Y-104490645D01*
X142618000Y-104453891D01*
X142618000Y-104414109D01*
X142602776Y-104377355D01*
X142574645Y-104349224D01*
X142537891Y-104334000D01*
X142498109Y-104334000D01*
X142461355Y-104349224D01*
X142433224Y-104377355D01*
X142418000Y-104414109D01*
X142418000Y-104453891D01*
X142433224Y-104490645D01*
X142442306Y-104499727D01*
X142402936Y-104521224D01*
X142333245Y-104516240D01*
X142288898Y-104487739D01*
X142137001Y-104335842D01*
X142108843Y-104364000D01*
X142108836Y-104364003D01*
X141985101Y-104487739D01*
X141923778Y-104521224D01*
X141854086Y-104516240D01*
X141830402Y-104501018D01*
X141840776Y-104490645D01*
X141856000Y-104453891D01*
X141856000Y-104414109D01*
X141840776Y-104377355D01*
X141812645Y-104349224D01*
X141775891Y-104334000D01*
X141736109Y-104334000D01*
X141699355Y-104349224D01*
X141690272Y-104358306D01*
X141668774Y-104318936D01*
X141673758Y-104249244D01*
X141702259Y-104204896D01*
X141789680Y-104117476D01*
X141854157Y-104053000D01*
X141854156Y-104052999D01*
X142419842Y-104052999D01*
X142419842Y-104053000D01*
X142425731Y-104058889D01*
X142425732Y-104058891D01*
X142518000Y-104151156D01*
X142551679Y-104117477D01*
X142551680Y-104117477D01*
X142616157Y-104053000D01*
X142569120Y-104005963D01*
X142518000Y-103954842D01*
X142448004Y-104024835D01*
X142448000Y-104024841D01*
X142419842Y-104052999D01*
X141854156Y-104052999D01*
X141807121Y-104005964D01*
X141807119Y-104005961D01*
X141723158Y-103922000D01*
X140997558Y-103922000D01*
X140930519Y-103902315D01*
X140894456Y-103866891D01*
X140825511Y-103763707D01*
X140825509Y-103763705D01*
X140821488Y-103759684D01*
X140788001Y-103698365D01*
X140791307Y-103652109D01*
X141656000Y-103652109D01*
X141656000Y-103691891D01*
X141671224Y-103728645D01*
X141699355Y-103756776D01*
X141736109Y-103772000D01*
X141775891Y-103772000D01*
X141812645Y-103756776D01*
X141840776Y-103728645D01*
X141856000Y-103691891D01*
X141856000Y-103652109D01*
X142418000Y-103652109D01*
X142418000Y-103691891D01*
X142433224Y-103728645D01*
X142461355Y-103756776D01*
X142498109Y-103772000D01*
X142537891Y-103772000D01*
X142574645Y-103756776D01*
X142602776Y-103728645D01*
X142618000Y-103691891D01*
X142618000Y-103672000D01*
X142800842Y-103672000D01*
X142851963Y-103723120D01*
X142899000Y-103770157D01*
X142963477Y-103705680D01*
X142963477Y-103705679D01*
X142997156Y-103672000D01*
X142904894Y-103579735D01*
X142904889Y-103579731D01*
X142899000Y-103573842D01*
X142870843Y-103602000D01*
X142870836Y-103602003D01*
X142800842Y-103672000D01*
X142618000Y-103672000D01*
X142618000Y-103652109D01*
X142602776Y-103615355D01*
X142574645Y-103587224D01*
X142537891Y-103572000D01*
X142498109Y-103572000D01*
X142461355Y-103587224D01*
X142433224Y-103615355D01*
X142418000Y-103652109D01*
X141856000Y-103652109D01*
X141840776Y-103615355D01*
X141812645Y-103587224D01*
X141775891Y-103572000D01*
X141736109Y-103572000D01*
X141699355Y-103587224D01*
X141671224Y-103615355D01*
X141656000Y-103652109D01*
X140791307Y-103652109D01*
X140792982Y-103628673D01*
X140821488Y-103584315D01*
X140825509Y-103580295D01*
X140862402Y-103525081D01*
X140894456Y-103477109D01*
X140948068Y-103432304D01*
X140997558Y-103422000D01*
X141723158Y-103422000D01*
X141789676Y-103355480D01*
X141789680Y-103355475D01*
X141854156Y-103290999D01*
X142419842Y-103290999D01*
X142419842Y-103291000D01*
X142425731Y-103296889D01*
X142425732Y-103296891D01*
X142518000Y-103389156D01*
X142551679Y-103355477D01*
X142551680Y-103355477D01*
X142616157Y-103291000D01*
X142569120Y-103243963D01*
X142518000Y-103192842D01*
X142448004Y-103262835D01*
X142448000Y-103262841D01*
X142419842Y-103290999D01*
X141854156Y-103290999D01*
X141807121Y-103243964D01*
X141807119Y-103243961D01*
X141702260Y-103139102D01*
X141668775Y-103077779D01*
X141673759Y-103008087D01*
X141688980Y-102984401D01*
X141699355Y-102994776D01*
X141736109Y-103010000D01*
X141775891Y-103010000D01*
X141812645Y-102994776D01*
X141840776Y-102966645D01*
X141856000Y-102929891D01*
X141856000Y-102890109D01*
X141840776Y-102853355D01*
X141831693Y-102844272D01*
X141871063Y-102822775D01*
X141940755Y-102827759D01*
X141985102Y-102856260D01*
X142089958Y-102961116D01*
X142089964Y-102961121D01*
X142137000Y-103008157D01*
X142201476Y-102943680D01*
X142288896Y-102856259D01*
X142350219Y-102822774D01*
X142419911Y-102827758D01*
X142443598Y-102842980D01*
X142433224Y-102853355D01*
X142418000Y-102890109D01*
X142418000Y-102929891D01*
X142433224Y-102966645D01*
X142461355Y-102994776D01*
X142498109Y-103010000D01*
X142537891Y-103010000D01*
X142574645Y-102994776D01*
X142602776Y-102966645D01*
X142618000Y-102929891D01*
X142618000Y-102890109D01*
X142602776Y-102853355D01*
X142593693Y-102844272D01*
X142633063Y-102822775D01*
X142702755Y-102827759D01*
X142747102Y-102856260D01*
X142851958Y-102961116D01*
X142851964Y-102961121D01*
X142899000Y-103008157D01*
X142963476Y-102943680D01*
X143050896Y-102856259D01*
X143112219Y-102822774D01*
X143181911Y-102827758D01*
G37*
%TD.AperFunction*%
%TA.AperFunction,Conductor*%
G36*
X147701039Y-98825685D02*
G01*
X147746794Y-98878489D01*
X147758000Y-98930000D01*
X147758000Y-100030999D01*
X147807972Y-100030999D01*
X147807986Y-100030998D01*
X147910697Y-100020505D01*
X148077119Y-99965358D01*
X148077124Y-99965356D01*
X148226345Y-99873315D01*
X148350317Y-99749343D01*
X148390795Y-99683718D01*
X148442743Y-99636993D01*
X148511705Y-99625770D01*
X148575787Y-99653613D01*
X148614644Y-99711682D01*
X148617951Y-99724622D01*
X148630340Y-99786907D01*
X148630343Y-99786917D01*
X148686913Y-99923490D01*
X148686914Y-99923492D01*
X148715193Y-99965814D01*
X148715194Y-99965816D01*
X148769043Y-100046410D01*
X148769047Y-100046415D01*
X148769048Y-100046416D01*
X150293048Y-101570415D01*
X150293049Y-101570416D01*
X150351825Y-101629192D01*
X150397585Y-101674952D01*
X150520498Y-101757080D01*
X150520511Y-101757087D01*
X150657082Y-101813656D01*
X150657087Y-101813658D01*
X150749237Y-101831988D01*
X150811148Y-101864372D01*
X150845722Y-101925088D01*
X150848266Y-101967488D01*
X150832435Y-102107996D01*
X150832435Y-102108003D01*
X150852630Y-102287249D01*
X150852631Y-102287254D01*
X150912211Y-102457523D01*
X150972515Y-102553496D01*
X151007338Y-102608916D01*
X151008185Y-102610263D01*
X151010445Y-102613097D01*
X151011334Y-102615275D01*
X151011889Y-102616158D01*
X151011734Y-102616255D01*
X151036855Y-102677783D01*
X151037500Y-102690412D01*
X151037500Y-103331902D01*
X151017815Y-103398941D01*
X151001181Y-103419583D01*
X150027180Y-104393584D01*
X149965857Y-104427069D01*
X149896165Y-104422085D01*
X149840232Y-104380213D01*
X149815815Y-104314749D01*
X149815499Y-104305903D01*
X149815499Y-104027998D01*
X149815498Y-104027981D01*
X149804999Y-103925203D01*
X149804998Y-103925200D01*
X149788599Y-103875712D01*
X149749814Y-103758666D01*
X149657712Y-103609344D01*
X149533656Y-103485288D01*
X149530819Y-103483538D01*
X149529283Y-103481830D01*
X149527989Y-103480807D01*
X149528163Y-103480585D01*
X149484096Y-103431594D01*
X149472872Y-103362632D01*
X149500713Y-103298549D01*
X149530817Y-103272462D01*
X149533656Y-103270712D01*
X149657712Y-103146656D01*
X149749814Y-102997334D01*
X149804999Y-102830797D01*
X149815500Y-102728009D01*
X149815499Y-102127992D01*
X149813456Y-102107996D01*
X149804999Y-102025203D01*
X149804998Y-102025200D01*
X149797249Y-102001815D01*
X149749814Y-101858666D01*
X149657712Y-101709344D01*
X149533656Y-101585288D01*
X149408382Y-101508019D01*
X149384336Y-101493187D01*
X149384331Y-101493185D01*
X149382862Y-101492698D01*
X149217797Y-101438001D01*
X149217795Y-101438000D01*
X149115010Y-101427500D01*
X148064998Y-101427500D01*
X148064980Y-101427501D01*
X147962203Y-101438000D01*
X147962200Y-101438001D01*
X147795668Y-101493185D01*
X147795663Y-101493187D01*
X147646342Y-101585289D01*
X147522287Y-101709344D01*
X147516541Y-101718661D01*
X147464592Y-101765385D01*
X147395629Y-101776606D01*
X147331548Y-101748762D01*
X147323322Y-101741244D01*
X147314262Y-101732184D01*
X147161523Y-101636211D01*
X146991254Y-101576631D01*
X146991249Y-101576630D01*
X146812004Y-101556435D01*
X146811996Y-101556435D01*
X146632750Y-101576630D01*
X146632745Y-101576631D01*
X146462476Y-101636211D01*
X146309737Y-101732184D01*
X146182184Y-101859737D01*
X146134624Y-101935429D01*
X146082289Y-101981720D01*
X146013235Y-101992368D01*
X145949387Y-101963993D01*
X145915069Y-101916909D01*
X145895160Y-101868845D01*
X145895159Y-101868842D01*
X145825121Y-101764024D01*
X145825118Y-101764020D01*
X145735979Y-101674881D01*
X145735975Y-101674878D01*
X145631157Y-101604840D01*
X145631154Y-101604839D01*
X145514682Y-101556595D01*
X145514674Y-101556593D01*
X145391037Y-101532000D01*
X145158000Y-101532000D01*
X145158000Y-101897500D01*
X145138315Y-101964539D01*
X145085511Y-102010294D01*
X145034000Y-102021500D01*
X145002000Y-102021500D01*
X144934961Y-102001815D01*
X144889206Y-101949011D01*
X144878000Y-101897500D01*
X144878000Y-101532000D01*
X144792500Y-101532000D01*
X144725461Y-101512315D01*
X144679706Y-101459511D01*
X144668500Y-101408000D01*
X144668500Y-100191807D01*
X144688185Y-100124768D01*
X144704810Y-100104135D01*
X144848401Y-99960544D01*
X144909719Y-99927062D01*
X144979411Y-99932046D01*
X145001172Y-99942687D01*
X145038666Y-99965814D01*
X145205203Y-100020999D01*
X145307991Y-100031500D01*
X145908008Y-100031499D01*
X145908016Y-100031498D01*
X145908019Y-100031498D01*
X145964302Y-100025748D01*
X146010797Y-100020999D01*
X146177334Y-99965814D01*
X146326656Y-99873712D01*
X146450712Y-99749656D01*
X146452752Y-99746347D01*
X146454745Y-99744555D01*
X146455193Y-99743989D01*
X146455289Y-99744065D01*
X146504694Y-99699623D01*
X146573656Y-99688395D01*
X146637740Y-99716234D01*
X146663829Y-99746339D01*
X146665681Y-99749341D01*
X146665683Y-99749344D01*
X146789654Y-99873315D01*
X146938875Y-99965356D01*
X146938880Y-99965358D01*
X147105302Y-100020505D01*
X147105309Y-100020506D01*
X147208019Y-100030999D01*
X147257999Y-100030998D01*
X147258000Y-100030998D01*
X147258000Y-98930000D01*
X147277685Y-98862961D01*
X147330489Y-98817206D01*
X147382000Y-98806000D01*
X147634000Y-98806000D01*
X147701039Y-98825685D01*
G37*
%TD.AperFunction*%
%TA.AperFunction,Conductor*%
G36*
X146770809Y-97036185D02*
G01*
X146791451Y-97052819D01*
X147132017Y-97393385D01*
X147165502Y-97454707D01*
X147160518Y-97524398D01*
X147118647Y-97580332D01*
X147083341Y-97598771D01*
X146938878Y-97646642D01*
X146938875Y-97646643D01*
X146789654Y-97738684D01*
X146665683Y-97862655D01*
X146665679Y-97862660D01*
X146663826Y-97865665D01*
X146662018Y-97867290D01*
X146661202Y-97868323D01*
X146661025Y-97868183D01*
X146611874Y-97912385D01*
X146542911Y-97923601D01*
X146478831Y-97895752D01*
X146452753Y-97865653D01*
X146452737Y-97865628D01*
X146450712Y-97862344D01*
X146326656Y-97738288D01*
X146178075Y-97646643D01*
X146177336Y-97646187D01*
X146177331Y-97646185D01*
X146133081Y-97631522D01*
X146010797Y-97591001D01*
X146010795Y-97591000D01*
X145908010Y-97580500D01*
X145307998Y-97580500D01*
X145307980Y-97580501D01*
X145205203Y-97591000D01*
X145205200Y-97591001D01*
X145038668Y-97646185D01*
X145038663Y-97646187D01*
X144889342Y-97738289D01*
X144765289Y-97862342D01*
X144673187Y-98011663D01*
X144673186Y-98011666D01*
X144618001Y-98178203D01*
X144618001Y-98178204D01*
X144618000Y-98178204D01*
X144607500Y-98280983D01*
X144607500Y-98310191D01*
X144587815Y-98377230D01*
X144571181Y-98397872D01*
X143512727Y-99456325D01*
X143512724Y-99456328D01*
X143467217Y-99524436D01*
X143441535Y-99562872D01*
X143407061Y-99646100D01*
X143363220Y-99700503D01*
X143296926Y-99722568D01*
X143229226Y-99705289D01*
X143181616Y-99654151D01*
X143168500Y-99598647D01*
X143168500Y-97787067D01*
X143187507Y-97721094D01*
X143243788Y-97631524D01*
X143244425Y-97629703D01*
X143303368Y-97461255D01*
X143304106Y-97454707D01*
X143323565Y-97282003D01*
X143323565Y-97281996D01*
X143309187Y-97154383D01*
X143321242Y-97085561D01*
X143368591Y-97034182D01*
X143432407Y-97016500D01*
X146703770Y-97016500D01*
X146770809Y-97036185D01*
G37*
%TD.AperFunction*%
%TA.AperFunction,Conductor*%
G36*
X142548539Y-78564185D02*
G01*
X142594294Y-78616989D01*
X142605500Y-78668500D01*
X142605500Y-78742931D01*
X142586494Y-78808903D01*
X142530211Y-78898477D01*
X142530209Y-78898481D01*
X142470633Y-79068737D01*
X142470630Y-79068750D01*
X142450435Y-79247996D01*
X142450435Y-79248003D01*
X142470630Y-79427249D01*
X142470631Y-79427254D01*
X142530211Y-79597523D01*
X142569769Y-79660478D01*
X142626184Y-79750262D01*
X142753738Y-79877816D01*
X142906478Y-79973789D01*
X142977098Y-79998500D01*
X143076745Y-80033368D01*
X143076750Y-80033369D01*
X143255996Y-80053565D01*
X143256000Y-80053565D01*
X143256003Y-80053565D01*
X143386666Y-80038842D01*
X143425651Y-80034450D01*
X143494473Y-80046504D01*
X143545853Y-80093853D01*
X143563477Y-80161464D01*
X143551917Y-80210074D01*
X143506099Y-80308330D01*
X143506094Y-80308344D01*
X143444938Y-80536586D01*
X143444936Y-80536596D01*
X143424341Y-80771999D01*
X143424341Y-80772000D01*
X143444936Y-81007403D01*
X143444938Y-81007413D01*
X143506094Y-81235655D01*
X143506096Y-81235659D01*
X143506097Y-81235663D01*
X143510000Y-81244032D01*
X143605965Y-81449830D01*
X143605967Y-81449834D01*
X143714281Y-81604521D01*
X143741501Y-81643396D01*
X143741506Y-81643402D01*
X143908597Y-81810493D01*
X143908603Y-81810498D01*
X144094158Y-81940425D01*
X144137783Y-81995002D01*
X144144977Y-82064500D01*
X144113454Y-82126855D01*
X144094158Y-82143575D01*
X143908597Y-82273505D01*
X143741505Y-82440597D01*
X143605965Y-82634169D01*
X143605964Y-82634171D01*
X143591474Y-82665246D01*
X143545301Y-82717685D01*
X143478107Y-82736837D01*
X143411226Y-82716621D01*
X143391411Y-82700522D01*
X142164819Y-81473930D01*
X142131334Y-81412607D01*
X142128500Y-81386249D01*
X142128500Y-80515067D01*
X142147507Y-80449094D01*
X142203788Y-80359524D01*
X142203789Y-80359522D01*
X142263368Y-80189255D01*
X142264257Y-80181365D01*
X142283565Y-80010003D01*
X142283565Y-80009996D01*
X142263369Y-79830750D01*
X142263368Y-79830745D01*
X142235206Y-79750262D01*
X142203789Y-79660478D01*
X142166071Y-79600451D01*
X142133391Y-79548441D01*
X142107816Y-79507738D01*
X141980262Y-79380184D01*
X141961070Y-79368125D01*
X141827523Y-79284211D01*
X141657254Y-79224631D01*
X141657249Y-79224630D01*
X141478004Y-79204435D01*
X141477996Y-79204435D01*
X141298750Y-79224630D01*
X141298745Y-79224631D01*
X141128476Y-79284211D01*
X140975737Y-79380184D01*
X140848184Y-79507737D01*
X140817269Y-79556939D01*
X140764934Y-79603230D01*
X140695880Y-79613878D01*
X140632032Y-79585503D01*
X140624594Y-79578648D01*
X139906818Y-78860872D01*
X139873333Y-78799549D01*
X139870499Y-78773191D01*
X139870499Y-78685971D01*
X139870499Y-78685964D01*
X139869922Y-78679479D01*
X139883592Y-78610963D01*
X139932136Y-78560711D01*
X139993435Y-78544500D01*
X142481500Y-78544500D01*
X142548539Y-78564185D01*
G37*
%TD.AperFunction*%
%TA.AperFunction,Conductor*%
G36*
X144402867Y-76720185D02*
G01*
X144448622Y-76772989D01*
X144458566Y-76842147D01*
X144429541Y-76905703D01*
X144370763Y-76943477D01*
X144367921Y-76944275D01*
X144316344Y-76958094D01*
X144316335Y-76958098D01*
X144102171Y-77057964D01*
X144102169Y-77057965D01*
X143908597Y-77193505D01*
X143741508Y-77360594D01*
X143606461Y-77553462D01*
X143551884Y-77597086D01*
X143482385Y-77604279D01*
X143420031Y-77572757D01*
X143417205Y-77570019D01*
X143235912Y-77388726D01*
X143235908Y-77388723D01*
X143129366Y-77317535D01*
X143010983Y-77268499D01*
X143010977Y-77268497D01*
X142885310Y-77243500D01*
X142885308Y-77243500D01*
X136417931Y-77243500D01*
X136417929Y-77243500D01*
X136292261Y-77268497D01*
X136292255Y-77268499D01*
X136173870Y-77317535D01*
X136067331Y-77388722D01*
X136067324Y-77388728D01*
X135791775Y-77664277D01*
X135730452Y-77697762D01*
X135717988Y-77699815D01*
X135710752Y-77700630D01*
X135710744Y-77700632D01*
X135540478Y-77760210D01*
X135387737Y-77856184D01*
X135260184Y-77983737D01*
X135164211Y-78136476D01*
X135104631Y-78306745D01*
X135104630Y-78306750D01*
X135084435Y-78485996D01*
X135084435Y-78486003D01*
X135104630Y-78665249D01*
X135104631Y-78665254D01*
X135164211Y-78835523D01*
X135214482Y-78915528D01*
X135233482Y-78982765D01*
X135213114Y-79049600D01*
X135159846Y-79094814D01*
X135109488Y-79105500D01*
X132331068Y-79105500D01*
X132265096Y-79086494D01*
X132175522Y-79030210D01*
X132175518Y-79030209D01*
X132005262Y-78970633D01*
X132005249Y-78970630D01*
X131826004Y-78950435D01*
X131825996Y-78950435D01*
X131700470Y-78964578D01*
X131631648Y-78952523D01*
X131580269Y-78905174D01*
X131562645Y-78837564D01*
X131562873Y-78832941D01*
X131569231Y-78740000D01*
X131550331Y-78463686D01*
X131531060Y-78370951D01*
X131493985Y-78192530D01*
X131493980Y-78192514D01*
X131401239Y-77931564D01*
X131401236Y-77931558D01*
X131401234Y-77931552D01*
X131273814Y-77685644D01*
X131114097Y-77459377D01*
X130925058Y-77256965D01*
X130710218Y-77082179D01*
X130710216Y-77082178D01*
X130710214Y-77082176D01*
X130473576Y-76938274D01*
X130473487Y-76938236D01*
X130473463Y-76938216D01*
X130469812Y-76936324D01*
X130470229Y-76935518D01*
X130419838Y-76893475D01*
X130398906Y-76826815D01*
X130417335Y-76759419D01*
X130469276Y-76712687D01*
X130522884Y-76700500D01*
X144335828Y-76700500D01*
X144402867Y-76720185D01*
G37*
%TD.AperFunction*%
%TD*%
M02*
