M48
INCH
T1C0.0079
T2C0.0118
T3C0.0374
%
G90
G05
T1
X5.5809Y-4.0516
X5.5809Y-4.0816
X5.5809Y-4.1116
X5.6109Y-4.0516
X5.6109Y-4.0816
X5.6109Y-4.1116
X5.6409Y-4.0516
X5.6409Y-4.0816
X5.6409Y-4.1116
T2
X5.14Y-4.3
X5.14Y-4.34
X5.14Y-4.38
X5.14Y-4.42
X5.18Y-4.3
X5.18Y-4.34
X5.18Y-4.38
X5.18Y-4.42
X5.19Y-3.14
X5.22Y-4.3
X5.22Y-4.34
X5.22Y-4.38
X5.22Y-4.42
X5.23Y-3.07
X5.26Y-3.07
X5.29Y-3.07
X5.32Y-3.07
X5.32Y-3.36
X5.34Y-3.14
X5.35Y-3.09
X5.35Y-3.2495
X5.39Y-3.81
X5.42Y-4.06
X5.45Y-4.02
X5.455Y-4.245
X5.48Y-3.95
X5.515Y-4.1644
X5.52Y-3.28
X5.5319Y-4.2581
X5.54Y-3.11
X5.54Y-3.49
X5.54Y-3.52
X5.54Y-4.3226
X5.54Y-4.37
X5.57Y-3.11
X5.57Y-3.15
X5.57Y-3.49
X5.57Y-3.52
X5.57Y-3.92
X5.6Y-3.11
X5.6Y-4.26
X5.6109Y-3.83
X5.64Y-3.12
X5.6503Y-4.2597
X5.66Y-3.9
X5.7Y-3.47
X5.7Y-3.51
X5.7Y-3.55
X5.7Y-3.59
X5.74Y-3.47
X5.74Y-3.51
X5.74Y-3.55
X5.74Y-3.59
X5.78Y-3.47
X5.78Y-3.51
X5.78Y-3.55
X5.78Y-3.59
X5.78Y-4.03
X5.81Y-4.29
X5.82Y-3.47
X5.82Y-3.51
X5.82Y-3.55
X5.82Y-3.59
X5.82Y-3.96
X5.83Y-3.77
X5.85Y-3.96
X5.85Y-4.29
X5.86Y-3.77
X5.86Y-3.8
X5.89Y-3.77
X5.89Y-3.8
X5.89Y-4.29
X5.93Y-4.21
X5.93Y-4.29
X5.96Y-3.35
X5.96Y-3.39
X5.97Y-3.72
X5.97Y-3.93
X5.97Y-4.02
X5.975Y-3.075
X5.98Y-3.27
X5.98Y-3.52
X5.98Y-4.44
X5.98Y-4.79
X6.02Y-4.44
X6.02Y-4.79
X6.04Y-4.17
X6.06Y-4.44
X6.06Y-4.79
X6.07Y-4.32
X6.1Y-4.44
X6.1Y-4.79
X6.13Y-3.98
X6.14Y-3.04
X6.17Y-3.04
X6.17Y-3.28
X6.17Y-3.31
X6.17Y-3.34
X6.17Y-3.37
X6.17Y-3.5
X6.2Y-3.04
X6.23Y-3.04
X6.25Y-3.12
X6.3Y-4.18
X6.35Y-3.72
X6.35Y-3.75
X6.36Y-3.98
X6.38Y-3.72
X6.38Y-3.75
X6.4Y-3.98
X6.41Y-3.72
X6.41Y-3.75
T3
X5.1807Y-3.3824
X5.1807Y-3.4808
X5.1807Y-3.5792
X5.1807Y-3.6776
X6.3Y-3.3247
X6.3Y-3.4231
X6.3Y-3.5216
X6.3Y-3.62
M30
